<svg xmlns="http://www.w3.org/2000/svg" id="Layer_1" data-name="Layer 1" viewBox="0 0 32 32">
  <defs>
    <style>
      .cls-2{fill:#676d8a}
    </style>
  </defs>
  <path fill="none" d="M8.51 18.47a5 5 0 1 0 5 5 5 5 0 0 0-5-5Zm3.49 5.8H9.28V27H7.74v-2.73H5.06v-1.54h2.68v-2.68h1.54v2.68H12ZM7 17.2a6.42 6.42 0 0 1 3 0V11h1.73L8.51 5.38 5.27 11H7Zm15-3.91a5 5 0 0 0 1.51.23 5 5 0 0 0 1.5-.23 5 5 0 1 0-3.09 0Zm-2-5.55h7v1.54h-7Zm5 7.07a6.16 6.16 0 0 1-1.5.18 6.24 6.24 0 0 1-1.5-.18V21h-1.75l3.25 5.6 3.24-5.6H25Z"/>
  <path d="M11.72 17.87V12.7h3L8.51 2 2.32 12.7h3v5.17a6.48 6.48 0 1 0 6.42 0ZM5.27 11l3.24-5.62L11.75 11H10v6.2a6.42 6.42 0 0 0-3 0V11Zm3.24 17.54a5 5 0 1 1 5-5 5 5 0 0 1-5 5Z" class="cls-2"/>
  <path d="M9.28 20.05H7.74v2.68H5.06v1.54h2.68v2.69h1.54v-2.69h2.69v-1.54H9.28v-2.68zm17.42-5.91a6.49 6.49 0 1 0-6.41 0v5.14h-3L23.5 30l6.19-10.72h-3Zm-8.24-5.63A5 5 0 1 1 25 13.29a5 5 0 0 1-1.5.23 5 5 0 0 1-1.5-.21 5 5 0 0 1-3.54-4.8ZM26.74 21l-3.24 5.6-3.25-5.6H22v-6.19a6.24 6.24 0 0 0 1.5.19 6.16 6.16 0 0 0 1.5-.18V21Z" class="cls-2"/>
  <path d="M20.04 7.74h6.91v1.54h-6.91z" class="cls-2"/>
</svg>
