<?xml version="1.0" standalone="no"?>
<!DOCTYPE svg PUBLIC "-//W3C//DTD SVG 1.1//EN" "http://www.w3.org/Graphics/SVG/1.1/DTD/svg11.dtd" >
<svg xmlns="http://www.w3.org/2000/svg">
<metadata>Generated by IcoMoon</metadata>
<defs>
<font id="icomoon" horiz-adv-x="1024">
<font-face units-per-em="1024" ascent="960" descent="-64" />
<missing-glyph horiz-adv-x="1024" />
<glyph unicode="&#x20;" horiz-adv-x="512" d="" />
<glyph unicode="&#xe001;" glyph-name="first-name" d="M384 512c53.019 0 96-42.981 96-96s-42.981-96-96-96c-53.019 0-96 42.981-96 96v0c0 53.019 42.981 96 96 96v0zM192 201.28c47.137 53.263 115.667 86.672 192 86.672s144.863-33.409 191.765-86.401l0.235-0.271v-73.28h-384zM896 64h-768v512h576v-192h-64v-64h192v64h-64v192h128zM960 640h-192v192h64v64h-192v-64h64v-192h-640v-640h896z" />
<glyph unicode="&#xe002;" glyph-name="last-name" d="M736 416c0-53.019-42.981-96-96-96s-96 42.981-96 96c0 53.019 42.981 96 96 96v0c53.019 0 96-42.981 96-96v0zM832 128h-384v73.28c47.137 53.263 115.667 86.672 192 86.672s144.863-33.409 191.765-86.401l0.235-0.271zM128 576h128v-192h-64v-64h192v64h-64v192h576v-512h-768zM64 0h896v640h-640v192h64v64h-192v-64h64v-192h-192z" />
<glyph unicode="&#xe003;" glyph-name="input-field" d="M768 704v64h64v64h-192v-64h64v-64h-640v-640h896v640zM896 128h-768v512h576v-384h-64v-64h192v64h-64v384h128z" />
<glyph unicode="&#xe004;" glyph-name="input-field-password" d="M448 448c35.346 0 64-28.654 64-64s-28.654-64-64-64c-35.346 0-64 28.654-64 64v0c0 35.346 28.654 64 64 64v0zM256 448c35.346 0 64-28.654 64-64s-28.654-64-64-64c-35.346 0-64 28.654-64 64v0c0 35.346 28.654 64 64 64v0zM896 640h-128v-384h64v-64h-192v64h64v384h-576v-512h768zM960 64h-896v640h640v64h-64v64h192v-64h-64v-64h192z" />
<glyph unicode="&#xe005;" glyph-name="checkbox" d="M285.76 459.2l135.68-135.68 316.8 316.8 45.44-45.12-362.24-362.24-181.12 181.12zM896 832h-768v-768h768zM960 0h-896v896h896z" />
<glyph unicode="&#xe006;" glyph-name="radio" d="M512 256c-106.039 0-192 85.961-192 192s85.961 192 192 192c106.039 0 192-85.961 192-192v0c0-106.039-85.961-192-192-192v0zM512 832c-212.077 0-384-171.923-384-384s171.923-384 384-384c212.077 0 384 171.923 384 384v0c0 212.077-171.923 384-384 384v0zM512 0c-247.424 0-448 200.576-448 448s200.576 448 448 448c247.424 0 448-200.576 448-448v0c0-247.424-200.576-448-448-448v0z" />
<glyph unicode="&#xe007;" glyph-name="number" d="M128 64h768v768h-768zM576 512h-128v-128h128zM640 192h-64v128h-128v-128h-64v128h-128v64h128v128h-128v64h128v128h64v-128h128v128h64v-128h128v-64h-128v-128h128v-64h-128zM960 0h-896v896h896z" />
<glyph unicode="&#xe008;" glyph-name="phone" d="M256 832v-768h512v768zM448 704h-64v64h64zM512 128c-17.673 0-32 14.327-32 32s14.327 32 32 32c17.673 0 32-14.327 32-32v0c0-17.673-14.327-32-32-32v0zM640 704h-128v64h128zM832 0h-640v896h640z" />
<glyph unicode="&#xe009;" glyph-name="calendar" d="M896 768h-128v128h-64v-128h-384v128h-64v-128h-192v-768h896v768zM896 64h-768v448h768z" />
<glyph unicode="&#xe00a;" glyph-name="drop-down" d="M240.32 649.6l271.68-271.36 271.68 271.36 45.12-45.12-316.8-316.48-316.8 316.8zM896 832h-768v-768h768zM960 0h-896v896h896z" />
<glyph unicode="&#xe00b;" glyph-name="textarea" d="M192 704h192v-64h-64v-192h-64v192h-64zM896 293.44l-165.44-165.44h165.44zM896 768h-768v-640h512l256 256zM960 448v-384h-896v768h896z" />
<glyph unicode="&#xe00c;" glyph-name="email" d="M64 768v-640h896v640zM512 365.12l-338.88 338.88h677.76zM512 274.88l128 128 210.88-210.88h-677.76l210.88 210.88zM896 658.88v-421.76l-210.88 210.88zM338.88 448l-210.88-210.88v421.76z" />
<glyph unicode="&#xe00d;" glyph-name="email-secondary" d="M640 704h64v64h64v-64h64v-64h-64v-64h-64v64h-64zM736 512c88.366 0 160 71.634 160 160s-71.634 160-160 160c-88.366 0-160-71.634-160-160v0c0-88.366 71.634-160 160-160v0zM128 530.88v-421.76l210.88 210.88zM512 237.12l211.52 210.88c-83.72 5.063-154.589 55.397-188.858 126.657l-0.582 1.343h-360.96zM850.88 64l-210.88 210.88-128-128-128 128-210.88-210.88zM896 515.52c-16.445-16.931-35.565-31.147-56.701-41.992l-1.219-0.568-152.96-152.96 210.88-210.88zM960 0h-896v640h450.56c-1.583 9.588-2.512 20.666-2.56 31.953v0.047c0 123.712 100.288 224 224 224s224-100.288 224-224v0z" />
<glyph unicode="&#xe00e;" glyph-name="confirm-email" d="M685.12 320l210.88-210.88v361.92c-36.188-41.007-84.893-70.21-140.103-81.633l-1.657-0.287zM624.96 660.8l45.12-45.44 112.96 113.28 45.44-45.44-158.4-158.4-90.56 90.56zM512 640c0-106.039 85.961-192 192-192s192 85.961 192 192c0 106.039-85.961 192-192 192v0c-106.039 0-192-85.961-192-192v0zM850.88 64l-210.88 210.88-128-128-128 128-210.88-210.88zM173.12 576l338.88-338.88 150.4 150.4c-100.564 17.079-180.226 90.846-205.677 186.693l-0.403 1.787zM128 109.12l210.88 210.88-210.88 210.88zM960 0h-896v640h384c-0.072 2.226-0.112 4.845-0.112 7.472 0 137.32 111.32 248.64 248.64 248.64 2.628 0 5.246-0.041 7.853-0.122l-0.381 0.009c2.226 0.072 4.845 0.112 7.472 0.112 137.32 0 248.64-111.32 248.64-248.64 0-2.628-0.041-5.246-0.122-7.853l0.009 0.381z" />
<glyph unicode="&#xe00f;" glyph-name="invite-code" d="M704 640c35.346 0 64-28.654 64-64s-28.654-64-64-64c-35.346 0-64 28.654-64 64v0c0 35.346 28.654 64 64 64v0zM512 640c35.346 0 64-28.654 64-64s-28.654-64-64-64c-35.346 0-64 28.654-64 64v0c0 35.346 28.654 64 64 64v0zM320 640c35.346 0 64-28.654 64-64s-28.654-64-64-64c-35.346 0-64 28.654-64 64v0c0 35.346 28.654 64 64 64v0zM128 530.88v-421.76l210.88 210.88zM512 237.12l320 320v274.88h-640v-274.88zM850.88 64l-210.88 210.88-128-128-128 128-210.88-210.88zM896 530.88l-210.88-210.88 210.88-210.88zM960 0h-896v640h64v256h768v-256h64z" />
<glyph unicode="&#xe010;" glyph-name="password" d="M384 640h256v64c0 70.692-57.308 128-128 128s-128-57.308-128-128v0zM192 64h640v512h-640zM320 256c-35.346 0-64 28.654-64 64s28.654 64 64 64c35.346 0 64-28.654 64-64v0c0-35.346-28.654-64-64-64v0zM512 256c-35.346 0-64 28.654-64 64s28.654 64 64 64c35.346 0 64-28.654 64-64v0c0-35.346-28.654-64-64-64v0zM704 256c-35.346 0-64 28.654-64 64s28.654 64 64 64c35.346 0 64-28.654 64-64v0c0-35.346-28.654-64-64-64v0zM896 0h-768v640h192v64c0 106.039 85.961 192 192 192s192-85.961 192-192v0-64h192z" />
<glyph unicode="&#xe011;" glyph-name="password-confirm" d="M828.48 299.2l-158.4-160-90.56 90.56 45.44 45.44 45.12-45.44 112.96 113.28zM704 448c-106.039 0-192-85.961-192-192s85.961-192 192-192c106.039 0 192 85.961 192 192v0c0 106.039-85.961 192-192 192v0zM320 640h256v64c0 70.692-57.308 128-128 128s-128-57.308-128-128v0zM128 64h407.040c-53.401 47.082-86.94 115.614-87.040 191.982v0.018c-0.094 0-0.205-0.001-0.317-0.001-35.346 0-64 28.654-64 64s28.654 64 64 64c11.136 0 21.609-2.844 30.729-7.846l-0.333 0.167c43.957 81.335 128.592 135.663 225.918 135.68h0.002c22.806-0.155 44.836-3.181 65.839-8.733l-1.839 0.413v72.32h-640zM320 320c0-35.346-28.654-64-64-64s-64 28.654-64 64c0 35.346 28.654 64 64 64v0c35.346 0 64-28.654 64-64v0zM704 0h-640v640h192v64c0 106.039 85.961 192 192 192s192-85.961 192-192v0-64h192v-162.56c76.806-45.146 127.547-127.368 127.547-221.44 0-141.226-114.357-255.742-255.522-256h-0.025z" />
<glyph unicode="&#xe012;" glyph-name="username" d="M954.24 36.8c-28.299 182.261-163.846 326.419-339.077 367.093l-3.003 0.587c92.382 40.009 155.84 130.39 155.84 235.593 0 141.385-114.615 256-256 256s-256-114.615-256-256c0-105.202 63.458-195.583 154.185-234.953l1.655-0.64c-178.234-41.261-313.781-185.42-341.76-365.179l-0.32-2.501-5.76-36.8h896zM320 640c0 106.039 85.961 192 192 192s192-85.961 192-192c0-106.039-85.961-192-192-192v0c-106.039 0-192 85.961-192 192v0zM140.48 64c44.544 166.382 193.958 286.898 371.52 286.898s326.976-120.516 370.907-284.213l0.613-2.685z" />
<glyph unicode="&#xe013;" glyph-name="user-nickname" d="M736 288c88.366 0 160 71.634 160 160s-71.634 160-160 160c-88.366 0-160-71.634-160-160v0c0-88.366 71.634-160 160-160v0zM288 288c88.366 0 160 71.634 160 160s-71.634 160-160 160c-88.366 0-160-71.634-160-160v0c0-88.366 71.634-160 160-160v0zM512 800c-111.85-0.067-211.488-52.292-275.919-133.666l-0.561-0.734c15.752 4.066 33.836 6.4 52.464 6.4 0.005 0 0.011 0 0.016 0h-0.001c123.712 0 224-100.288 224-224s-100.288-224-224-224v0c-18.812 0.171-36.996 2.495-54.431 6.735l1.631-0.335c65.034-82.128 164.739-134.344 276.64-134.344s211.606 52.216 276.080 133.611l0.56 0.732c-15.681-4.066-33.683-6.4-52.23-6.4-0.088 0-0.175 0-0.263 0h0.013c-123.712 0-224 100.288-224 224s100.288 224 224 224v0c18.415-0.055 36.285-2.269 53.408-6.399l-1.568 0.319c-64.674 81.953-163.999 134.080-275.5 134.080-0.12 0-0.239 0-0.359 0h0.019zM224 448c0 35.346 28.654 64 64 64s64-28.654 64-64c0-35.346-28.654-64-64-64v0c-35.346 0-64 28.654-64 64v0zM736 384c-35.346 0-64 28.654-64 64s28.654 64 64 64c35.346 0 64-28.654 64-64v0c0-35.346-28.654-64-64-64v0zM898.24 293.76q-6.4-15.68-13.44-32c-69.665-137.905-210.237-230.818-372.51-230.818-169.966 0-316.125 101.931-380.681 247.999l-1.049 2.659-4.8 12.48c-38.389 40.138-62.019 94.669-62.019 154.72s23.63 114.582 62.099 154.804l-0.079-0.084h2.24c62.628 153.777 210.851 260.248 383.97 260.48h0.030c173.952-0.698 322.79-107.483 385.225-258.979l1.015-2.781c38.115-40.081 61.562-94.422 61.562-154.24s-23.447-114.159-61.652-154.335l0.089 0.095z" />
<glyph unicode="&#xe014;" glyph-name="display-name" d="M704 192h-384v73.28c47.137 53.263 115.667 86.672 192 86.672s144.863-33.409 191.765-86.401l0.235-0.271zM384 704v64h256v-64zM608 480c0-53.019-42.981-96-96-96s-96 42.981-96 96c0 53.019 42.981 96 96 96v0c53.019 0 96-42.981 96-96v0zM896 0h-768v896h768zM832 832h-640v-768h640z" />
<glyph unicode="&#xe015;" glyph-name="user-bio" d="M512 768c53.019 0 96-42.981 96-96s-42.981-96-96-96c-53.019 0-96 42.981-96 96v0c0 53.019 42.981 96 96 96v0zM896 0h-768v896h768zM576 128h-256v64h256zM704 256h-384v64h384zM704 384h-384v73.28c47.137 53.263 115.667 86.672 192 86.672s144.863-33.409 191.765-86.401l0.235-0.271zM192 64h640v768h-640z" />
<glyph unicode="&#xe016;" glyph-name="website" d="M896 576c0 0.073 0 0.16 0 0.247 0 36.962-7.893 72.081-22.085 103.763l0.644-1.61c-22.135-8.717-48.812-16.663-76.287-22.443l-3.393-0.597c3.312-24.028 5.203-51.793 5.203-80s-1.891-55.973-5.553-83.176l0.35 3.176c30.868-6.377 57.545-14.323 83.237-24.249l-3.557 1.209c13.55 30.075 21.445 65.197 21.445 102.164 0 0.533-0.002 1.066-0.005 1.599v-0.082zM840.64 416c-15.907 6.005-35.213 11.531-55.060 15.568l-2.54 0.432c-7.746-33.363-18.745-62.711-32.994-90.099l0.994 2.099c35.754 17.539 65.686 41.841 89.195 71.471l0.405 0.529zM783.040 716.8c22.592 4.536 42.005 10.060 60.78 16.913l-2.86-0.913c-24.056 30.741-54.2 55.564-88.743 72.918l-1.497 0.682c13.36-25.287 24.463-54.626 31.802-85.425l0.518-2.575zM640 320c23.040 0 59.2 45.12 79.68 123.52-24.009 2.876-51.813 4.517-80 4.517s-55.991-1.641-83.322-4.832l3.322 0.316c21.12-78.4 57.28-123.52 80.32-123.52zM548.16 506.56c27.569 3.464 59.474 5.44 91.84 5.44s64.27-1.977 95.598-5.816l-3.758 0.375c2.648 20.847 4.159 44.967 4.159 69.44s-1.511 48.593-4.445 72.273l0.286-2.833c-27.558-3.453-59.462-5.429-91.825-5.44h-0.015c-32.378 0.011-64.282 1.987-95.614 5.816l3.774-0.376c-2.648-20.847-4.159-44.967-4.159-69.44s1.511-48.593 4.445-72.273l-0.286 2.833zM719.68 708.48c-20.48 78.4-56.64 123.52-79.68 123.52s-59.2-45.12-79.68-123.52c23.909-2.85 51.603-4.477 79.677-4.48h0.003c28.077 0.003 55.771 1.63 82.996 4.793l-3.316-0.313zM529.28 345.6c-13.255 25.289-24.254 54.637-31.492 85.436l-0.508 2.564c-22.592-4.536-42.005-10.060-60.78-16.913l2.86 0.913c24.092-30.084 54.109-54.37 88.399-71.32l1.521-0.68zM529.28 806.4c-35.88-17.501-65.922-41.811-89.518-71.477l-0.402-0.523c15.907-6.005 35.213-11.531 55.060-15.568l2.54-0.432c7.857 33.374 18.96 62.713 33.314 90.080l-0.994-2.080zM405.44 473.6c22.135 8.717 48.812 16.663 76.287 22.443l3.393 0.597c-3.312 24.028-5.203 51.793-5.203 80s1.891 55.973 5.553 83.176l-0.35-3.176c-30.868 6.377-57.545 14.323-83.237 24.249l3.557-1.209c-13.506-30.157-21.372-65.36-21.372-102.4s7.866-72.243 22.020-104.029l-0.648 1.629zM832 320c-52.815-39.956-119.599-64-192-64-176.731 0-320 143.269-320 320v0c0 0.095 0 0.207 0 0.32 0 22.54 2.33 44.536 6.764 65.76l-0.363-2.080h-134.4v-448h640zM960 0h-896v64h896zM896 384v-256h-768v576h218.88c50.532 114.247 162.881 192.521 293.512 192.521 176.731 0 320-143.269 320-320 0-72.63-24.197-139.609-64.969-193.314l0.577 0.793z" />
<glyph unicode="&#xe017;" glyph-name="country" d="M866.56 448l-153.6 192 153.6 192h-546.56v64h-64v-832h-64v-64h192v64h-64v384zM733.44 768l-102.4-128 102.4-128h-413.44v256z" />
<glyph unicode="&#xe018;" glyph-name="address-one" d="M576 384h-64v192h-64v64c35.346 0 64 28.654 64 64v0h64zM512 0c-43.045 36.614-82.080 73.622-119.048 112.608l-0.632 0.672c-74.243 75.404-137.49 161.935-186.949 256.798l-2.811 5.922c-26.793 48.484-42.56 106.292-42.56 167.782 0 194.404 157.596 352 352 352s352-157.596 352-352c0-61.49-15.767-119.298-43.478-169.601l0.918 1.819c-93.76-199.36-309.44-376-309.44-376zM512 256c159.058 0 288 128.942 288 288s-128.942 288-288 288c-159.058 0-288-128.942-288-288v0c0-159.058 128.942-288 288-288v0z" />
<glyph unicode="&#xe019;" glyph-name="address-two" d="M512 256c159.058 0 288 128.942 288 288s-128.942 288-288 288c-159.058 0-288-128.942-288-288v0c0-159.058 128.942-288 288-288v0zM608 448v-64h-192v64c0.52 9.751 4.573 18.466 10.889 24.969l111.991 111.991c6.041 5.829 9.793 13.996 9.793 23.040s-3.752 17.211-9.783 23.031l-0.010 0.009c-2.359 2.318-5.109 4.249-8.139 5.683l-0.181 0.077c-5.52 1.927-11.886 3.090-18.508 3.199l-0.052 0.001c-0.003 0-0.006 0-0.009 0-8.3 0-16.216-1.646-23.439-4.629l0.408 0.149c-17.391-6.913-30.779-20.719-36.98-37.954l-0.14-0.446-52.16 39.040c19.42 35.564 54.287 60.596 95.338 66.167l0.662 0.073c5.926 1.301 12.733 2.046 19.713 2.046 14.803 0 28.824-3.351 41.345-9.335l-0.579 0.249c10.736-4.939 19.936-11.272 27.872-18.91l-0.032 0.030c18.074-17.48 29.295-41.949 29.295-69.039 0-11.262-1.939-22.072-5.502-32.112l0.208 0.671c-4.902-14.255-12.564-26.453-22.415-36.495l0.015 0.015-92.48-91.52zM821.44 376c-93.76-199.36-309.44-376-309.44-376s-215.68 176.64-309.44 376v0c-26.793 48.484-42.56 106.292-42.56 167.782 0 194.404 157.596 352 352 352s352-157.596 352-352c0-61.49-15.767-119.298-43.478-169.601l0.918 1.819z" />
<glyph unicode="&#xe01a;" glyph-name="zip-code" d="M704 704c35.346 0 64-28.654 64-64s-28.654-64-64-64c-35.346 0-64 28.654-64 64v0c0 35.346 28.654 64 64 64v0zM704 768c-70.692 0-128-57.308-128-128s57.308-128 128-128c70.692 0 128 57.308 128 128v0c0 70.692-57.308 128-128 128v0zM960 0h-896v640h384c0 141.385 114.615 256 256 256s256-114.615 256-256v0zM896 459.2c-54.586-78.114-118.011-145.099-189.998-201.683l-2.002-1.517s-201.6 151.68-246.72 320h-105.28v-64h64v-64h-64v-64h64v-64h-64v-64h64v-64h-128v64h-64v64h64v64h-64v64h64v64h-64v64h-96v-512h768zM896 640c0 106.039-85.961 192-192 192s-192-85.961-192-192v0c0-109.44 116.48-234.88 192-301.12 75.52 66.24 192 191.68 192 301.12z" />
<glyph unicode="&#xe01b;" glyph-name="select" d="M320 640v-384h384v384zM576 896h128v-64h-128zM576 64h128v-64h-128zM320 896h128v-64h-128zM320 64h128v-64h-128zM64 640h64v-128h-64zM64 384h64v-128h-64zM192 0h-128v128h64v-64h64zM192 832h-64v-64h-64v128h128zM768 192h-512v512h512zM960 64v-64h-128v64h64v64h64zM960 256h-64v128h64zM960 512h-64v128h64zM960 832v-64h-64v64h-64v64h128z" />
<glyph unicode="&#xe01c;" glyph-name="multi-select" d="M832 896h128v-128h-64v64h-64zM896 512v128h64v-128zM960 384v-128h-64v128zM576 896h128v-64h-128zM576 64h128v-64h-128zM320 896h128v-64h-128zM320 64h128v-64h-128zM64 896h128v-64h-64v-64h-64zM64 640h64v-128h-64zM64 384h64v-128h-64zM64 0v128h64v-64h64v-64h-128zM832 256h-128v-128h-512v512h128v128h512zM832 64h64v64h64v-128h-128zM640 576h-384v-384h384zM768 704h-384v-64h320v-320h64z" />
<glyph unicode="&#xe01d;" glyph-name="checkboxcopy2" d="M960 0h-64v64h-768v-64h-64v128h896zM320 576v64h384v-64h-160v-320h-64v320zM960 768h-896v128h64v-64h768v64h64z" />
<glyph unicode="&#xe01e;" glyph-name="time-picker" d="M544 768h64v-224h224v-64h-288zM448 256c0 70.692-57.308 128-128 128s-128-57.308-128-128c0-70.692 57.308-128 128-128v0c70.692 0 128 57.308 128 128v0zM896 512c0 0.052 0 0.113 0 0.175 0 176.731-143.269 320-320 320s-320-143.269-320-320c0-25.712 3.032-50.716 8.759-74.673l-0.439 2.178c6.391 2.001 14.373 3.892 22.526 5.278l1.154 0.162v66.88h64v-66.88c80.488-14.047 143.073-76.632 156.953-155.97l0.167-1.15h66.88v-64h-66.88c-1.548-9.307-3.439-17.289-5.802-25.065l0.362 1.385c21.727-5.262 46.671-8.279 72.32-8.279 176.717 0 319.977 143.246 320 319.957v0.002zM576 128c-36.236 0.013-71.267 5.154-104.413 14.737l2.653-0.657c-29.053-39.021-71.843-66.41-121.089-75.033l-1.151-0.167v-66.88h-64v66.88c-80.488 14.047-143.073 76.632-156.953 155.97l-0.167 1.15h-66.88v64h66.88c8.787 50.231 36.047 92.89 74.378 121.561l0.502 0.359c-8.674 30.593-13.693 65.736-13.76 102.042v0.038c0 212.077 171.923 384 384 384s384-171.923 384-384c0-212.077-171.923-384-384-384v0z" />
<glyph unicode="&#xe01f;" glyph-name="state" d="M896 448v128h64v32l-448 224-448-224v-32h64v-128h64v-320h-128v-64h896v64h-128v320zM512 760.32l240.96-120.32h-481.92zM832 576v-64h-640v64zM256 128v320h128v-320zM448 128v320h128v-320zM768 128h-128v320h128z" />
<glyph unicode="&#xe020;" glyph-name="company" d="M512 832h-384v-768h64v192h256v-192h64v768zM448 640v-64h-256v64zM192 704v64h256v-64zM448 512v-64h-256v64zM448 384v-64h-256v64zM896 512h-320v-448h320zM832 320v-64h-192v64zM640 384v64h192v-64zM832 192v-64h-192v64zM960 0h-896v896h512v-320h384z" />
<glyph unicode="&#xe021;" glyph-name="text-editor" d="M192 832v-768h640v576h-192v192zM256 576h256v-64h-96v-256h-64v256h-96zM896 0h-768v896h558.4l209.6-206.72zM768 128h-512v64h512zM768 256h-192v64h192zM768 384h-192v64h192zM768 512h-192v64h192z" />
<glyph unicode="&#xe022;" glyph-name="privacy-policycopy4" d="M256 133.12l96 76.8 160-128 160 128 96-76.8v629.76l-96-76.8-160 128-160-128-96 76.8zM704 288h-384v64h384zM704 416h-384v64h384zM704 544h-384v64h384zM832 0l-160 128-160-128-160 128-160-128v896l160-128 160 128 160-128 160 128z" />
<glyph unicode="&#xe023;" glyph-name="privacy-policy" d="M320 640h384v-64h-384zM320 512h384v-64h-384zM320 384h384v-64h-384zM192 800c0 17.673-14.327 32-32 32s-32-14.327-32-32v0-96h64v96zM448 192h320v544c0 53.019-42.981 96-96 96v0h-421.76c3.562-9.508 5.666-20.494 5.76-31.959v-640.041c0-53.019 42.981-96 96-96s96 42.981 96 96v0zM890.56 128h-381.76c-5.109-24.456-15.153-45.983-29.091-64.401l0.291 0.401h320c0.015 0 0.033 0 0.050 0 41.549 0 76.933 26.395 90.298 63.332l0.211 0.668zM960 160c0-88.366-71.634-160-160-160v0h-448c-88.366 0-160 71.634-160 160v0 480h-128v160c0 53.019 42.981 96 96 96v0h512c88.366 0 160-71.634 160-160v0-544h128z" />
<glyph unicode="&#xe024;" glyph-name="file-upload" d="M832 640h-192v192h-448v-768h640zM579.84 417.92l-35.84 35.84v-261.76h-64v261.76l-35.84-35.84-45.12 45.12 112.96 112.96 112.96-112.96zM896 0h-768v896h558.4l209.6-206.72z" />
<glyph unicode="&#xe025;" glyph-name="address-twocopy" d="M466.88 498.56c14.449-12.152 33.26-19.535 53.796-19.535 0.55 0 1.099 0.005 1.646 0.016l-0.082-0.001c65.958-5.452 117.464-60.184 117.76-127.010v-0.030c-0.198-59.151-40.488-108.837-95.107-123.319l-0.893-0.201v-36.48h-64v36.48c-55.512 14.683-95.802 64.369-96 123.497v0.023h64c0-35.346 28.654-64 64-64s64 28.654 64 64v0c0 0.056 0 0.122 0 0.188 0 16.433-6.193 31.419-16.373 42.752l0.052-0.059c-11.34 11.92-26.883 19.75-44.244 21.105l-0.236 0.015c-36.11 1.29-68.696 15.394-93.568 37.874l0.128-0.114c-22.874 23.114-37.005 54.918-37.005 90.022 0 59.046 39.981 108.755 94.348 123.53l0.897 0.208v36.48h64v-36.48c55.512-14.683 95.802-64.369 96-123.497v-0.023h-64c0 35.346-28.654 64-64 64s-64-28.654-64-64v0c0-0.015 0-0.033 0-0.051 0-17.74 7.218-33.794 18.877-45.386l0.003-0.003zM896 0h-768v896h558.4l209.6-206.72zM832 640h-192v192h-448v-768h640z" />
<glyph unicode="&#xe026;" glyph-name="code" d="M128 832v-768h768v768zM428.8 300.8l-44.8-44.8-192 192 192 192 44.8-44.8-147.2-147.2zM640 256l-44.8 44.8 147.2 147.2-147.2 147.2 44.8 44.8 192-192zM960 0h-896v896h896z" />
<glyph unicode="&#xe027;" glyph-name="mailchimp" d="M724.16 472.64c2.784 0.306 6.011 0.48 9.28 0.48s6.497-0.174 9.675-0.514l-0.395 0.034c1.537 5.226 2.422 11.23 2.422 17.44s-0.885 12.214-2.535 17.892l0.113-0.452c-4.48 21.44-10.56 34.24-23.040 32s-12.8-17.28-8.32-38.4c2.296-10.878 6.757-20.453 12.933-28.665l-0.133 0.185zM617.6 455.68c8.96-3.84 14.4-6.4 16.32-4.16s0 4.16 0 7.36c-5.631 8.297-13.484 14.706-22.705 18.44l-0.335 0.12c-7.081 3.086-15.33 4.881-23.999 4.881-13.873 0-26.673-4.598-36.957-12.354l0.156 0.113c-6.080-4.16-11.52-10.24-10.88-14.080 0.578-1.25 1.775-2.127 3.187-2.239l0.013-0.001c10.913 3.214 25.052 6.44 39.444 8.926l2.476 0.354c0.435 0.009 0.949 0.015 1.463 0.015 11.583 0 22.53-2.723 32.236-7.564l-0.419 0.189zM599.68 445.44c-8.492-0.885-16.067-4.244-22.144-9.332l0.064 0.052c-2.817-2.025-4.801-5.057-5.428-8.559l-0.012-0.081c-0.128-0.333-0.202-0.718-0.202-1.12s0.074-0.787 0.21-1.142l-0.007 0.022h1.92c3.237 0.468 6.149 1.25 8.91 2.333l-0.27-0.093c7.967 3.075 17.185 4.857 26.82 4.857 3.633 0 7.206-0.253 10.703-0.743l-0.403 0.046c5.76 0 8.64 0 9.92 0s0 1.6 0 3.52c-6.151 6.587-14.886 10.693-24.581 10.693-1.942 0-3.846-0.165-5.698-0.481l0.199 0.028zM688.32 408c2.186-1.465 4.876-2.338 7.77-2.338 4.689 0 8.843 2.292 11.402 5.817l0.028 0.041c2.88 5.76 0 13.44-9.28 17.28-2.186 1.465-4.876 2.338-7.77 2.338-4.689 0-8.843-2.292-11.402-5.817l-0.028-0.041c-2.88-5.44 1.28-13.44 9.28-17.28zM738.56 452.16c-6.080 0-11.52-6.72-11.52-15.68s4.8-16 11.2-16 11.52 7.040 11.84 15.68-5.12 16-11.52 16zM310.080 294.4c0 1.92-4.16 0-6.72 0h-6.080c-3.885 0.289-7.232 2.362-9.252 5.395l-0.028 0.045c-1.668 2.899-2.652 6.375-2.652 10.080s0.984 7.181 2.705 10.18l-0.053-0.1c0.027 0.478 0.043 1.037 0.043 1.6s-0.016 1.122-0.046 1.677l0.003-0.077c5.029 8.176 8.008 18.080 8.008 28.68 0 7.3-1.413 14.271-3.981 20.652l0.132-0.372c-6.079 12.67-17.757 21.813-31.738 24.282l-0.262 0.038c-1.222 0.125-2.641 0.196-4.077 0.196-12.778 0-24.24-5.631-32.041-14.546l-0.042-0.049c-8.921-9.434-14.406-22.199-14.406-36.246 0-2.907 0.235-5.759 0.687-8.539l-0.041 0.304c0.553-1.779 2.002-3.122 3.806-3.514l0.034-0.006c2.24 0 5.76 0 8 7.36 0 0 0 0 0 1.92 1.424 5.227 3.505 9.805 6.196 13.95l-0.116-0.19c3.527 5.568 9.033 9.612 15.508 11.165l0.172 0.035c1.54 0.309 3.31 0.486 5.121 0.486 5.468 0 10.559-1.614 14.824-4.391l-0.105 0.064c6.689-4.616 11.017-12.239 11.017-20.872 0-3.314-0.638-6.479-1.797-9.379l0.060 0.17c-3.065-7.22-4.847-15.618-4.847-24.432 0-0.861 0.017-1.718 0.051-2.571l-0.004 0.123c-0.014-0.323-0.022-0.702-0.022-1.083 0-13.598 10.344-24.781 23.593-26.108l0.11-0.009c0.823-0.121 1.772-0.19 2.738-0.19 6.439 0 12.162 3.068 15.787 7.821l0.035 0.048c0.557 0.84 0.889 1.871 0.889 2.98 0 1.3-0.456 2.494-1.217 3.43l0.008-0.010zM899.84 329.28s-2.88 10.56-6.4 21.76c-2.382 7.676-4.772 13.933-7.492 20.010l0.452-1.13c8.052 11.191 12.878 25.173 12.878 40.282 0 3.513-0.261 6.966-0.764 10.339l0.047-0.381c-2.208 14.137-8.764 26.455-18.235 35.835l-0.005 0.005c-17.749 15.035-39.288 26.171-62.963 31.792l-1.037 0.208-16.32 4.8s0 39.36-1.6 55.68c-0.399 17.584-3.060 34.383-7.704 50.339l0.344-1.379c-6.089 23.854-17.916 44.4-33.946 60.827l0.026-0.027c36.563 32.898 61.223 78.397 67.111 129.607l0.089 0.953c0 77.76-96 101.44-213.76 52.48l-26.56-9.28-46.080 43.84c-134.4 116.16-554.88-350.080-420.48-463.68l29.44-24.96c-5.743-14.8-9.070-31.929-9.070-49.835 0-6.121 0.389-12.151 1.143-18.068l-0.073 0.702c4.103-34.009 20.679-63.525 44.943-84.332l0.177-0.148c23.649-21.319 54.799-34.723 89.056-35.834l0.224-0.006c55.075-118.78 173.297-199.682 310.416-199.682 0.444 0 0.888 0.001 1.332 0.003h-0.068c150.4-4.48 276.8 66.24 329.6 192 10.125 24.788 16.682 53.493 18.214 83.526l0.026 0.634c0 38.4-20.16 53.12-32.96 53.12zM284.8 233.28c-2.106-0.152-4.563-0.239-7.040-0.239s-4.934 0.087-7.368 0.257l0.328-0.018c-50.332 3.755-90.868 41.342-99.11 89.92l-0.090 0.64c-1.044 5.123-1.641 11.012-1.641 17.040 0 43.209 30.695 79.248 71.468 87.503l0.573 0.097c4.951 1.081 10.638 1.7 16.47 1.7 1.411 0 2.813-0.036 4.205-0.108l-0.195 0.008c41.662-5.199 73.901-39.309 76.151-81.383l0.009-0.217c8-52.48-4.8-105.92-53.76-114.24zM233.92 460.48c-30.594-5.56-56.487-22.446-73.689-46.068l-0.231-0.332c-11.948 8.957-22.433 18.731-31.789 29.512l-0.211 0.248c-24 49.28 32 145.28 68.16 199.36 93.76 133.76 240.64 234.88 308.48 216.64 17.986-13.386 33.644-28.333 47.312-44.978l0.368-0.462c-49.698-28.766-92.473-58.592-132.552-91.575l1.672 1.335c-84.122-68.189-148.723-157.317-186.19-259.533l-1.33-4.147zM710.72 254.4c0.251 0.357 0.402 0.801 0.402 1.28s-0.15 0.923-0.406 1.287l0.005-0.007c-0.164 1.269-1.239 2.24-2.54 2.24-0.007 0-0.014 0-0.021 0h0.001c-11.338-1.437-24.457-2.257-37.768-2.257-35.945 0-70.493 5.98-102.704 17.001l2.232-0.663c7.040 23.68 26.56 15.040 56 12.8 7.395-0.481 16.032-0.755 24.734-0.755 39.512 0 77.704 5.652 113.812 16.192l-2.866-0.717c39.187 11.298 73.319 28.842 103.127 51.736l-0.727-0.536c6.274-13.971 11.181-30.215 13.928-47.183l0.152-1.137c0.936 0.126 2.017 0.198 3.115 0.198 4.376 0 8.486-1.141 12.049-3.142l-0.124 0.064c6.4-3.84 11.2-12.16 8-32-6.563-39.869-25.14-74.565-51.832-101.112l-0.008-0.008c-17.303-18.747-37.745-34.284-60.545-45.841l-1.215-0.559c-11.475-6.232-24.924-11.982-38.932-16.486l-1.708-0.474c-106.56-34.88-215.36 3.52-250.56 85.44-2.556 5.425-4.957 11.912-6.826 18.62l-0.214 0.9c-4.002 13.771-6.305 29.589-6.305 45.945 0 43.925 16.604 83.972 43.879 114.206l-0.134-0.151c2.733 2.24 4.538 5.527 4.798 9.239l0.002 0.041c-0.337 3.566-1.731 6.754-3.862 9.307l0.022-0.027c-13.76 20.16-62.080 54.4-52.16 120.96 5.657 44.232 42.53 78.234 87.567 79.358l0.113 0.002h9.92c16.64 0 32-2.88 45.44-3.52 2.446-0.236 5.288-0.37 8.162-0.37 23.379 0 44.682 8.891 60.711 23.475l-0.073-0.065c7.070 7.118 16.090 12.29 26.192 14.648l0.368 0.072c1.491 0.297 3.206 0.467 4.96 0.467s3.469-0.17 5.128-0.495l-0.168 0.027c6.348-0.186 12.192-2.192 17.071-5.511l-0.111 0.071c19.84-13.12 22.72-45.12 23.68-68.48 0-13.44 2.24-45.76 2.88-55.040 0-21.12 6.72-24.32 18.24-27.84 6.4-2.24 12.16-3.84 20.8-6.080 19.963-4.155 37.456-12.781 52.044-24.803l-0.204 0.163c4.913-4.833 8.271-11.235 9.261-18.393l0.019-0.167c3.2-22.4-17.6-50.56-72.32-75.84-43.136-19.518-93.529-30.891-146.577-30.891-12.616 0-25.081 0.643-37.365 1.899l1.542-0.128-17.6 1.92c-40 5.44-64-46.4-38.72-81.92 23.349-24.412 56.181-39.586 92.558-39.586 2.674 0 5.33 0.082 7.964 0.244l-0.361-0.018c96 0 171.52 41.28 199.040 77.12 0.834 0.936 1.577 1.985 2.196 3.112l0.044 0.088c1.6 1.92 0 3.2 0 1.92-22.72-15.36-123.2-76.8-230.72-58.56-9.517 1.765-17.89 4.202-25.896 7.366l0.936-0.326c-15.758 4.076-27.924 16.242-31.932 31.693l-0.068 0.307c21.033-7.817 45.332-12.339 70.688-12.339 25.021 0 49.013 4.404 71.244 12.48l-1.451-0.461zM407.040 643.84c31.002 36.348 67.876 66.589 109.346 89.538l2.014 1.022s2.56 0 1.92-1.92c-4.393-7.275-8.006-15.683-10.402-24.591l-0.158-0.689s0-2.24 2.56 0c27.269 18.026 59.886 30.252 95.014 34.151l0.986 0.089c1.6 0 2.24-1.92 0-2.56-5.854-4.543-10.914-9.705-15.21-15.47l-0.15-0.21cv-2.24c29.985-1.024 57.925-8.837 82.631-21.939l-1.031 0.499s0-3.84 0-3.2c-22.212 5.237-47.715 8.24-73.92 8.24s-51.708-3.003-76.185-8.683l2.265 0.443c-44.878-11.877-84.103-31.257-118.315-56.949l0.875 0.629s-3.2 2.24-2.24 3.84z" />
<glyph unicode="&#xe028;" glyph-name="credit-card" d="M576 448h256v-64h-256zM576 320h128v-64h-128zM288 448c11.506-0.094 22.492-2.198 32.664-5.976l-0.664 0.216c9.743 3.648 21.001 5.76 32.753 5.76 53.019 0 96-42.981 96-96s-42.981-96-96-96c-11.752 0-23.010 2.112-33.417 5.976l0.664-0.216c-9.74-3.647-20.996-5.757-32.745-5.757-53.019 0-96 42.981-96 96s42.981 96 96 96c0.262 0 0.523-0.001 0.785-0.003h-0.040zM896 544h-768v-384h768zM896 736h-768v-128h768zM960 96h-896v704h896z" />
<glyph unicode="&#xe029;" glyph-name="range" d="M960 640h-547.2c-16 64-70.4 112-140.8 112s-124.8-48-140.8-112h-67.2c-16 0-32-16-32-32s16-32 32-32h67.2c16-64 70.4-112 140.8-112s124.8 48 140.8 112h547.2c16 0 32 16 32 32s-16 32-32 32zM345.6 576c-12.8-28.8-41.6-48-73.6-48s-60.8 19.2-73.6 48c-3.2 9.6-6.4 19.2-6.4 32s3.2 22.4 6.4 32c12.8 28.8 41.6 48 73.6 48s60.8-19.2 73.6-48c3.2-9.6 6.4-19.2 6.4-32s-3.2-22.4-6.4-32zM64 256h547.2c16-64 70.4-112 140.8-112s124.8 48 140.8 112h67.2c16 0 32 16 32 32s-16 32-32 32h-67.2c-16 64-70.4 112-140.8 112s-124.8-48-140.8-112h-547.2c-16 0-32-16-32-32s16-32 32-32zM672 288c0 12.8 3.2 22.4 6.4 32 12.8 28.8 41.6 48 73.6 48s60.8-19.2 73.6-48c3.2-9.6 6.4-19.2 6.4-32s-3.2-22.4-6.4-32c-12.8-28.8-41.6-48-73.6-48s-60.8 19.2-73.6 48c-3.2 9.6-6.4 19.2-6.4 32z" />
<glyph unicode="&#xe02a;" glyph-name="course" d="M243.2 896l-115.2-115.2v-668.8c0-60.8 51.2-112 112-112h336v64h-336c-25.6 0-48 22.4-48 48s22.4 48 48 48h336v64h-224v608h480v-608h64v672h-652.8zM288 224h-48c-16 0-32-3.2-48-12.8v544l76.8 76.8h19.2v-608zM512 736c-54.4 0-96-41.6-96-96s41.6-96 96-96 96 41.6 96 96-41.6 96-96 96zM512 608c-19.2 0-32 12.8-32 32s12.8 32 32 32 32-12.8 32-32-12.8-32-32-32zM512 480c-54.4 0-96-41.6-96-96s41.6-96 96-96 96 41.6 96 96-41.6 96-96 96zM512 352c-19.2 0-32 12.8-32 32s12.8 32 32 32 32-12.8 32-32-12.8-32-32-32zM640 672h128v-64h-128v64zM640 416h128v-64h-128v64z" />
<glyph unicode="&#xe02b;" glyph-name="mailerlite" d="M96 64h-12.8c-11.485 3.962-19.588 14.678-19.588 27.287 0 1.665 0.141 3.296 0.412 4.883l-0.024-0.17v704c-0.128 1.021-0.202 2.203-0.202 3.402 0 15.906 12.894 28.8 28.8 28.8 1.199 0 2.38-0.073 3.541-0.215l-0.139 0.014h832c1.021 0.128 2.203 0.202 3.402 0.202 15.906 0 28.8-12.894 28.8-28.8 0-1.199-0.073-2.38-0.215-3.541l0.014 0.139v-576c0.128-1.021 0.202-2.203 0.202-3.402 0-15.906-12.894-28.8-28.8-28.8-1.199 0-2.38 0.073-3.541 0.215l0.139-0.014h-688l-121.6-118.4c-5.297-5.912-12.956-9.615-21.479-9.615-0.324 0-0.646 0.005-0.967 0.016l0.047-0.001zM128 768v-595.2l76.8 73.6c5.867 5.567 13.677 9.138 22.312 9.596l0.088 0.004h668.8v512zM291.2 620.8h41.6v-156.8h76.8v-35.2h-118.4zM480 608c0-12.371-10.029-22.4-22.4-22.4s-22.4 10.029-22.4 22.4c0 12.371 10.029 22.4 22.4 22.4v0c12.371 0 22.4-10.029 22.4-22.4v0zM435.2 428.8v140.8h44.8v-140.8zM563.2 608v-38.4h32v-32h-32v-51.2c0-19.2 3.2-25.6 16-25.6h16v-32h-28.8c-0.964-0.058-2.090-0.090-3.225-0.090-11.919 0-22.992 3.62-32.18 9.82l0.204-0.13c-6.242 10.861-9.923 23.88-9.923 37.759 0 2.479 0.117 4.93 0.347 7.349l-0.024-0.309v54.4h-19.2v32h19.2v28.8zM652.8 483.2c0-16 19.2-25.6 38.4-25.6 2.424-0.296 5.231-0.465 8.077-0.465 11.022 0 21.452 2.533 30.741 7.048l-0.418-0.183 6.4-32-51.2-6.4c-3.007-0.501-6.473-0.787-10.005-0.787-35.346 0-64 28.654-64 64 0 2.532 0.147 5.030 0.433 7.485l-0.028-0.299c-0.046 0.975-0.073 2.118-0.073 3.266 0 39.548 31.193 71.811 70.318 73.528l0.155 0.005c0.095 0.001 0.208 0.001 0.321 0.001 35.346 0 64-28.654 64-64 0-2.254-0.117-4.481-0.344-6.675l0.023 0.275c-0.568-7.109-1.702-13.655-3.376-19.981l0.176 0.781zM704 515.2c0.128 0.961 0.201 2.072 0.201 3.201 0 14.138-11.462 25.6-25.6 25.6-0.071 0-0.141 0-0.212-0.001h0.011c-14.469-1.664-25.601-13.843-25.601-28.622 0-0.063 0-0.125 0.001-0.188v0.010z" />
<glyph unicode="&#xe02e;" glyph-name="multiple-choice" d="M853.12 591.68c-0.479-0.021-1.040-0.032-1.604-0.032-9.929 0-19.007 3.647-25.966 9.675l0.050-0.042c-5.896 5.782-9.562 13.819-9.6 22.713v0.007c0 17.673 14.327 32 32 32s32-14.327 32-32v0h32c-0.099 29.576-20.244 54.419-47.553 61.659l-0.447 0.101v18.24h-32v-18.24c-27.756-7.341-47.901-32.184-48-61.749v-0.011c0-0.015 0-0.033 0-0.051 0-17.74 7.218-33.794 18.877-45.386l0.003-0.003c12.446-11.049 28.693-18.064 46.556-18.874l0.164-0.006c8.75-0.398 16.529-4.252 22.061-10.219l0.019-0.021c5.142-5.641 8.298-13.17 8.32-21.435v-0.005c0-17.673-14.327-32-32-32s-32 14.327-32 32v0h-32c0.099-29.576 20.244-54.419 47.553-61.659l0.447-0.101v-18.24h32v18.24c27.756 7.341 47.901 32.184 48 61.749v0.011c0 0.061 0 0.133 0 0.205 0 33.544-25.807 61.061-58.649 63.779l-0.231 0.015zM816 160h-641.6v576h705.6v64h-768v-704h768v320h-64v-256zM432 657.92c0 7.776-6.304 14.080-14.080 14.080v0h-163.84c-7.776 0-14.080-6.304-14.080-14.080v0-163.84c0-7.776 6.304-14.080 14.080-14.080v0h163.84c7.776 0 14.080 6.304 14.080 14.080v0zM400 512h-128v128h128zM417.92 416h-163.84c-7.776 0-14.080-6.304-14.080-14.080v-163.84c0-7.776 6.304-14.080 14.080-14.080v0h163.84c7.776 0 14.080 6.304 14.080 14.080v0 163.84c0 7.776-6.304 14.080-14.080 14.080v0zM400 256h-128v128h128zM688 608h-160c-17.673 0-32-14.327-32-32s14.327-32 32-32v0h160c17.673 0 32 14.327 32 32s-14.327 32-32 32v0zM688 352h-160c-17.673 0-32-14.327-32-32s14.327-32 32-32v0h160c17.673 0 32 14.327 32 32s-14.327 32-32 32v0zM395.2 610.88l-19.2 16-53.76-64.64-27.84 27.84-17.6-17.6 47.040-47.36 71.36 85.76z" />
<glyph unicode="&#xe02f;" glyph-name="total" d="M496 451.84c0 0 0.001 0 0.001 0 21.979 0 39.818-17.727 39.999-39.663v-0.017h40c-0.182 36.978-25.423 68.010-59.603 76.996l-0.557 0.124v22.72h-39.68v-22.72c-34.902-8.979-60.278-40.167-60.278-77.282 0-22.231 9.104-42.335 23.787-56.788l0.010-0.010c15.371-14.055 35.703-22.914 58.088-23.676l0.152-0.004c10.99-0.609 20.756-5.396 27.825-12.785l0.015-0.015c6.337-7.117 10.216-16.543 10.24-26.875v-0.005c0-22.091-17.909-40-40-40s-40 17.909-40 40v0h-40c0.182-36.978 25.423-68.010 59.603-76.996l0.557-0.124v-22.72h39.68v22.72c34.737 9.11 59.978 40.142 60.16 77.099v0.021c-0.016 20.678-7.782 39.539-20.549 53.839l0.069-0.079c-13.463 14.486-32.023 24.074-52.81 25.898l-0.31 0.022c-0.312-0.007-0.68-0.011-1.048-0.011-12.845 0-24.586 4.73-33.574 12.544l0.063-0.053c-7.301 7.285-11.823 17.353-11.84 28.477v0.003c0.36 21.814 18.129 39.36 39.995 39.36 0.002 0 0.004 0 0.005 0v0zM809.92 640h-96l132.8 166.080c2.229 2.728 3.579 6.249 3.579 10.086 0 8.837-7.163 16-16 16-0.811 0-1.608-0.060-2.387-0.177l0.088 0.011h-640c-8.805-0.042-15.927-7.189-15.927-16 0-3.762 1.298-7.221 3.472-9.953l-0.025 0.033 131.52-166.080h-96c-0.19 0.001-0.415 0.002-0.64 0.002-65.279 0-118.219-52.828-118.4-118.064v-339.857c0.181-65.141 52.939-117.898 118.062-118.080h595.858c65.141 0.181 117.898 52.939 118.080 118.062v339.858c-0.181 65.141-52.939 117.898-118.062 118.080h-0.018zM733.44 768l-76.8-96h-288l-78.080 96zM864 182.080c0-29.868-24.212-54.080-54.080-54.080v0h-595.84c-29.868 0-54.080 24.212-54.080 54.080v339.84c0 29.868 24.212 54.080 54.080 54.080v0h595.84c29.868 0 54.080-24.212 54.080-54.080v0z" />
<glyph unicode="&#xe031;" glyph-name="ur-icon-user-registration" d="M882.56 832c-62.574-38.064-116.784-80.364-165.599-128.155l0.159 0.155c-49.023-47.75-92.248-101.048-128.779-158.99l-2.101-3.57c22.094-41.165 43.703-90.298 61.65-141.159l2.35-7.641c32.828 68.226 72.141 126.98 118.473 179.382l-0.713-0.822v-187.2c0-0.031 0-0.068 0-0.105 0-117.361-78.974-216.277-186.678-246.503l-1.802-0.432-6.72-1.6c-7.178 95.751-28.858 184.509-62.901 266.857l2.101-5.737c-48.671 120.158-118.19 222.54-204.952 307.357l-0.168 0.163c-48.656 47.636-102.866 89.936-161.474 125.747l-3.966 2.253-13.44 7.36v-455.36c0.002-188.669 136.068-345.557 315.424-377.891l2.336-0.349h4.48c18.567-3.208 39.949-5.042 61.76-5.042s43.194 1.834 64.002 5.355l-2.242-0.314h4.48c181.692 32.682 317.758 189.571 317.76 378.239v455.361zM256 384v187.2c103.411-116.562 171.999-266.135 188.229-431.080l0.251-3.16c-109.506 30.659-188.48 129.574-188.48 246.935 0 0.037 0 0.074 0 0.11v-0.006zM512 896c-53.019 0-96-42.981-96-96s42.981-96 96-96c53.019 0 96 42.981 96 96v0c0 53.019-42.981 96-96 96v0z" />
<glyph unicode="&#xe032;" glyph-name="quantity" d="M375.040 388.16v165.44h96l-198.72 342.4-198.080-342.4h96v-165.44c-62.957-36.392-104.64-103.393-104.64-180.13 0-114.522 92.838-207.36 207.36-207.36s207.36 92.838 207.36 207.36c0 76.737-41.683 143.738-103.642 179.597l-0.998 0.533zM168.64 608l103.68 179.84 103.68-179.84h-56v-198.4c-14.416 3.613-30.966 5.686-48 5.686s-33.584-2.073-49.411-5.981l1.411 0.295v198.4zM272.32 46.72c-88.366 0-160 71.634-160 160s71.634 160 160 160c88.366 0 160-71.634 160-160v0c0-88.366-71.634-160-160-160v0zM296.96 318.4h-49.28v-85.76h-85.76v-49.28h85.76v-86.080h49.28v86.080h86.080v49.28h-86.080v85.76zM854.4 507.52c63.232 36.404 105.12 103.605 105.12 180.589 0 114.698-92.982 207.68-207.68 207.68s-207.68-92.982-207.68-207.68c0-76.984 41.888-144.185 104.115-180.055l1.005-0.534v-164.48h-96l198.72-343.040 198.080 343.040h-96zM590.72 687.68c0.419 88.047 71.892 159.261 159.998 159.261 88.366 0 160-71.634 160-160 0-70.752-45.923-130.778-109.588-151.896l-1.13-0.325c-14.339-4.668-30.84-7.36-47.969-7.36-0.011 0-0.022 0-0.033 0h0.002c-0.616-0.009-1.344-0.013-2.072-0.013-16.378 0-32.182 2.461-47.061 7.033l1.133-0.3c-66.123 20.648-113.281 81.331-113.281 153.027 0 0.201 0 0.403 0.001 0.604v-0.031zM855.68 288l-103.68-179.2-104 179.2h56v198.080c14.386-3.787 30.916-6 47.951-6.080h0.049c0.205-0.001 0.448-0.001 0.691-0.001 16.797 0 33.104 2.101 48.672 6.055l-1.363-0.293v-197.76zM641.28 712.32h221.12v-49.28h-221.12z" />
<glyph unicode="&#xe035;" glyph-name="ur-hidden-field" d="M896 21.358c-12.8 0-21.321 4.242-29.842 12.8l-149.321 149.321c-57.984-37.378-128.784-59.626-204.775-59.721h-0.025c-264.558 0-413.879 290.121-422.4 298.642-4.279 12.8-4.279 25.6 0 38.4 38.4 76.8 89.6 145.079 153.6 196.279l-145.079 145.079c-7.887 7.527-12.79 18.121-12.79 29.861s4.903 22.333 12.774 29.845l0.016 0.015c7.527 7.887 18.121 12.79 29.861 12.79s22.333-4.903 29.845-12.774l0.015-0.016 768-768c7.887-7.527 12.79-18.121 12.79-29.861s-4.903-22.333-12.774-29.845l-0.016-0.015c-8.521-8.558-17.042-12.8-29.842-12.8zM174.994 443.758c34.121-59.758 157.879-234.679 337.079-234.679 51.2 0 98.121 12.8 140.8 38.4l-72.594 72.521c-21.321-12.8-42.642-17.042-68.242-17.042-38.4 0-76.8 12.8-106.679 38.4-51.2 46.921-59.721 123.721-25.6 179.2l-76.8 76.8c-51.047-42.865-93.715-93.692-126.56-150.879l-1.44-2.721zM443.794 452.279c0-17.079 4.279-38.4 17.079-51.2s34.121-17.079 51.2-17.079l-68.279 68.279zM819.237 294.4c-8.558 0-21.358 4.279-29.879 8.558-17.079 17.042-21.321 42.642-4.279 59.721 21.358 25.6 42.679 51.2 59.758 81.079-34.158 64-153.6 238.921-332.8 238.921-17.079 0-34.158-4.279-55.479-4.279h-8.521c-25.6-8.521-46.958 8.558-51.2 29.879-4.279 21.321 12.8 46.921 34.121 51.2h8.521c21.358 4.279 42.679 8.521 68.279 8.521 264.521 0 413.879-290.121 422.4-298.642 8.521-12.8 4.279-25.6 0-38.4-25.6-42.679-51.2-85.358-81.079-119.479-4.242-12.8-17.042-17.079-29.842-17.079z" />
<glyph unicode="&#xe036;" glyph-name="captcha-field" d="M523.221 904.619c-3.333 1.287-7.19 2.032-11.221 2.032s-7.888-0.745-11.441-2.106l0.219 0.074-341.333-128c-12.237-4.676-20.772-16.316-20.779-29.951v-298.668c0-142.293 94.336-257.067 181.589-333.397 50.658-44.185 107.367-83.858 168.079-117.138l4.977-2.499 3.115-1.621 0.853-0.427 0.299-0.128 0.043-0.043h0.086c4.165-2.125 9.084-3.37 14.293-3.37s10.129 1.245 14.475 3.453l-0.182-0.084-14.293 28.587 14.336-28.587h0.085l0.256 0.171 0.853 0.427 3.157 1.621 11.477 6.187c61.233 34.453 114.135 72.003 162.717 114.38l-1.138-0.972c87.253 76.373 181.589 191.147 181.589 333.44v298.667c-0.007 13.636-8.542 25.276-20.559 29.878l-0.219 0.074-341.333 128zM548.395 79.147c-15.019-9.387-27.52-16.64-36.395-21.504-56.68 32.001-105.651 66.804-150.656 106.041l1.067-0.911c-83.413 72.917-159.744 171.477-159.744 285.227v276.48l309.333 116.053 309.333-116.011v-276.523c0-113.707-76.331-212.267-159.744-285.269-33.56-29.272-70.536-56.831-109.551-81.455l-3.686-2.172zM662.613 510.72c6.274 5.858 10.185 14.178 10.185 23.412 0 17.673-14.327 32-32 32-9.234 0-17.554-3.911-23.394-10.166l-0.017-0.019-148.053-148.053-62.72 62.72c-5.699 5.321-13.376 8.588-21.815 8.588-17.673 0-32-14.327-32-32 0-8.44 3.267-16.116 8.606-21.834l-0.017 0.019 85.333-85.333c5.789-5.782 13.784-9.359 22.613-9.359s16.824 3.576 22.614 9.359v0l170.667 170.667z" />
<glyph unicode="&#xe037;" glyph-name="subscription-field" d="M175.829 637.611c0 107.111 86.83 193.941 193.941 193.941s193.941-86.83 193.941-193.941v0c0-107.099-86.821-193.92-193.92-193.92s-193.92 86.821-193.92 193.92v0zM369.792 874.667c-0.946 0.014-2.062 0.021-3.18 0.021-130.922 0-237.056-106.134-237.056-237.056s106.134-237.056 237.056-237.056c1.118 0 2.235 0.008 3.349 0.023l-0.169-0.002c129.547 1.793 233.876 107.23 233.876 237.035s-104.328 235.241-233.707 237.033l-0.169 0.002zM326.699 745.387c-35.7 0-64.64-28.94-64.64-64.64s28.94-64.64 64.64-64.64h21.547v-43.093h-64.683c-11.9 0-21.547-9.647-21.547-21.547s9.647-21.547 21.547-21.547h64.683v-21.589c0-11.9 9.647-21.547 21.547-21.547s21.547 9.647 21.547 21.547v21.547h21.547c35.7 0 64.64 28.94 64.64 64.64s-28.94 64.64-64.64 64.64h-21.547v43.136h64.64c11.9 0 21.547 9.647 21.547 21.547s-9.647 21.547-21.547 21.547h-64.64v21.589c0 11.9-9.647 21.547-21.547 21.547s-21.547-9.647-21.547-21.547v0-21.547h-21.547zM326.699 702.293h21.547v-43.093h-21.547c-11.9 0-21.547 9.647-21.547 21.547s9.647 21.547 21.547 21.547v0zM391.339 573.013v43.093h21.547c11.9 0 21.547-9.647 21.547-21.547s-9.647-21.547-21.547-21.547h-21.547zM403.285 82.603l521.515 521.557c8.574 8.579 13.876 20.428 13.876 33.515 0 26.185-21.227 47.412-47.412 47.412-13.098 0-24.955-5.311-33.536-13.897l-487.936-487.979-203.52 203.52c-8.583 8.583-20.439 13.891-33.536 13.891-26.193 0-47.427-21.234-47.427-47.427 0-13.097 5.308-24.953 13.891-33.536l237.056-237.056c8.578-8.576 20.427-13.88 33.515-13.88s24.937 5.304 33.515 13.88v0z" />
<glyph unicode="&#xe038;" glyph-name="membership-field" d="M129.536 237.355c49.608 49.604 118.138 80.285 193.835 80.285 151.395 0 274.125-122.726 274.133-274.119v-0.001c0-17.673-14.327-32-32-32s-32 14.327-32 32v0c0 116.053-94.080 210.133-210.133 210.133s-210.133-94.080-210.133-210.133v0c0-17.673-14.327-32-32-32s-32 14.327-32 32v0c0 72.704 28.885 142.421 80.299 193.835zM323.371 556.288c-0.671 0.014-1.463 0.021-2.256 0.021-65.909 0-119.339-53.43-119.339-119.339s53.43-119.339 119.339-119.339c0.793 0 1.585 0.008 2.375 0.023l-0.118-0.002c64.931 1.267 117.082 54.202 117.082 119.317s-52.151 118.051-116.964 119.316l-0.118 0.002zM140.032 436.992c0 101.255 82.084 183.339 183.339 183.339s183.339-82.084 183.339-183.339v0c0-101.255-82.084-183.339-183.339-183.339s-183.339 82.084-183.339 183.339v0zM524.373 583.424c5.677 9.453 15.874 15.68 27.525 15.68 6.010 0 11.634-1.657 16.438-4.539l-0.145 0.081c54.152-32.514 89.829-90.928 89.829-157.675 0-46.039-16.973-88.113-45.004-120.306l0.188 0.221c56.448-55.595 105.387-145.749 105.387-243.115 0-17.673-14.327-32-32-32s-32 14.327-32 32v0c0 90.496-54.613 176.256-108.288 216.533-7.807 5.9-12.8 15.167-12.8 25.6s4.993 19.7 12.72 25.542l0.080 0.058c29.103 22.004 47.714 56.556 47.714 95.455 0 43.449-23.22 81.475-57.927 102.346l-0.539 0.301c-9.435 5.681-15.648 15.868-15.648 27.507 0 6.018 1.661 11.648 4.55 16.457l-0.081-0.145zM562.347 678.272c0 17.673 14.327 32 32 32v0h348.416c17.673 0 32-14.327 32-32s-14.327-32-32-32v0h-348.459c-17.673 0-32 14.327-32 32v0zM768.555 884.48c17.673 0 32-14.327 32-32v0-348.459c0-17.673-14.327-32-32-32s-32 14.327-32 32v0 348.459c0 17.673 14.327 32 32 32v0z" />
<glyph unicode="&#xe039;" glyph-name="coupon-field" d="M87.68 744.32c21.231 21.222 50.557 34.347 82.948 34.347 0.014 0 0.027 0 0.041 0h682.665c64.801 0 117.333-52.532 117.333-117.333v0-85.333c0-17.673-14.327-32-32-32v0c-53.019 0-96-42.981-96-96s42.981-96 96-96v0c17.673 0 32-14.327 32-32v0-85.333c0-64.801-52.532-117.333-117.333-117.333v0h-682.667c-64.801 0-117.333 52.532-117.333 117.333v0 85.333c0 17.673 14.327 32 32 32v0c53.019 0 96 42.981 96 96s-42.981 96-96 96v0c-17.673 0-32 14.327-32 32v0 85.333c0 31.147 12.373 60.971 34.347 82.987zM170.667 714.667c-29.455 0-53.333-23.878-53.333-53.333v0-56.576c73.53-15.427 127.951-79.737 127.951-156.757s-54.421-141.33-126.909-156.574l-1.042-0.183v-56.576c0-29.455 23.878-53.333 53.333-53.333v0h682.667c29.455 0 53.333 23.878 53.333 53.333v0 56.576c-73.53 15.427-127.951 79.737-127.951 156.757s54.421 141.33 126.909 156.574l1.042 0.183v56.576c0 29.455-23.878 53.333-53.333 53.333v0h-682.667zM554.667 778.667c17.673 0 32-14.327 32-32v0-85.333c0-17.673-14.327-32-32-32s-32 14.327-32 32v0 85.333c0 17.673 14.327 32 32 32v0zM554.667 266.667c17.673 0 32-14.327 32-32v0-85.333c0-17.673-14.327-32-32-32s-32 14.327-32 32v0 85.333c0 17.673 14.327 32 32 32v0zM554.667 586.667c17.673 0 32-14.327 32-32v0-64c0-17.673-14.327-32-32-32s-32 14.327-32 32v0 64c0 17.673 14.327 32 32 32v0zM554.667 416c17.673 0 32-14.327 32-32v0-64c0-17.673-14.327-32-32-32s-32 14.327-32 32v0 64c0 17.673 14.327 32 32 32v0z" />
<glyph unicode="&#xe040;" glyph-name="e-signature" d="M137.003 736.811c18.406 19.809 44.568 32.194 73.624 32.299h337.768c17.673 0 32-14.327 32-32s-14.327-32-32-32v0h-337.749c-10.681-0.107-20.261-4.729-26.939-12.046l-0.026-0.029c-7.541-8.238-12.162-19.258-12.162-31.357 0-0.136 0.001-0.272 0.002-0.407v0.021-530.987c0-12.245 4.608-23.637 12.16-31.744 6.698-7.361 16.279-11.999 26.944-12.117h497.77c10.687 0.119 20.267 4.756 26.939 12.087l0.027 0.030c7.541 8.238 12.162 19.258 12.162 31.357 0 0.136-0.001 0.272-0.002 0.407v-0.021 327.552c0 17.673 14.327 32 32 32s32-14.327 32-32v0-327.552c0-0.111 0.001-0.242 0.001-0.374 0-29.054-11.212-55.489-29.546-75.215l0.063 0.069c-18.402-19.821-44.563-32.219-73.62-32.341h-497.771c-29.081 0.116-55.243 12.517-73.584 32.277l-0.059 0.064c-18.271 19.657-29.483 46.092-29.483 75.146 0 0.131 0 0.263 0.001 0.394v-0.020 531.029c0 27.947 10.411 55.125 29.483 75.52zM808.32 818.859l-249.173-265.259c-4.053-4.301-7.098-9.598-8.728-15.483l-0.062-0.261-19.072-71.125 67.669 21.76c5.807 1.922 10.744 5.139 14.659 9.324l0.018 0.020zM613.632 497.835l249.173 265.216c6.852 7.304 11.060 17.158 11.060 27.995 0 11.269-4.551 21.476-11.915 28.881l0.002-0.002c-6.742 6.752-16.062 10.928-26.357 10.928-0.229 0-0.457-0.002-0.685-0.006h0.034c-10.527-0.268-19.94-4.819-26.603-11.967l-0.021-0.022zM524.715 420.565l-5.333-5.163-0.768-0.768c-3.029-2.987-6.613-6.443-9.557-9.045-1.634-1.467-3.415-2.869-5.284-4.152l-0.177-0.115c-1.72-1.172-3.693-2.181-5.791-2.93l-0.183-0.057c-2.135-0.774-4.599-1.222-7.167-1.222-11.947 0-21.632 9.685-21.632 21.632 0 1.169 0.093 2.317 0.271 3.436l-0.016-0.123c0.315 2.117 0.821 4.014 1.514 5.819l-0.063-0.187c0.853 2.261 1.92 4.523 2.816 6.229 2.895 5.518 5.106 9.411 7.401 13.247l-0.745-1.343 1.067 1.835 4.523 7.851c-0.003 0.163-0.004 0.356-0.004 0.549 0 3.293 0.437 6.485 1.257 9.519l-0.059-0.255 22.357 83.413c3.413 12.715 9.941 24.448 18.944 34.048l249.173 265.216c14.604 15.759 35.413 25.59 58.517 25.59 21.98 0 41.882-8.897 56.3-23.287l-0.001 0.001c15.053-15.152 24.356-36.031 24.356-59.083 0-22.166-8.602-42.323-22.65-57.315l0.043 0.046-249.173-265.259c-8.79-9.353-19.811-16.508-32.219-20.621l-0.549-0.158-80.341-25.856c-1.964-0.666-4.275-1.191-6.659-1.477l-0.168-0.016zM333.824 433.749c-1.552 1.145-3.502 1.832-5.613 1.832-1.98 0-3.819-0.605-5.342-1.64l0.033 0.021-5.333-3.584c-1.683-1.136-3.12-2.478-4.321-4.012l-0.031-0.041-6.699-8.619c-0.348-0.433-0.699-0.92-1.025-1.425l-0.042-0.069-0.213-0.341c-3.584-9.472-1.621-23.979 7.424-41.173l22.997 52.309c0.298 0.659 0.472 1.429 0.472 2.239 0 1.847-0.903 3.483-2.291 4.491l-0.016 0.011zM342.571 336.725l32.128 73.131c2.582 5.718 4.087 12.396 4.087 19.426 0 15.939-7.734 30.071-19.655 38.849l-0.133 0.094c-8.511 6.278-19.207 10.047-30.783 10.047-10.844 0-20.916-3.308-29.261-8.97l0.183 0.117-5.376-3.627c-5.419-3.627-10.24-8.107-14.208-13.227l-6.741-8.661c-2.304-2.987-5.291-7.253-7.381-12.715-11.179-29.141-0.128-60.843 13.952-84.352 3.84-6.4 8.192-12.672 12.843-18.603l-54.699-124.544c-1.329-2.703-2.107-5.883-2.107-9.244 0-11.782 9.551-21.333 21.333-21.333 8.934 0 16.585 5.492 19.762 13.283l0.051 0.143 48.213 109.739c3.627-2.603 7.253-4.949 10.837-6.997 13.056-7.424 27.008-6.4 38.101-0.683 10.411 5.333 18.091 14.421 22.784 23.893l22.955 46.080c7.661-9.743 19.448-15.943 32.683-15.943 16.3 0 30.404 9.404 37.182 23.082l0.108 0.242 18.944 38.997 9.472 18.133 5.845 12.288-38.571 18.261-5.461-11.52-9.259-17.707-18.475-38.016c-7.661 9.722-19.436 15.907-32.655 15.907-16.152 0-30.148-9.234-36.996-22.711l-0.109-0.236-23.893-47.872c-0.813-1.634-1.84-3.029-3.068-4.22l-0.004-0.004c-4.755 2.974-8.882 6.096-12.71 9.544l0.081-0.072zM304.555 155.947c-1.994 3.247-3.174 7.18-3.174 11.389 0 7.655 3.907 14.397 9.835 18.342l0.081 0.051 198.4 128.555c3.189 2.109 7.103 3.365 11.31 3.365 7.468 0 14.013-3.956 17.651-9.888l0.051-0.090c1.994-3.247 3.174-7.18 3.174-11.389 0-7.655-3.907-14.397-9.835-18.342l-0.081-0.051-198.4-128.555c-3.189-2.109-7.103-3.365-11.31-3.365-7.468 0-14.013 3.956-17.651 9.888l-0.051 0.090z" />
<glyph unicode="&#xe041;" glyph-name="authorize-net" d="M85.333 832h853.333v-773.21h-853.333v773.21zM137.415 779.919v-669.045h749.169v669.045h-749.169zM205.521 711.812h252.395v-212.331h-252.395v212.331zM257.603 659.731v-108.169h148.232v108.169h-148.232zM471.936 365.269h-280.437v52.083h280.437v-52.083zM351.75 245.082h-160.25v52.083h160.25v-52.083zM471.936 245.082h-80.124v52.083h80.124v-52.083zM632.188 345.237c-33.19 0-60.092-26.901-60.092-60.092s26.901-60.096 60.092-60.096c33.19 0 60.096 26.906 60.096 60.096s-26.906 60.092-60.096 60.092zM532.032 285.146c0 55.313 44.843 100.156 100.156 100.156s100.156-44.843 100.156-100.156c0-55.313-44.843-100.156-100.156-100.156s-100.156 44.843-100.156 100.156zM712.311 345.237c-33.186 0-60.092-26.901-60.092-60.092s26.906-60.096 60.092-60.096c33.19 0 60.096 26.906 60.096 60.096s-26.906 60.092-60.096 60.092zM612.156 285.146c0 55.313 44.843 100.156 100.156 100.156 55.317 0 100.16-44.843 100.16-100.156s-44.843-100.156-100.16-100.156c-55.313 0-100.156 44.843-100.156 100.156z" />
<glyph unicode="&#xe042;" glyph-name="content-restriction" d="M320.384 872.32c19.147 18.607 45.313 30.080 74.158 30.080 0.059 0 0.117 0 0.176 0h310.818c7.541-0.002 14.378-3.013 19.376-7.898l-0.005 0.005 233.131-227.371c5.176-5.034 8.391-12.060 8.405-19.837v-454.787c0-27.691-11.307-54.101-31.147-73.429-19.147-18.607-45.313-30.080-74.158-30.080-0.059 0-0.117 0-0.176 0h-284.748v-17.493c0-43.648-36.139-77.909-79.232-77.909h-360.149c-43.093 0-79.189 34.219-79.189 77.909v175.659c0 43.691 36.096 77.952 79.189 77.952h23.765v72.704c0 40.875 16.64 79.915 46.080 108.587 21.95 21.376 50.17 36.414 81.644 42.096l0.958 0.144v250.197c0 27.648 11.307 54.059 31.147 73.429zM216.021 325.12h201.813v72.704c0 25.728-10.453 50.475-29.312 68.864-18.437 17.87-43.609 28.886-71.353 28.886-0.085 0-0.17 0-0.255 0h0.013c-26.965 0-52.736-10.453-71.595-28.885-18.024-17.448-29.235-41.839-29.312-68.85v-72.718zM473.301 325.12h23.723c43.093 0 79.189-34.261 79.189-77.952v-102.699h284.757c13.483 0 26.283 5.205 35.584 14.293s14.379 21.248 14.379 33.749v427.051h-205.44c-15.317 0-27.733 12.417-27.733 27.733v0 199.637h-283.093c-13.483 0-26.283-5.248-35.584-14.336-8.843-8.535-14.354-20.471-14.421-33.694v-250.296c32.412-5.822 60.617-20.844 82.596-42.232l-0.036 0.034c28.369-27.531 45.999-65.992 46.080-108.572v-72.719zM733.227 674.987h137.301l-137.301 133.973v-133.973zM517.163 485.547h265.941c15.317 0 27.733-12.417 27.733-27.733s-12.417-27.733-27.733-27.733h-265.941c-15.317 0-27.733 12.417-27.733 27.733s12.417 27.733 27.733 27.733zM579.285 306.261v0c0-15.317 12.417-27.733 27.733-27.733h221.013c15.317 0 27.733 12.417 27.733 27.733s-12.417 27.733-27.733 27.733h-221.013c-15.317 0-27.733-12.417-27.733-27.733zM472.277 637.099h77.653c15.317 0 27.733-12.417 27.733-27.733s-12.417-27.733-27.733-27.733h-77.653c-15.317 0-27.733 12.417-27.733 27.733s12.417 27.733 27.733 27.733zM113.067 247.168v-175.659l0.001-0.034c0.375-12.444 10.58-22.416 23.115-22.416 0.214 0 0.426 0.003 0.607 0.008l360.204 0.001c0.212-0.006 0.425-0.009 0.638-0.009 12.535 0 22.74 9.972 23.115 22.451v175.659c0 11.776-9.984 22.485-23.765 22.485h-360.192c-13.739 0-23.723-10.709-23.723-22.485z" />
<glyph unicode="&#xe043;" glyph-name="popup" d="M213.333 804.267c-31.812 0-57.6-25.788-57.6-57.6v0-597.333c0-31.829 25.771-57.6 57.6-57.6h597.333c31.812 0 57.6 25.788 57.6 57.6v0 597.333c0 31.812-25.788 57.6-57.6 57.6v0h-597.333zM100.267 746.667c0 62.445 50.622 113.067 113.067 113.067v0h597.333c62.445 0 113.067-50.622 113.067-113.067v0-597.333c0-62.445-50.622-113.067-113.067-113.067v0h-597.333c-62.445 0-113.067 50.622-113.067 113.067v0 597.333zM270.933 362.667c0 15.317 12.417 27.733 27.733 27.733v0h426.667c15.317 0 27.733-12.417 27.733-27.733s-12.417-27.733-27.733-27.733v0h-426.667c-15.317 0-27.733 12.417-27.733 27.733v0zM270.933 234.667c0 15.317 12.417 27.733 27.733 27.733v0h426.667c15.317 0 27.733-12.417 27.733-27.733s-12.417-27.733-27.733-27.733v0h-426.667c-15.317 0-27.733 12.417-27.733 27.733v0zM787.627 723.627c5.028-5.020 8.139-11.96 8.139-19.627s-3.111-14.606-8.139-19.626v0l-128-128c-5.023-5.023-11.962-8.13-19.627-8.13-15.329 0-27.756 12.427-27.756 27.756 0 7.665 3.107 14.604 8.13 19.627v0l128 128c5.020 5.028 11.96 8.139 19.627 8.139s14.606-3.111 19.626-8.139v0zM620.373 723.627c5.020 5.028 11.96 8.139 19.627 8.139s14.606-3.111 19.626-8.139v0l128-128c5.023-5.023 8.13-11.962 8.13-19.627 0-15.329-12.427-27.756-27.756-27.756-7.665 0-14.604 3.107-19.627 8.13v0l-128 128c-5.028 5.020-8.139 11.96-8.139 19.627s3.111 14.606 8.139 19.626v0z" />
<glyph unicode="&#xe044;" glyph-name="view-profile" d="M371.712 432.427c35.903 35.902 85.502 58.108 140.288 58.108s104.385-22.206 140.288-58.108v0c35.84-35.84 58.112-76.459 58.112-130.816 0-15.317-12.417-27.733-27.733-27.733s-27.733 12.417-27.733 27.733v0c0 36.224-13.696 63.445-41.856 91.605-25.867 25.871-61.603 41.872-101.077 41.872s-75.211-16.002-101.077-41.872v0c-28.16-28.16-41.856-55.381-41.856-91.563 0-15.317-12.417-27.733-27.733-27.733s-27.733 12.417-27.733 27.733v0c0 54.315 22.272 94.933 58.112 130.773zM512 662.613c-0.57 0.014-1.242 0.021-1.916 0.021-47.529 0-86.059-38.53-86.059-86.059s38.53-86.059 86.059-86.059c0.674 0 1.346 0.008 2.016 0.023l-0.1-0.002c47.529 0 86.059 38.53 86.059 86.059s-38.53 86.059-86.059 86.059v0zM370.475 576.64c0 78.162 63.363 141.525 141.525 141.525s141.525-63.363 141.525-141.525v0c0-78.162-63.363-141.525-141.525-141.525s-141.525 63.363-141.525 141.525v0zM213.333 804.267c-31.812 0-57.6-25.788-57.6-57.6v0-597.333c0-31.829 25.771-57.6 57.6-57.6h597.333c31.812 0 57.6 25.788 57.6 57.6v0 597.333c0 31.812-25.788 57.6-57.6 57.6v0h-597.333zM100.267 746.667c0 62.445 50.622 113.067 113.067 113.067v0h597.333c62.445 0 113.067-50.622 113.067-113.067v0-597.333c0-62.445-50.622-113.067-113.067-113.067v0h-597.333c-62.445 0-113.067 50.622-113.067 113.067v0 597.333zM313.6 192c0 15.317 12.417 27.733 27.733 27.733v0h341.333c15.317 0 27.733-12.417 27.733-27.733s-12.417-27.733-27.733-27.733v0h-341.333c-15.317 0-27.733 12.417-27.733 27.733v0z" />
<glyph unicode="&#xe045;" glyph-name="edit-password" d="M170.667 676.267c-31.812 0-57.6-25.788-57.6-57.6v0-341.333c0-31.829 25.771-57.6 57.6-57.6 15.317 0 27.733-12.417 27.733-27.733s-12.417-27.733-27.733-27.733v0c-62.445 0-113.067 50.622-113.067 113.067v341.333c0 62.445 50.622 113.067 113.067 113.067v0c15.317 0 27.733-12.417 27.733-27.733s-12.417-27.733-27.733-27.733v0zM484.267 704c0 15.317 12.417 27.733 27.733 27.733v0h341.333c62.445 0 113.067-50.622 113.067-113.067v0-341.333c0-62.445-50.622-113.067-113.067-113.067v0h-341.333c-15.317 0-27.733 12.417-27.733 27.733s12.417 27.733 27.733 27.733v0h341.333c31.812 0 57.6 25.788 57.6 57.6v0 341.333c0 31.812-25.788 57.6-57.6 57.6v0h-341.333c-15.317 0-27.733 12.417-27.733 27.733v0zM469.333 448c0 23.564 19.103 42.667 42.667 42.667v0h0.427c23.564 0 42.667-19.103 42.667-42.667s-19.103-42.667-42.667-42.667v0h-0.427c-23.564 0-42.667 19.103-42.667 42.667v0zM682.667 448c0 23.564 19.103 42.667 42.667 42.667v0h0.427c23.564 0 42.667-19.103 42.667-42.667s-19.103-42.667-42.667-42.667v0h-0.427c-23.564 0-42.667 19.103-42.667 42.667v0zM256 448c0 23.564 19.103 42.667 42.667 42.667v0h0.427c23.564 0 42.667-19.103 42.667-42.667s-19.103-42.667-42.667-42.667v0h-0.427c-23.564 0-42.667 19.103-42.667 42.667v0zM341.333 795.733c15.317 0 27.733-12.417 27.733-27.733v0-640c0-15.317-12.417-27.733-27.733-27.733s-27.733 12.417-27.733 27.733v0 640c0 15.317 12.417 27.733 27.733 27.733v0zM229.12 796.075c3.115 12.161 13.977 21.007 26.905 21.007 2.385 0 4.7-0.301 6.908-0.867l-0.192 0.042 78.592-19.669 78.592 19.627c1.713 0.376 3.68 0.592 5.698 0.592 15.317 0 27.733-12.417 27.733-27.733 0-12.542-8.326-23.14-19.752-26.568l-0.196-0.051-85.333-21.333c-2.024-0.528-4.347-0.832-6.741-0.832s-4.718 0.303-6.934 0.874l0.192-0.042-85.333 21.333c-12.161 3.115-21.007 13.977-21.007 26.905 0 2.385 0.301 4.7 0.867 6.908l-0.042-0.192zM334.592 154.88c2.024 0.528 4.347 0.832 6.741 0.832s4.718-0.303 6.934-0.874l-0.192 0.042 85.333-21.333c12.675-2.73 22.036-13.843 22.036-27.142 0-15.317-12.417-27.733-27.733-27.733-2.774 0-5.454 0.407-7.981 1.166l0.196-0.051-78.592 19.627-78.592-19.627c-1.713-0.376-3.68-0.592-5.698-0.592-15.317 0-27.733 12.417-27.733 27.733 0 12.542 8.326 23.14 19.752 26.568l0.196 0.051 85.333 21.333z" />
<glyph unicode="&#xe046;" glyph-name="edit-profile" d="M522.069 362.667c-28.506 9.427-61.319 14.864-95.403 14.864-173.172 0-313.56-140.364-313.6-313.527v-0.004c0-15.317-12.417-27.733-27.733-27.733s-27.733 12.417-27.733 27.733v0c0 0.002 0 0.004 0 0.007 0 203.83 165.237 369.067 369.067 369.067 40.12 0 78.744-6.402 114.908-18.239l-2.61 0.739c11.301-3.69 19.322-14.135 19.322-26.453 0-15.337-12.433-27.77-27.77-27.77-3.018 0-5.924 0.481-8.644 1.372l0.196-0.056zM426.667 804.267c-102.504 0-185.6-83.096-185.6-185.6s83.096-185.6 185.6-185.6v0c102.504 0 185.6 83.096 185.6 185.6s-83.096 185.6-185.6 185.6v0zM185.6 618.667c0 133.137 107.929 241.067 241.067 241.067s241.067-107.929 241.067-241.067v0c0-133.137-107.929-241.067-241.067-241.067s-241.067 107.929-241.067 241.067v0zM768 292.267c-55.376 0-100.267-44.891-100.267-100.267s44.891-100.267 100.267-100.267v0c55.376 0 100.267 44.891 100.267 100.267s-44.891 100.267-100.267 100.267v0zM612.267 192c0 86.009 69.724 155.733 155.733 155.733s155.733-69.724 155.733-155.733v0c0-86.009-69.724-155.733-155.733-155.733s-155.733 69.724-155.733 155.733v0zM843.264 375.211c9.785-4.427 16.471-14.104 16.471-25.343 0-4.078-0.88-7.951-2.461-11.439l0.071 0.174-17.067-38.4c-4.427-9.785-14.105-16.47-25.344-16.47-15.317 0-27.734 12.417-27.734 27.734 0 4.078 0.88 7.951 2.461 11.438l-0.071-0.174 17.067 38.4c4.427 9.785 14.104 16.471 25.343 16.471 4.078 0 7.951-0.88 11.439-2.461l-0.174 0.071zM732.331 97.877c9.785-4.427 16.471-14.104 16.471-25.343 0-4.078-0.88-7.951-2.461-11.439l0.071 0.174-17.067-38.4c-4.427-9.785-14.105-16.47-25.344-16.47-15.317 0-27.734 12.417-27.734 27.734 0 4.078 0.88 7.951 2.461 11.438l-0.071-0.174 17.067 38.4c4.427 9.785 14.104 16.471 25.343 16.471 4.078 0 7.951-0.88 11.439-2.461l-0.174 0.071zM862.123 156.331c4.427 9.785 14.104 16.471 25.343 16.471 4.078 0 7.951-0.88 11.439-2.461l-0.174 0.071 38.4-17.067c9.785-4.427 16.47-14.105 16.47-25.344 0-15.317-12.417-27.734-27.734-27.734-4.078 0-7.951 0.88-11.438 2.461l0.174-0.071-38.4 17.067c-9.785 4.427-16.471 14.104-16.471 25.343 0 4.078 0.88 7.951 2.461 11.439l-0.071-0.174zM584.789 267.264c4.427 9.785 14.104 16.471 25.343 16.471 4.078 0 7.951-0.88 11.439-2.461l-0.174 0.071 38.4-17.067c9.785-4.427 16.47-14.105 16.47-25.344 0-15.317-12.417-27.734-27.734-27.734-4.078 0-7.951 0.88-11.438 2.461l0.174-0.071-38.4 17.067c-9.785 4.427-16.471 14.104-16.471 25.343 0 4.078 0.88 7.951 2.461 11.439l-0.071-0.174zM951.211 267.264c1.51-3.313 2.391-7.186 2.391-11.265 0-11.239-6.685-20.917-16.296-25.273l-0.174-0.071-38.4-17.067c-3.313-1.51-7.186-2.39-11.264-2.39-15.317 0-27.734 12.417-27.734 27.734 0 11.239 6.685 20.917 16.296 25.273l0.174 0.071 38.4 17.067c3.313 1.51 7.186 2.391 11.265 2.391 11.239 0 20.917-6.685 25.273-16.296l0.071-0.174zM673.877 156.331c1.51-3.313 2.391-7.186 2.391-11.265 0-11.239-6.685-20.917-16.296-25.273l-0.174-0.071-38.4-17.067c-3.313-1.51-7.186-2.39-11.264-2.39-15.317 0-27.734 12.417-27.734 27.734 0 11.239 6.685 20.917 16.296 25.273l0.174 0.071 38.4 17.067c3.313 1.51 7.186 2.391 11.265 2.391 11.239 0 20.917-6.685 25.273-16.296l0.071-0.174zM803.669 97.877c3.313 1.51 7.186 2.391 11.265 2.391 11.239 0 20.917-6.685 25.273-16.296l0.071-0.174 17.067-38.4c1.51-3.313 2.39-7.186 2.39-11.264 0-15.317-12.417-27.734-27.734-27.734-11.239 0-20.917 6.685-25.273 16.296l-0.071 0.174-17.067 38.4c-1.51 3.313-2.391 7.186-2.391 11.265 0 11.239 6.685 20.917 16.296 25.273l0.174 0.071zM692.736 375.211c3.313 1.51 7.186 2.391 11.265 2.391 11.239 0 20.917-6.685 25.273-16.296l0.071-0.174 17.067-38.4c1.51-3.313 2.39-7.186 2.39-11.264 0-15.317-12.417-27.734-27.734-27.734-11.239 0-20.917 6.685-25.273 16.296l-0.071 0.174-17.067 38.4c-1.51 3.313-2.391 7.186-2.391 11.265 0 11.239 6.685 20.917 16.296 25.273l0.174 0.071z" />
<glyph unicode="&#xe047;" glyph-name="my-account" d="M311.381 264.619c51.345 51.339 122.273 83.092 200.619 83.092 156.694 0 283.721-127.019 283.733-283.71v-0.001c0-15.317-12.417-27.733-27.733-27.733s-27.733 12.417-27.733 27.733v0c0 126.068-102.198 228.267-228.267 228.267s-228.267-102.198-228.267-228.267v0c0-15.317-12.417-27.733-27.733-27.733s-27.733 12.417-27.733 27.733v0c0 75.264 29.867 147.413 83.115 200.619zM512 633.6c-78.94 0-142.933-63.993-142.933-142.933s63.993-142.933 142.933-142.933v0c78.94 0 142.933 63.993 142.933 142.933s-63.993 142.933-142.933 142.933v0zM313.6 490.667c0 109.573 88.827 198.4 198.4 198.4s198.4-88.827 198.4-198.4v0c0-109.573-88.827-198.4-198.4-198.4s-198.4 88.827-198.4 198.4v0zM213.333 804.267c-31.812 0-57.6-25.788-57.6-57.6v0-597.333c0-31.829 25.771-57.6 57.6-57.6h597.333c31.812 0 57.6 25.788 57.6 57.6v0 597.333c0 31.812-25.788 57.6-57.6 57.6v0h-597.333zM100.267 746.667c0 62.445 50.622 113.067 113.067 113.067v0h597.333c62.445 0 113.067-50.622 113.067-113.067v0-597.333c0-62.445-50.622-113.067-113.067-113.067v0h-597.333c-62.445 0-113.067 50.622-113.067 113.067v0 597.333z" />
<glyph unicode="&#xe048;" glyph-name="form" d="M183.808 774.741c-16.427 0-37.931-17.92-37.931-51.072v-551.381c0-33.109 21.504-51.029 37.931-51.029h459.477c16.427 0 37.888 17.92 37.888 51.029 0 15.317 12.417 27.733 27.733 27.733s27.733-12.417 27.733-27.733v0c0-53.845-37.248-106.496-93.355-106.496h-459.52c-56.064 0-93.355 52.651-93.355 106.496v551.381c0 53.888 37.291 106.539 93.397 106.539h459.477c56.107 0 93.355-52.651 93.355-106.539v-137.813c0-15.317-12.417-27.733-27.733-27.733s-27.733 12.417-27.733 27.733v0 137.771c0 33.152-21.461 51.072-37.888 51.072h-459.52zM208.555 605.525c0 15.317 12.417 27.733 27.733 27.733v0h236.331c15.317 0 27.733-12.417 27.733-27.733s-12.417-27.733-27.733-27.733v0h-236.331c-15.317 0-27.733 12.417-27.733 27.733v0zM208.555 448c0 15.317 12.417 27.733 27.733 27.733v0h354.475c15.317 0 27.733-12.417 27.733-27.733s-12.417-27.733-27.733-27.733v0h-354.475c-15.317 0-27.733 12.417-27.733 27.733v0zM208.555 290.475c0 15.317 12.417 27.733 27.733 27.733v0h196.949c15.317 0 27.733-12.417 27.733-27.733s-12.417-27.733-27.733-27.733h-196.949c-15.317 0-27.733 12.417-27.733 27.733v0zM895.147 576.469c-3.51-0.084-6.826-0.813-9.868-2.072l0.182 0.067c-2.89-1.177-5.367-2.791-7.478-4.789l0.011 0.010-231.381-221.995-9.813-36.352 44.544 12.331 231.851 222.464c1.781 1.689 3.221 3.717 4.22 5.983l0.047 0.119c0.764 1.741 1.208 3.769 1.208 5.902 0 2.386-0.556 4.641-1.546 6.645l0.039-0.088c-1.167 2.317-2.715 4.274-4.582 5.866l-0.026 0.022c-2.182 1.868-4.748 3.363-7.556 4.344l-0.166 0.051c-2.674 0.953-5.759 1.504-8.972 1.504-0.266 0-0.531-0.004-0.794-0.011l0.039 0.001zM864.555 625.835c9.248 3.87 19.994 6.118 31.266 6.118 9.739 0 19.086-1.679 27.768-4.762l-0.58 0.18c9.472-3.243 18.261-8.235 25.813-14.805 7.595-6.528 13.824-14.507 18.219-23.552 4.495-9.021 7.126-19.65 7.126-30.893 0-9.939-2.056-19.398-5.766-27.975l0.176 0.457c-4.146-9.569-9.881-17.71-16.953-24.464l-0.028-0.027-236.885-227.328c-3.22-3.084-7.197-5.403-11.623-6.652l-0.195-0.047-98.261-27.136c-2.206-0.631-4.739-0.994-7.357-0.994-15.317 0-27.733 12.417-27.733 27.733 0 2.569 0.349 5.057 1.003 7.418l-0.046-0.195 24.619 90.752c1.398 5.027 4.026 9.326 7.543 12.706l0.009 0.009 236.928 227.328c7.211 6.955 15.701 12.373 24.96 16.128z" />
</font>
</defs>
</svg>
