<svg xmlns="http://www.w3.org/2000/svg" fill="none" viewBox="0 0 24 24">
  <path fill="#000" fill-rule="evenodd" d="M4 18.486c0-.597.462-1.08 1.032-1.08h5.42c.57 0 1.032.483 1.032 1.08 0 .598-.462 1.082-1.032 1.082h-5.42c-.57 0-1.032-.484-1.032-1.082Zm10.58-1.08v-1.352c0-.597-.462-1.081-1.032-1.081-.57 0-1.032.484-1.032 1.081v4.865c0 .597.462 1.081 1.032 1.081.57 0 1.033-.484 1.033-1.081v-1.351h4.387c.57 0 1.032-.484 1.032-1.082 0-.597-.462-1.08-1.032-1.08H14.58ZM12 10.918c-.57 0-1.032.484-1.032 1.081S11.43 13.08 12 13.08h6.968c.57 0 1.032-.484 1.032-1.081s-.462-1.081-1.032-1.081H12ZM4 12c0-.597.462-1.081 1.032-1.081h2.839V9.568c0-.598.462-1.082 1.032-1.082.57 0 1.032.484 1.032 1.082v4.864c0 .598-.462 1.082-1.032 1.082-.57 0-1.032-.484-1.032-1.082v-1.35H5.032C4.462 13.081 4 12.596 4 12Zm10.065-6.486V3.08c0-.597.462-1.081 1.032-1.081.57 0 1.032.484 1.032 1.081v1.351h2.839c.57 0 1.032.484 1.032 1.082 0 .597-.462 1.08-1.032 1.08h-2.839v1.352c0 .597-.462 1.081-1.032 1.081-.57 0-1.032-.484-1.032-1.081V5.514ZM4 5.514c0-.598.462-1.082 1.032-1.082H12c.57 0 1.032.484 1.032 1.082 0 .597-.462 1.08-1.032 1.08H5.032C4.462 6.595 4 6.112 4 5.515Z" clip-rule="evenodd"/>
</svg>
