<svg xmlns="http://www.w3.org/2000/svg" fill="none" viewBox="0 0 25 24">
  <path fill="#000" fill-rule="evenodd" d="M11.714 3.345a2.57 2.57 0 0 1 2.572 0c.392.227.721.553.955.948l.002.004 7.399 12.661.007.013a2.738 2.738 0 0 1 .007 2.673 2.656 2.656 0 0 1-.948.985 2.572 2.572 0 0 1-1.3.37l-.01.001H5.592a2.572 2.572 0 0 1-1.3-.371 2.656 2.656 0 0 1-.947-.985 2.739 2.739 0 0 1 .007-2.673l.007-.013 7.399-12.66.002-.005c.234-.395.563-.721.955-.948ZM13 4.791c-.15 0-.298.04-.428.115a.883.883 0 0 0-.318.314L4.861 17.871a.913.913 0 0 0 .317 1.215c.13.078.278.12.429.123h14.786a.858.858 0 0 0 .43-.123.885.885 0 0 0 .315-.329.913.913 0 0 0 0-.886l-7.391-12.65-.001-.001a.883.883 0 0 0-.318-.314.857.857 0 0 0-.428-.115Zm.001 3.673c.482 0 .874.401.874.896v3.581a.885.885 0 0 1-.874.896.885.885 0 0 1-.873-.896V9.36c0-.495.39-.896.873-.896Zm0 7.164c-.482 0-.873.4-.873.895 0 .494.39.895.873.895h.01c.483 0 .874-.4.874-.895a.885.885 0 0 0-.873-.895H13Z" clip-rule="evenodd"/>
</svg>
