<svg xmlns="http://www.w3.org/2000/svg" fill="none" viewBox="0 0 24 24">
  <path fill="#000" fill-rule="evenodd" d="M19.207 3.207a1.121 1.121 0 0 1 1.586 1.586l-9.304 9.304-2.115.529.529-2.114 9.304-9.305ZM20 .88c-.828 0-1.622.329-2.207.914l-9.5 9.5a1 1 0 0 0-.263.465l-1 4a1 1 0 0 0 1.213 1.212l4-1a1 1 0 0 0 .464-.263l9.5-9.5A3.121 3.121 0 0 0 20 .88ZM4 3a3 3 0 0 0-3 3v14a3 3 0 0 0 3 3h14a3 3 0 0 0 3-3v-7a1 1 0 1 0-2 0v7a1 1 0 0 1-1 1H4a1 1 0 0 1-1-1V6a1 1 0 0 1 1-1h7a1 1 0 1 0 0-2H4Z" clip-rule="evenodd"/>
</svg>
