<svg xmlns="http://www.w3.org/2000/svg" fill="none" viewBox="0 0 24 24">
  <path fill="#000" fill-rule="evenodd" d="M16.995 1.067a6 6 0 0 0-4.22 1.684l-.01.01-1.72 1.71a1 1 0 1 0 1.41 1.418l1.714-1.705a4 4 0 0 1 5.657 5.655l-2.994 2.994a4.001 4.001 0 0 1-6.032-.432 1 1 0 1 0-1.602 1.198 6 6 0 0 0 9.049.648l3-3 .012-.012a6 6 0 0 0-4.264-10.168ZM10.424 8.01a6 6 0 0 0-4.672 1.743l-3 3-.012.012a6 6 0 0 0 8.484 8.485l.012-.013 1.71-1.71a1 1 0 1 0-1.414-1.414L9.83 19.817a4 4 0 0 1-5.656-5.656l2.993-2.994a3.998 3.998 0 0 1 6.032.432 1 1 0 1 0 1.602-1.198 6 6 0 0 0-4.376-2.39Z" clip-rule="evenodd"/>
</svg>
