<svg xmlns="http://www.w3.org/2000/svg" fill="none" viewBox="0 0 24 24">
  <path fill="#000" fill-rule="evenodd" d="M3.879 1.879A3 3 0 0 1 6 1h8.5a1 1 0 0 1 .707.293l5.5 5.5A1 1 0 0 1 21 7.5V20a3 3 0 0 1-3 3H6a3 3 0 0 1-3-3V4a3 3 0 0 1 .879-2.121ZM6 3h7v5a1 1 0 0 0 1 1h5v11a1 1 0 0 1-1 1H6a1 1 0 0 1-1-1V4a1 1 0 0 1 1-1Zm9 4h3.086L15 3.914V7Zm-7 5a1 1 0 1 0 0 2h8a1 1 0 1 0 0-2H8Zm-1 5a1 1 0 0 1 1-1h8a1 1 0 1 1 0 2H8a1 1 0 0 1-1-1Zm1-9a1 1 0 0 0 0 2h2a1 1 0 1 0 0-2H8Z" clip-rule="evenodd"/>
</svg>
