<svg xmlns="http://www.w3.org/2000/svg" fill="none" viewBox="0 0 24 24">
  <path fill="#000" fill-rule="evenodd" d="M9 4a3 3 0 1 0 0 6 3 3 0 0 0 0-6ZM4 7a5 5 0 1 1 10 0A5 5 0 0 1 4 7Zm12.969 6.286a1.999 1.999 0 0 0-.883 2.295 1.003 1.003 0 0 1 .2.45 2 2 0 0 0 2.295.883 1.002 1.002 0 0 1 .45-.2 2 2 0 0 0 .883-2.295 1.002 1.002 0 0 1-.2-.45 1.999 1.999 0 0 0-2.294-.883 1 1 0 0 1-.451.2Zm4.186-.745a4.022 4.022 0 0 0-.846-.808l.04-.117a1 1 0 0 0-1.898-.632l-.013.04a4.028 4.028 0 0 0-1.061.024l-.048-.12a1 1 0 0 0-1.857.743l.07.174c-.31.24-.582.526-.808.846l-.118-.04a1 1 0 0 0-.632 1.898l.04.013a4.03 4.03 0 0 0 .024 1.062l-.12.047a1 1 0 1 0 .743 1.857l.174-.069c.24.308.525.58.845.807l-.04.118a1 1 0 0 0 1.898.632l.014-.04a4.07 4.07 0 0 0 1.062-.024l.048.12a1 1 0 0 0 1.857-.743l-.07-.174c.309-.24.58-.526.807-.845l.118.039a1 1 0 0 0 .632-1.898l-.04-.013a4.04 4.04 0 0 0-.024-1.062l.12-.048a1 1 0 0 0-.743-1.857l-.174.07ZM6 14a5 5 0 0 0-5 5v2a1 1 0 1 0 2 0v-2a3 3 0 0 1 3-3h4a1 1 0 1 0 0-2H6Z" clip-rule="evenodd"/>
</svg>
