<svg xmlns="http://www.w3.org/2000/svg" fill="none" viewBox="0 0 24 24">
  <path fill="#000" fill-rule="evenodd" d="M6 7a3 3 0 1 1 6 0 3 3 0 0 1-6 0Zm3-5a5 5 0 1 0 0 10A5 5 0 0 0 9 2ZM6 14a5 5 0 0 0-5 5v2a1 1 0 1 0 2 0v-2a3 3 0 0 1 3-3h6a3 3 0 0 1 3 3v2a1 1 0 1 0 2 0v-2a5 5 0 0 0-5-5H6Zm10.293-6.707a1 1 0 0 1 1.414 0L19.5 9.086l1.793-1.793a1 1 0 1 1 1.414 1.414L20.914 10.5l1.793 1.793a1 1 0 0 1-1.414 1.414L19.5 11.914l-1.793 1.793a1 1 0 0 1-1.414-1.414l1.793-1.793-1.793-1.793a1 1 0 0 1 0-1.414Z" clip-rule="evenodd"/>
</svg>
