<svg xmlns="http://www.w3.org/2000/svg" fill="none" viewBox="0 0 24 24">
  <g clip-path="url(#a)">
    <path fill="#000" fill-rule="evenodd" d="M11.293 2.293A1 1 0 0 1 13 3v.094a2.65 2.65 0 0 0 1.601 2.423 2.65 2.65 0 0 0 2.918-.532l.008-.008.06-.06a1 1 0 0 1 1.416 0 .999.999 0 0 1 0 1.415l-.06.06-.008.009a2.65 2.65 0 0 0-.607 2.729c.012.09.037.18.073.264A2.65 2.65 0 0 0 20.826 11H21a1 1 0 0 1 0 2h-.094a2.65 2.65 0 0 0-2.423 1.601 2.65 2.65 0 0 0 .532 2.918l.008.008.06.06a1 1 0 0 1 0 1.416 1 1 0 0 1-1.415 0l-.06-.06-.009-.008a2.651 2.651 0 0 0-2.918-.532 2.65 2.65 0 0 0-1.601 2.423V21a1 1 0 0 1-2 0v-.113a2.65 2.65 0 0 0-1.705-2.415 2.651 2.651 0 0 0-2.894.543l-.008.008-.06.06a.999.999 0 0 1-1.416 0 1 1 0 0 1 0-1.415l.06-.06.008-.009a2.65 2.65 0 0 0 .532-2.918 2.65 2.65 0 0 0-2.423-1.601H3a1 1 0 0 1 0-2h.113a2.65 2.65 0 0 0 2.414-1.705 2.65 2.65 0 0 0-.542-2.894l-.008-.008-.06-.06a1 1 0 0 1 0-1.416 1 1 0 0 1 1.415 0l.06.06.009.008a2.65 2.65 0 0 0 2.729.607 1 1 0 0 0 .264-.073A2.65 2.65 0 0 0 11 3.174V3a1 1 0 0 1 .293-.707ZM12 0a3 3 0 0 0-3 3v.167a.65.65 0 0 1-.285.534 1 1 0 0 0-.199.064.65.65 0 0 1-.714-.127l-.054-.055a3 3 0 1 0-4.245 4.244l.055.055a.65.65 0 0 1 .127.714l-.024.059a.65.65 0 0 1-.585.425H3a3 3 0 1 0 0 6h.167a.65.65 0 0 1 .594.394l.004.01a.65.65 0 0 1-.127.714l-.055.055a3 3 0 0 0 3.27 4.895 3 3 0 0 0 .974-.65v-.001l.055-.055a.65.65 0 0 1 .714-.127l.059.023a.651.651 0 0 1 .425.586V21a3 3 0 1 0 6 0v-.168a.65.65 0 0 1 .394-.593l.01-.004a.65.65 0 0 1 .714.127l.055.055a2.999 2.999 0 0 0 4.244 0l-.707-.707.707.707a2.999 2.999 0 0 0 0-4.244l-.055-.055a.65.65 0 0 1-.127-.714l.004-.01a.65.65 0 0 1 .594-.394H21a3 3 0 0 0 0-6h-.168a.65.65 0 0 1-.533-.285 1.006 1.006 0 0 0-.064-.199.65.65 0 0 1 .127-.714l.055-.054a2.999 2.999 0 0 0-.973-4.896 3 3 0 0 0-3.271.651l-.055.055a.65.65 0 0 1-.714.127l-.01-.004A.65.65 0 0 1 15 3.087V3a3 3 0 0 0-3-3Zm-2 12a2 2 0 1 1 4 0 2 2 0 0 1-4 0Zm2-4a4 4 0 1 0 0 8 4 4 0 0 0 0-8Z" clip-rule="evenodd"/>
  </g>
  <defs>
    <clipPath id="a">
      <path fill="#fff" d="M0 0h24v24H0z"/>
    </clipPath>
  </defs>
</svg>
