<svg width="19" height="18" viewBox="0 0 19 18" fill="none" xmlns="http://www.w3.org/2000/svg">
<g id="Frame">
<path id="Vector" d="M11.9 2.25C12.2957 2.25564 12.6731 2.41738 12.95 2.7L15.8 5.55C16.0826 5.82695 16.2444 6.20435 16.25 6.6V14.25C16.25 14.6478 16.092 15.0294 15.8107 15.3107C15.5294 15.592 15.1478 15.75 14.75 15.75H4.25C3.85218 15.75 3.47064 15.592 3.18934 15.3107C2.90804 15.0294 2.75 14.6478 2.75 14.25V3.75C2.75 3.35218 2.90804 2.97064 3.18934 2.68934C3.47064 2.40804 3.85218 2.25 4.25 2.25H11.9Z" stroke="white" stroke-width="1.5" stroke-linecap="round" stroke-linejoin="round"/>
<path id="Vector_2" d="M13.25 15.75V10.5C13.25 10.3011 13.171 10.1103 13.0303 9.96967C12.8897 9.82902 12.6989 9.75 12.5 9.75H6.5C6.30109 9.75 6.11032 9.82902 5.96967 9.96967C5.82902 10.1103 5.75 10.3011 5.75 10.5V15.75" stroke="white" stroke-width="1.5" stroke-linecap="round" stroke-linejoin="round"/>
<path id="Vector_3" d="M5.75 2.25V5.25C5.75 5.44891 5.82902 5.63968 5.96967 5.78033C6.11032 5.92098 6.30109 6 6.5 6H11.75" stroke="white" stroke-width="1.5" stroke-linecap="round" stroke-linejoin="round"/>
</g>
</svg>
