<svg width="18" height="18" viewBox="0 0 18 18" fill="none" xmlns="http://www.w3.org/2000/svg">
<g id="upgrade-icon">
<g id="Union">
<path fill-rule="evenodd" clip-rule="evenodd" d="M8.12787 11.5566L6.44303 9.8718H3.24413C3.03728 9.8718 2.8411 9.78002 2.70855 9.62124C2.57599 9.46245 2.52072 9.25304 2.55766 9.04952L3.24413 9.17413C2.55766 9.04952 2.55764 9.04967 2.55766 9.04952L2.55794 9.04804L2.55835 9.04578L2.55962 9.03896L2.56395 9.01643C2.56764 8.99758 2.57294 8.97114 2.57993 8.93801C2.59388 8.87182 2.61464 8.77853 2.64273 8.66528C2.69865 8.43983 2.78493 8.13 2.90658 7.79465C3.13294 7.17059 3.54347 6.27721 4.25156 5.80353L4.25248 5.80291C4.66759 5.52617 5.15442 5.41197 5.59679 5.37085C6.04518 5.32918 6.50085 5.35789 6.89669 5.4089C7.26354 5.45618 7.59513 5.52478 7.84558 5.58472C8.69032 4.39266 9.79541 3.40511 11.0798 2.6987C12.5274 1.90252 14.1546 1.48994 15.8066 1.50019C16.1903 1.50257 16.5 1.81422 16.5 2.19785C16.5 4.15852 15.95 7.5753 12.417 10.1629C12.4764 10.4124 12.544 10.7406 12.5908 11.1033C12.6418 11.4992 12.6705 11.9548 12.6288 12.4032C12.5877 12.8456 12.4735 13.3324 12.1968 13.7475L12.1961 13.7484C11.7225 14.4565 10.8291 14.8671 10.205 15.0934C9.86967 15.2151 9.55984 15.3013 9.33439 15.3573C9.22114 15.3854 9.12785 15.4061 9.06166 15.4201C9.02853 15.4271 9.0021 15.4324 8.98324 15.436L8.96071 15.4404L8.95389 15.4416L8.95163 15.4421L8.95079 15.4422C8.95064 15.4422 8.95015 15.4423 8.82555 14.7559L8.95079 15.4422C8.74728 15.4792 8.53722 15.424 8.37843 15.2915C8.21965 15.1589 8.12787 14.9627 8.12787 14.7559V11.5566ZM11.7522 3.92133C12.7797 3.35624 13.9128 3.01692 15.0761 2.92251C14.9338 4.71652 14.1848 7.30214 11.2446 9.2815C11.2382 9.28548 11.232 9.28957 11.2258 9.29374C10.5156 9.7414 9.76916 10.1281 8.99435 10.4498L7.55207 9.00752C7.87601 8.23847 8.26518 7.49824 8.71543 6.79499L8.71938 6.78875C9.46919 5.58988 10.5132 4.60278 11.7522 3.92133ZM11.1567 10.9544C10.6274 11.2467 10.082 11.5093 9.52322 11.7411V13.8526C9.59027 13.8307 9.65921 13.8071 9.72922 13.7817C10.331 13.5634 10.8328 13.2765 11.036 12.9731C11.1359 12.8231 11.21 12.5914 11.2395 12.2741C11.2684 11.9624 11.25 11.6166 11.2069 11.2817C11.1923 11.1685 11.1751 11.0587 11.1567 10.9544ZM6.71834 6.79281C6.83628 6.80801 6.95057 6.82597 7.05881 6.84526C6.76259 7.3734 6.49644 7.918 6.26168 8.47645H4.14739C4.16929 8.40941 4.19291 8.34046 4.2183 8.27045C4.4366 7.66865 4.72357 7.16687 5.02695 6.96361C5.17697 6.86376 5.40859 6.78971 5.72593 6.76022C6.03757 6.73125 6.38336 6.74964 6.71834 6.79281Z" fill="white"/>
<path fill-rule="evenodd" clip-rule="evenodd" d="M4.64167 11.259C4.09528 11.2421 3.56189 11.4275 3.14379 11.7797C2.77627 12.0886 2.50642 12.5141 2.30655 12.9233C2.1027 13.3406 1.94778 13.791 1.83207 14.1955C1.71571 14.6023 1.63485 14.9775 1.58304 15.2503C1.55704 15.3873 1.53812 15.4997 1.52557 15.5789C1.51929 15.6185 1.51458 15.6499 1.51137 15.672L1.50765 15.6981L1.5066 15.7057L1.50628 15.7081L1.50616 15.7089C1.50614 15.709 1.50608 15.7095 2.19761 15.8019L1.50616 15.7089C1.47736 15.9244 1.55056 16.1415 1.70428 16.2953C1.858 16.449 2.07458 16.5223 2.29006 16.4935L2.19761 15.8019C2.29006 16.4935 2.28992 16.4935 2.29006 16.4935L2.29149 16.4933L2.29387 16.4929L2.30145 16.4919L2.32753 16.4882C2.34964 16.485 2.38105 16.4803 2.42068 16.474C2.49988 16.4614 2.61227 16.4425 2.74919 16.4165C3.02208 16.3647 3.39725 16.2838 3.80402 16.1675C4.20856 16.0518 4.65894 15.8968 5.07628 15.693C5.48533 15.4932 5.91069 15.2235 6.21953 14.8561C6.93188 14.0125 6.94252 12.6985 6.11339 11.8799L6.10491 11.8716C5.70933 11.4941 5.18825 11.2759 4.64167 11.259ZM3.42028 14.8259C3.30498 14.8589 3.19214 14.8887 3.08397 14.9156C3.11081 14.8074 3.14064 14.6946 3.17362 14.5793C3.27593 14.2216 3.40444 13.8548 3.56033 13.5357C3.72012 13.2085 3.88619 12.9784 4.0417 12.8478L4.04256 12.847C4.19773 12.7163 4.39572 12.6474 4.59854 12.6537C4.79934 12.6599 4.99087 12.7393 5.13711 12.8769C5.4062 13.1471 5.42943 13.6293 5.15316 13.9562L5.15178 13.9578C5.02115 14.1134 4.79101 14.2794 4.46387 14.4392C4.14473 14.5951 3.77795 14.7236 3.42028 14.8259Z" fill="white"/>
</g>
</g>
</svg>
