<svg xmlns="http://www.w3.org/2000/svg" fill="currentColor" viewBox="0 0 24 24">
  <path d="M14.222 16.444a1.111 1.111 0 0 1 0 2.223h-10a1.111 1.111 0 0 1 0-2.223h10Zm5.556-11.111a1.111 1.111 0 0 1 0 2.223h-10a1.111 1.111 0 0 1 0-2.223h10Z"/>
  <path d="M19.778 17.556a2.222 2.222 0 1 0-4.445 0 2.222 2.222 0 0 0 4.445 0Zm2.222 0a4.444 4.444 0 1 1-8.889 0 4.444 4.444 0 0 1 8.889 0ZM8.667 6.444a2.222 2.222 0 1 0-4.445 0 2.222 2.222 0 0 0 4.445 0Zm2.222 0a4.444 4.444 0 1 1-8.889 0 4.444 4.444 0 0 1 8.889 0Z"/>
</svg>

