<svg xmlns="http://www.w3.org/2000/svg" fill="currentColor" viewBox="0 0 24 24">
  <path d="M18.022 5.074a.942.942 0 0 1 1.31 0l2.131 2.081.008.006c.34.339.529.794.529 1.267l-.009.177a1.793 1.793 0 0 1-.521 1.09l-1.952 1.906-.006.007h-.001a1.876 1.876 0 0 1-1.297.517c-.485 0-.95-.186-1.297-.518L14.78 9.521a.89.89 0 0 1 0-1.28.942.942 0 0 1 1.31 0l2.124 2.075 1.933-1.888-2.125-2.074a.89.89 0 0 1 0-1.28Z"/>
  <path d="M19.875 3.265a.942.942 0 0 1 1.31 0 .89.89 0 0 1 0 1.28l-8.894 8.685a.942.942 0 0 1-1.31 0 .89.89 0 0 1 0-1.28l8.894-8.685Z"/>
  <path d="M12.192 16.119c0-2.249-1.867-4.072-4.17-4.072-2.302 0-4.169 1.823-4.169 4.072s1.867 4.072 4.17 4.072c2.302 0 4.169-1.823 4.169-4.072Zm1.853 0c0 3.248-2.697 5.881-6.023 5.881C4.696 22 2 19.367 2 16.119s2.696-5.881 6.022-5.881 6.023 2.633 6.023 5.881Z"/>
</svg>

