<svg xmlns="http://www.w3.org/2000/svg" fill="currentColor" viewBox="0 0 24 24">
  <path d="M20.182 12a1.284 1.284 0 0 0-.291-.814l-.085-.093-6.9-6.9a1.282 1.282 0 0 0-1.813 0l-6.899 6.9a1.287 1.287 0 0 0-.278 1.398c.064.155.158.296.277.415l6.9 6.9a1.287 1.287 0 0 0 .907.376 1.283 1.283 0 0 0 .906-.376l6.9-6.899a1.286 1.286 0 0 0 .376-.907ZM22 12a3.101 3.101 0 0 1-.804 2.082l-.105.11-6.899 6.9a3.1 3.1 0 0 1-4.385 0l-6.898-6.9a3.099 3.099 0 0 1 0-4.385l6.898-6.898a3.103 3.103 0 0 1 4.385 0l6.898 6.898A3.104 3.104 0 0 1 22 12Z"/>
</svg>

