<svg xmlns="http://www.w3.org/2000/svg" fill="none" viewBox="0 0 18 18">
  <g clip-path="url(#a)">
    <rect width="18" height="18" fill="#fff" rx="9"/>
    <path fill="#6B6B6B" d="M17.926 8.024c-.339-2.8-1.696-4.977-4.028-6.55-1.14-.768-2.409-1.209-3.769-1.39C9.858.047 9.584.028 9.311 0h-.633l-.679.075a8.701 8.701 0 0 0-4.44 1.774C1.79 3.21.645 4.975.2 7.163c-.538 2.664.009 5.11 1.65 7.277 1.342 1.772 3.124 2.887 5.302 3.348.41.087.833.115 1.25.171l.276.041h.633l.678-.076a8.739 8.739 0 0 0 4.783-2.047c1.59-1.34 2.6-3.036 3.026-5.07.085-.405.109-.822.162-1.233.01-.086.026-.172.04-.258v-.632c-.025-.22-.047-.44-.074-.66Zm-5.452 4.351c-.012.818-.6 1.38-1.414 1.38H6.93c-.813 0-1.404-.566-1.415-1.38a99.26 99.26 0 0 1 0-2.617c.006-.619.342-1.092.916-1.303.113-.042.134-.1.133-.206a104.15 104.15 0 0 1 0-1.581c.002-1.248.828-2.243 2.065-2.408 1.67-.225 2.796.999 2.802 2.372.002.539.002 1.078 0 1.617 0 .105.018.164.132.206.575.212.91.681.917 1.303.006.873.009 1.746-.005 2.617Zm-2.037-5.702c-.018.503-.008 1.007 0 1.51 0 .148-.047.187-.19.187-.423-.008-.843-.003-1.265-.003-.421 0-.83-.004-1.246.002-.131 0-.188-.03-.184-.175.008-.532-.002-1.065.005-1.597.013-.862.759-1.473 1.617-1.373.709.081 1.292.685 1.263 1.45Z"/>
  </g>
  <defs>
    <clipPath id="a">
      <rect width="18" height="18" fill="#fff" rx="9"/>
    </clipPath>
  </defs>
</svg>
