<svg id="Layer_1" data-name="Layer 1" xmlns="http://www.w3.org/2000/svg" viewBox="0 0 32 32"><defs><style>.cls-1{fill:#475bb2;}</style></defs><title>Artboard 1 copy 3</title><path class="cls-1" d="M27.58,4a27.9,27.9,0,0,0-5.17,4,27,27,0,0,0-4.09,5.08,33.06,33.06,0,0,1,2,4.65A23.78,23.78,0,0,1,24,12.15V18a8,8,0,0,1-5.89,7.72l-.21.05A27,27,0,0,0,16,17.61,27.9,27.9,0,0,0,9.59,8,27.9,27.9,0,0,0,4.42,4L4,3.77V18a12,12,0,0,0,9.93,11.82l.14,0a11.72,11.72,0,0,0,3.86,0l.14,0A12,12,0,0,0,28,18V3.77ZM8,18V12.15a23.86,23.86,0,0,1,5.89,13.57A8,8,0,0,1,8,18ZM16,2a3,3,0,1,0,3,3A3,3,0,0,0,16,2Z"/></svg>