<svg xmlns="http://www.w3.org/2000/svg" fill="#4e4e4e" viewBox="0 0 24 24">
  <path d="M12.046 2c.475 0 .941.125 1.353.362l6.333 3.618.004.002.15.094a2.717 2.717 0 0 1 1.207 2.254v7.239a2.715 2.715 0 0 1-1.357 2.347l-.004.002-6.332 3.619-.001-.001a2.713 2.713 0 0 1-2.706 0L4.36 17.918l-.003-.002A2.715 2.715 0 0 1 3 15.568V8.33l.006-.179a2.714 2.714 0 0 1 1.35-2.169l.004-.002 6.333-3.619A2.712 2.712 0 0 1 12.046 2Zm0 1.81a.905.905 0 0 0-.452.12l-.004.002-6.33 3.616h.002a.907.907 0 0 0-.453.784v7.235l.008.118a.905.905 0 0 0 .441.662l6.332 3.618.004.003a.906.906 0 0 0 .905 0l.003-.003 6.332-3.618a.905.905 0 0 0 .45-.78V8.332l-.009-.118a.903.903 0 0 0-.444-.664l-6.329-3.617-.003-.002a.905.905 0 0 0-.453-.12Z"/>
  <path d="M14.76 11.949a2.714 2.714 0 1 0-5.428 0 2.714 2.714 0 0 0 5.428 0Zm1.81 0a4.523 4.523 0 1 1-9.047 0 4.523 4.523 0 0 1 9.046 0Z"/>
</svg>