<svg xmlns="http://www.w3.org/2000/svg" fill="none" viewBox="0 0 24 24">
  <path fill="#383838" d="M2 12.587h5.89c-.06.067-.094.11-.132.148-.247.25-.496.498-.745.746-.266.265-.266.265-.117.618.944 2.234 3.096 3.57 5.514 3.401 1.277-.09 2.39-.582 3.334-1.448l.131-.122 3.17 3.167c-.166.154-.336.322-.517.476-1.663 1.41-3.578 2.217-5.755 2.396-.05.007-.1.018-.148.032h-1.25c-.231-.029-.463-.052-.693-.086-2.755-.408-4.984-1.715-6.685-3.922-.213-.277-.407-.573-.647-.908L2 18.485v-5.898ZM5.516 2.001l1.38 1.338c-.513.393-1.004.729-1.447 1.116-1.927 1.691-3.053 3.812-3.377 6.363a77.17 77.17 0 0 1-.072.558v.04h4.5a.665.665 0 0 0 .025-.076c.306-2.105 1.44-3.58 3.378-4.442.35-.156.352-.15.617.115l.732.73c.043.042.09.081.162.145V2.001H5.516ZM22 5.517l-1.34 1.38c-.376-.493-.694-.963-1.063-1.389-1.703-1.966-3.848-3.111-6.435-3.437L12.625 2h-.04v4.5a.75.75 0 0 0 .076.025c2.105.305 3.58 1.439 4.442 3.377.156.35.15.353-.128.631l-.704.706c-.048.048-.092.1-.163.176H22V5.517Z"/>
</svg>
