<svg width="24" height="24" viewBox="0 0 24 24" fill="none" xmlns="http://www.w3.org/2000/svg">
<path d="M7.22391 14.2428L5.61337 15.5631C7.41857 18.7151 11.5668 20.5775 15.5843 18.3948L17.2842 20.4696C14.9175 21.8889 12.41 22.3603 9.73854 21.7226C7.08191 21.0884 5.05305 19.5398 3.51942 17.2739L2.0142 18.501V12.8211L7.22391 14.2428ZM22.0028 11.0767V5.40154C21.4886 5.8198 21.0005 6.21801 20.5011 6.62506C18.5551 3.78395 15.8861 2.25603 12.4697 2C12.2242 2.90259 11.9881 3.76979 11.752 4.63227C14.6418 4.68714 16.8647 5.89001 18.4214 8.32583L16.7949 9.65849L22.0028 11.0767ZM5.40332 2.00885L6.63046 3.51081C3.82118 5.43045 2.26625 8.05329 2 11.4442L4.63888 12.1616C4.67675 9.28152 5.92045 7.11588 8.33331 5.59032L9.66635 7.21322C10.1474 5.45346 10.613 3.73971 11.0864 2.00885H5.40332Z" fill="#383838"/>
</svg>
