<svg xmlns="http://www.w3.org/2000/svg" fill="none" viewBox="0 0 24 24">
  <path fill="#4E4E4E" fill-rule="evenodd" d="M7.545 2a2.727 2.727 0 0 0-2.727 2.727v.91a.91.91 0 0 0 1.818 0v-.91a.91.91 0 0 1 .91-.909h6.363v2.727a2.727 2.727 0 0 0 2.727 2.728h2.728v10a.91.91 0 0 1-.91.909H5.727a.91.91 0 1 0 0 1.818h12.727a2.727 2.727 0 0 0 2.728-2.727V7.455a.91.91 0 0 0-.266-.643L16.37 2.266A.91.91 0 0 0 15.727 2H7.545Zm8.182 2.195v2.35a.91.91 0 0 0 .91.91h2.35l-3.26-3.26ZM3 13.818C3 12.814 3.814 12 4.818 12v-.91a2.727 2.727 0 0 1 5.455 0V12c1.004 0 1.818.814 1.818 1.818v2.728a1.818 1.818 0 0 1-1.818 1.818H4.818A1.818 1.818 0 0 1 3 16.545v-2.727ZM8.455 12v-.91a.91.91 0 0 0-1.819 0V12h1.819Zm1.818 1.818v2.728H4.818v-2.728h5.455Z" clip-rule="evenodd"/>
</svg>
