<svg xmlns="http://www.w3.org/2000/svg" fill="none" viewBox="0 0 24 24">
  <path fill="#383838" fill-rule="evenodd" d="M7.614 2.162A2.345 2.345 0 0 1 9.25 1.5h7.285a.5.5 0 0 1 .35.142l5.464 5.33a.5.5 0 0 1 .15.357v10.659c0 .608-.247 1.188-.684 1.614a2.345 2.345 0 0 1-1.637.662h-6.824v.56c0 .937-.776 1.676-1.707 1.676h-8.44c-.93 0-1.706-.739-1.706-1.676v-4.117c0-.938.776-1.677 1.706-1.677h.707v-1.854c0-.917.374-1.793 1.034-2.438A3.544 3.544 0 0 1 6.93 9.77V3.776c0-.607.248-1.188.685-1.614Zm-2.7 12.868h5.03v-1.854c0-.643-.262-1.263-.733-1.722a2.555 2.555 0 0 0-1.783-.719c-.67 0-1.312.26-1.783.72a2.404 2.404 0 0 0-.732 1.72v1.855Zm6.03 0h.704c.93 0 1.707.74 1.707 1.677v2.557h6.824c.355 0 .692-.137.939-.378.246-.24.383-.564.383-.898V7.829h-4.966a.5.5 0 0 1-.5-.5V2.5H9.25c-.355 0-.692.137-.939.378-.247.24-.383.564-.383.898V9.77c.744.105 1.44.441 1.98.968a3.405 3.405 0 0 1 1.034 2.438v1.854Zm6.09-8.2V3.184l3.738 3.644h-3.737Zm-4.913 4.44a.5.5 0 1 0 0 1h6.233a.5.5 0 0 0 0-1h-6.233Zm1.606 4.052a.5.5 0 0 1 .5-.5h5.18a.5.5 0 1 1 0 1h-5.18a.5.5 0 0 1-.5-.5Zm-2.659-7.604a.5.5 0 1 0 0 1h1.822a.5.5 0 0 0 0-1h-1.82ZM2.5 16.707c0-.362.304-.677.706-.677h8.442c.402 0 .707.315.707.677v4.117a.692.692 0 0 1-.707.676H3.207a.692.692 0 0 1-.706-.676v-4.117Z" clip-rule="evenodd"/>
</svg>
