<svg xmlns="http://www.w3.org/2000/svg" fill="none" viewBox="0 0 24 24">
  <path fill="#383838" fill-rule="evenodd" d="M3.41 7.467c.02-.527.545-1.058 1.317-1.058h14.546c.773 0 1.297.53 1.317 1.058L12 13.481 3.41 7.467Zm-1 .253v9.325c0 1.212 1.106 2.091 2.317 2.091h14.546c1.211 0 2.318-.879 2.318-2.09V7.5c0-1.212-1.107-2.09-2.318-2.09H4.727c-1.211 0-2.318.878-2.318 2.09v.22Zm18.18.968v8.357c0 .539-.529 1.091-1.317 1.091H4.727c-.788 0-1.318-.552-1.318-1.09V8.687l8.304 5.813a.5.5 0 0 0 .574 0l8.304-5.813Z" clip-rule="evenodd"/>
</svg>
