<svg xmlns="http://www.w3.org/2000/svg" fill="none" viewBox="0 0 24 24">
  <path fill="#383838" fill-rule="evenodd" d="M5.423 21.432c.284.325.653.48 1.062.566L18.514 22a.197.197 0 0 1 .052-.024c.813-.111 1.434-.81 1.434-1.725-.003-4.517-.003-9.033 0-13.549a.645.645 0 0 0-.2-.489c-1.34-1.338-2.68-2.677-4.017-4.017a.627.627 0 0 0-.47-.196l-2.38.001c-2.064 0-4.127 0-6.19.01-.273 0-.542.057-.79.168-.654.307-.948.86-.953 1.574V20.21c0 .458.115.871.423 1.223Zm9.336-18.6h.24c0 .235-.002.466-.003.696-.003.578-.006 1.145.01 1.712.002.279.06.554.17.81.301.646.848.945 1.553.951.49.003.982.002 1.472.001l.734-.001h.232v13.172c0 .674-.32.994-.993.994H6.83c-.683 0-.999-.319-.999-1.008V3.84c0-.689.316-1.006 1-1.006h7.928Zm1.082.692 2.637 2.638-.539.003c-.435.004-.884.008-1.331-.01-.44-.019-.74-.311-.76-.746a24.14 24.14 0 0 1-.01-1.343l.003-.542Zm-3.382 4.599c.145 0 .275.062.366.16l2.485 2.484a.5.5 0 1 1-.708.707L12.96 9.831v6.285a.5.5 0 0 1-1 0V9.83l-1.644 1.644a.5.5 0 0 1-.708-.707l2.498-2.498a.498.498 0 0 1 .352-.146h.002Z" clip-rule="evenodd"/>
</svg>
