<svg xmlns="http://www.w3.org/2000/svg" fill="none" viewBox="0 0 24 24">
  <path fill="#000" d="M12.2 21.95c-1.5 0-2.6-1.1-2.6-2.6 0-.1 0-.3-.3-.4-.1-.1-.3 0-.4.1-.9 1-2.8 1-3.7 0-.5-.5-.7-1.1-.7-1.9 0-.7.3-1.4.7-1.9.1-.1.1-.3.1-.4 0-.1-.2-.2-.3-.2h-.3c-1.5 0-2.6-1.1-2.6-2.6s1.1-2.6 2.6-2.6c.1 0 .3 0 .4-.3.1-.3.1-.3 0-.4-.5-.4-.8-1.1-.8-1.8-.1-.7.2-1.4.7-1.9.9-.9 2.7-.9 3.7 0 .2.1.4.2.6.1 0-.1 0-.1.1-.1s.1-.1.1-.2v-.2c0-1.5 1.1-2.6 2.6-2.6s2.6 1.1 2.6 2.6v.1c0 .1.1.2.2.3.1 0 .3 0 .4-.1.9-.9 2.8-.9 3.7 0 .5.5.7 1.1.7 1.9 0 .8-.2 1.3-.7 1.8-.1.1-.1.3-.1.4 0 .1 0 .1.1.2s.1.1.2.1c1.6 0 2.7 1.1 2.7 2.6 0 1.4-1.1 2.6-2.5 2.6l-.4.4c0 .1 0 .3.1.4 1 1 1 2.7 0 3.7s-2.7 1-3.7 0c-.1-.1-.3-.1-.4-.1-.1 0-.2.2-.2.3 0 1.6-1.1 2.7-2.6 2.7Zm-3-5c.3 0 .6.1.9.2 1 .4 1.5 1.2 1.5 2.1 0 .4.3.7.6.7s.6-.3.6-.6c0-1 .6-1.9 1.4-2.2.9-.4 1.9-.2 2.6.5.2.2.7.2.9 0 .2-.2.2-.7 0-.9-.7-.7-.9-1.7-.5-2.6 0-.1 0-.1.1-.1.3-.5.9-1.2 1.7-1.5h.2c.4 0 .7-.3.7-.6s-.3-.6-.6-.6c-1 0-1.9-.6-2.2-1.4-.1-.1-.1-.2-.1-.3-.3-.8 0-1.8.6-2.4.1-.1.2-.3.2-.4 0-.1-.1-.3-.2-.4-.2-.2-.7-.2-.9 0-.7.6-1.7.8-2.6.4-.9-.3-1.4-1.2-1.4-2.1v-.1c0-.3-.3-.6-.6-.6s-.6.3-.6.6v.2c0 .9-.6 1.8-1.4 2.1-.1.1-.2.1-.3.1-.8.2-1.7.1-2.4-.5 0 0-.1 0-.1-.1-.2-.2-.7-.2-.9 0-.1.1-.1.3-.1.4 0 .1 0 .4.2.6.7.7.9 1.7.4 2.6-.3.9-1.1 1.5-2.1 1.5-.4 0-.7.3-.7.6s.3.6.6.6H5c.9 0 1.8.6 2.1 1.4.4.9.2 1.9-.5 2.6-.1.1-.2.3-.2.4 0 .2.1.3.2.4.2.2.7.2.9 0 .4-.4 1.1-.6 1.7-.6Zm2.8-1.4c-2 0-3.5-1.5-3.5-3.5s1.5-3.5 3.5-3.5 3.5 1.5 3.5 3.5-1.5 3.5-3.5 3.5Zm0-5c-.8 0-1.5.7-1.5 1.5s.7 1.5 1.5 1.5 1.5-.7 1.5-1.5-.7-1.5-1.5-1.5Z"/>
</svg>
