<svg xmlns="http://www.w3.org/2000/svg" fill="none" viewBox="0 0 24 24">
  <path fill="#4E4E4E" d="M9.22 11H3.77A1.781 1.781 0 0 1 2 9.18V3.73A1.77 1.77 0 0 1 3.77 2h5.45A1.78 1.78 0 0 1 11 3.73v5.45A1.78 1.78 0 0 1 9.22 11ZM4 9h5V4H4v5Zm16.22 13h-5.46A1.77 1.77 0 0 1 13 20.23v-5.45A1.78 1.78 0 0 1 14.76 13h5.45A1.782 1.782 0 0 1 22 14.78v5.45A1.78 1.78 0 0 1 20.21 22h.01ZM15 20h5v-5h-5v5Zm-8.51 2a4.5 4.5 0 1 1 .02-9.001A4.5 4.5 0 0 1 6.49 22Zm0-7A2.5 2.5 0 1 0 9 17.5 2.51 2.51 0 0 0 6.49 15Zm11-4A4.5 4.5 0 1 1 22 6.46 4.51 4.51 0 0 1 17.49 11Zm0-7a2.5 2.5 0 1 0 .021 5 2.5 2.5 0 0 0-.02-5Z"/>
</svg>
