<svg xmlns="http://www.w3.org/2000/svg" fill="none" viewBox="0 0 24 24">
  <path fill="#383838" fill-rule="evenodd" d="M11.068 2.886a1.318 1.318 0 0 1 2.25.932v.084a2 2 0 0 0 1.21 1.83 2 2 0 0 0 2.204-.402l.003-.004.055-.054a1.318 1.318 0 0 1 1.865 0 1.319 1.319 0 0 1 0 1.865l-.054.055-.004.004a2 2 0 0 0-.442 2.103.498.498 0 0 0 .04.17 2 2 0 0 0 1.83 1.213h.157a1.318 1.318 0 0 1 0 2.636h-.084a2 2 0 0 0-1.83 1.21 2 2 0 0 0 .402 2.204l.004.003.054.055a1.32 1.32 0 0 1 0 1.865 1.32 1.32 0 0 1-1.865 0l-.055-.054-.004-.004a2 2 0 0 0-2.203-.401 2 2 0 0 0-1.21 1.83v.156a1.318 1.318 0 0 1-2.636 0v-.094a2 2 0 0 0-1.295-1.825 2 2 0 0 0-2.191.407l-.004.004-.055.054a1.32 1.32 0 0 1-1.865 0 1.319 1.319 0 0 1 0-1.865l.054-.055.004-.004a2 2 0 0 0 .401-2.203 2 2 0 0 0-1.83-1.21h-.156a1.318 1.318 0 0 1 0-2.636h.094A2 2 0 0 0 5.736 9.46a2 2 0 0 0-.406-2.19l-.004-.004-.054-.055a1.318 1.318 0 0 1 0-1.865 1.318 1.318 0 0 1 1.865 0l.055.054.004.004a2 2 0 0 0 2.103.442.5.5 0 0 0 .17-.04 2 2 0 0 0 1.213-1.83v-.157c0-.35.139-.685.386-.932ZM12 1.5a2.318 2.318 0 0 0-2.318 2.318v.154a1 1 0 0 1-.526.875.5.5 0 0 0-.158.041 1 1 0 0 1-1.101-.198l-.052-.052a2.318 2.318 0 1 0-3.28 3.28l.052.052a1 1 0 0 1 .186 1.13 1 1 0 0 1-.91.655h-.075a2.318 2.318 0 1 0 0 4.636h.154a1 1 0 0 1 .914.606l.002.005a1 1 0 0 1-.198 1.101l-.052.052a2.319 2.319 0 1 0 3.28 3.28l.05-.05.002-.002a1 1 0 0 1 1.13-.186 1 1 0 0 1 .655.91v.075a2.318 2.318 0 1 0 4.636 0v-.154a1 1 0 0 1 .606-.914l.005-.002a1 1 0 0 1 1.101.198l.052.052a2.317 2.317 0 0 0 3.28 0 2.32 2.32 0 0 0 0-3.28l-.052-.052a1 1 0 0 1-.198-1.1l.002-.006a1 1 0 0 1 .914-.606h.08a2.318 2.318 0 0 0 0-4.636h-.153a1 1 0 0 1-.875-.526.503.503 0 0 0-.041-.158 1 1 0 0 1 .198-1.101l.052-.052a2.317 2.317 0 0 0-.752-3.783 2.319 2.319 0 0 0-2.527.503l-.053.052a1 1 0 0 1-1.1.198l-.006-.002a1 1 0 0 1-.606-.914v-.08A2.318 2.318 0 0 0 12 1.5ZM9.5 12a2.5 2.5 0 1 1 5 0 2.5 2.5 0 0 1-5 0ZM12 8.5a3.5 3.5 0 1 0 0 7 3.5 3.5 0 0 0 0-7Z" clip-rule="evenodd"/>
</svg>
