<svg xmlns="http://www.w3.org/2000/svg" fill="none" viewBox="0 0 24 24">
  <path fill="#4E4E4E" fill-rule="evenodd" d="M12.403 3.939a4.77 4.77 0 0 0-4.77 4.77c0 1.773 1.208 3.663 2.575 5.201a20.942 20.942 0 0 0 2.195 2.122 20.942 20.942 0 0 0 2.353-2.302c1.301-1.504 2.417-3.317 2.417-5.021a4.77 4.77 0 0 0-4.77-4.77Zm4.508 9.54c.983-1.385 1.801-3.047 1.801-4.77a6.31 6.31 0 0 0-12.618 0c0 1.723.818 3.385 1.801 4.77H5.94l-.042.001a1.693 1.693 0 0 0-1.521 1.177L2.573 20.07a1.114 1.114 0 0 0-.173.63v.012c0 .452.154.888.48 1.214a1.69 1.69 0 0 0 1.213.479h16.619c.451 0 .888-.154 1.213-.48.325-.325.48-.761.48-1.213V20.7c0-.097 0-.362-.173-.63l-1.804-5.412a1.692 1.692 0 0 0-1.563-1.178h-1.954Zm-1.24 1.539a22.569 22.569 0 0 1-2.734 2.56l-.052.04-.014.01-.004.004-.001.001-.463-.615-.462.616-.002-.002-.004-.003-.014-.01-.051-.04a20.257 20.257 0 0 1-.839-.696 22.585 22.585 0 0 1-1.897-1.865H5.97a.153.153 0 0 0-.126.106l-.004.014-1.847 5.54a.767.767 0 0 1-.046.108.19.19 0 0 0 .008.027.066.066 0 0 0 .014.024.066.066 0 0 0 .023.013.285.285 0 0 0 .102.015h16.619a.285.285 0 0 0 .101-.015c.016-.006.022-.012.024-.013a.065.065 0 0 0 .014-.024.194.194 0 0 0 .007-.027.761.761 0 0 1-.045-.109l-1.851-5.553a.153.153 0 0 0-.127-.106h-3.163Zm-3.268 2 .463.615a.771.771 0 0 1-.925 0l.462-.615Zm0-9.383a1.077 1.077 0 1 0 0 2.154 1.077 1.077 0 0 0 0-2.154ZM9.789 8.712a2.616 2.616 0 1 1 5.232 0 2.616 2.616 0 0 1-5.232 0Z" clip-rule="evenodd"/>
</svg>
