<svg xmlns="http://www.w3.org/2000/svg" fill="none" viewBox="0 0 24 24">
  <path fill="#383838" fill-rule="evenodd" d="M6.75 4.75a7.682 7.682 0 0 1 13.114 5.432c0 2.98-1.929 5.813-3.954 7.951a27.175 27.175 0 0 1-3.67 3.215l-.058.042-.059-.042a27.159 27.159 0 0 1-3.67-3.214C6.429 15.994 4.5 13.162 4.5 10.181c0-2.038.81-3.991 2.25-5.432Zm5.154 17.666.278-.416-.277.416a.5.5 0 0 0 .554 0L12.182 22l.277.416h.001l.001-.002.006-.003.02-.013.071-.05a25.455 25.455 0 0 0 1.213-.909 28.15 28.15 0 0 0 2.865-2.618c2.065-2.18 4.228-5.256 4.228-8.64a8.682 8.682 0 0 0-17.364 0c0 3.384 2.163 6.46 4.228 8.64a28.153 28.153 0 0 0 3.81 3.337c.114.083.205.147.267.19l.072.05.02.013.005.003.002.002ZM9.954 10.18a2.227 2.227 0 1 1 4.454 0 2.227 2.227 0 0 1-4.455 0Zm2.226-3.227a3.227 3.227 0 1 0 0 6.455 3.227 3.227 0 0 0 0-6.455Z" clip-rule="evenodd"/>
</svg>
