<svg xmlns="http://www.w3.org/2000/svg" fill="none" viewBox="0 0 24 24">
  <path fill="#383838" fill-rule="evenodd" d="M21 6.364a3.364 3.364 0 1 1-6.727 0 3.364 3.364 0 0 1 6.727 0Zm1 0a4.364 4.364 0 1 1-8.727 0 4.364 4.364 0 0 1 8.727 0ZM8.91 6.273H3.817A.818.818 0 0 0 3 7.09v6.182h6.727V7.09a.818.818 0 0 0-.818-.818ZM3 20.182v-5.91h6.727V21H3.818A.818.818 0 0 1 3 20.182Zm7.727.818v-6.727h6.182c.452 0 .818.366.818.818v5.09a.818.818 0 0 1-.818.819h-6.182ZM2 20.182V7.09c0-1.004.814-1.818 1.818-1.818H8.91c1.004 0 1.818.814 1.818 1.818v6.182h6.182c1.004 0 1.818.814 1.818 1.818v5.09A1.818 1.818 0 0 1 16.91 22H3.818A1.818 1.818 0 0 1 2 20.182Z" clip-rule="evenodd"/>
</svg>
