<svg xmlns="http://www.w3.org/2000/svg" fill="none" viewBox="0 0 24 24">
  <path stroke="#383838" stroke-linecap="round" stroke-linejoin="round" stroke-width="1.25" d="M6.43 9V3.776c0-.47.191-.923.533-1.256.341-.333.805-.52 1.288-.52h7.285L21 7.33v10.658c0 .47-.191.923-.533 1.256-.342.333-.805.52-1.288.52H10"/>
  <path stroke="#383838" stroke-linecap="round" stroke-linejoin="round" stroke-width="1.25" d="M15.535 2v5.33h5.464M17 11.274h-4m5.537 3.378h-5.922m-.27-6.747h-1.73m-5.755 8.88L4.157 22l2.898-1.717L9.954 22l-.701-5.22"/>
  <path stroke="#383838" stroke-linecap="round" stroke-linejoin="round" stroke-width="1.25" d="M7.057 17.42c2.24 0 4.057-1.794 4.057-4.007 0-2.213-1.816-4.007-4.057-4.007C4.817 9.406 3 11.2 3 13.413c0 2.213 1.816 4.007 4.057 4.007Z"/>
</svg>
