<svg xmlns="http://www.w3.org/2000/svg" fill="none" viewBox="0 0 24 24">
  <path fill="#383838" fill-rule="evenodd" d="M6.614 2.162A2.345 2.345 0 0 1 8.25 1.5h7.285a.5.5 0 0 1 .35.142l5.464 5.33a.5.5 0 0 1 .15.357v10.659c0 .608-.247 1.188-.684 1.614a2.345 2.345 0 0 1-1.637.662h-8.954l.224 1.67a.5.5 0 0 1-.75.496l-2.643-1.566-2.643 1.566a.5.5 0 0 1-.75-.497l.66-4.913A4.482 4.482 0 0 1 2.5 13.413c0-2.109 1.462-3.873 3.431-4.368A.508.508 0 0 1 5.93 9V3.776c0-.607.248-1.188.685-1.614Zm.315 6.746.128-.002c2.51 0 4.557 2.012 4.557 4.507a4.482 4.482 0 0 1-1.825 3.607l.302 2.244h9.088c.355 0 .692-.137.939-.378.246-.24.383-.564.383-.898V7.829h-4.966a.5.5 0 0 1-.5-.5V2.5H8.25c-.355 0-.692.137-.939.378-.247.24-.383.564-.383.898v5.132Zm2.102 7.423a.49.49 0 0 0-.091.058 3.57 3.57 0 0 1-1.883.531c-1.97 0-3.557-1.576-3.557-3.507 0-1.93 1.587-3.507 3.557-3.507s3.557 1.576 3.557 3.507a3.493 3.493 0 0 1-1.583 2.918Zm-.179 1.226.469 3.487-2.01-1.191a.5.5 0 0 0-.51 0l-2.01 1.19.47-3.487a4.566 4.566 0 0 0 1.796.364 4.6 4.6 0 0 0 1.795-.363Zm7.183-10.728V3.185l3.737 3.644h-3.737ZM13 10.774a.5.5 0 0 0 0 1h4a.5.5 0 1 0 0-1h-4Zm-.885 3.878a.5.5 0 0 1 .5-.5h5.921a.5.5 0 0 1 0 1h-5.92a.5.5 0 0 1-.5-.5Zm-1.5-7.247a.5.5 0 1 0 0 1h1.73a.5.5 0 0 0 0-1h-1.73Z" clip-rule="evenodd"/>
</svg>
