<svg xmlns="http://www.w3.org/2000/svg" fill="none" viewBox="0 0 24 24">
  <path fill="#4E4E4E" fill-rule="evenodd" d="M11.129 12.98a6.363 6.363 0 0 0-7.31 6.293.909.909 0 1 1-1.819 0 8.182 8.182 0 0 1 13.594-6.137.91.91 0 0 1-1.203 1.364 6.364 6.364 0 0 0-3.262-1.52Z" clip-rule="evenodd"/>
  <path fill="#4E4E4E" fill-rule="evenodd" d="M10.182 3.818a3.636 3.636 0 1 0 0 7.273 3.636 3.636 0 0 0 0-7.273ZM4.727 7.455a5.455 5.455 0 1 1 10.91 0 5.455 5.455 0 0 1-10.91 0Zm13.637 6.363a.91.91 0 0 1 .909.91v5.454a.91.91 0 1 1-1.819 0v-5.455a.91.91 0 0 1 .91-.909Z" clip-rule="evenodd"/>
  <path fill="#4E4E4E" fill-rule="evenodd" d="M14.727 17.454a.91.91 0 0 1 .91-.909h5.454a.91.91 0 1 1 0 1.819h-5.455a.91.91 0 0 1-.909-.91Z" clip-rule="evenodd"/>
</svg>
