<svg xmlns="http://www.w3.org/2000/svg" viewBox="0 0 24 24">
  <path d="M3.036 16.937a6.425 6.425 0 0 1 10.968 4.543.75.75 0 0 1-1.5 0 4.925 4.925 0 1 0-9.85 0 .75.75 0 0 1-1.5 0c0-1.704.677-3.338 1.882-4.543Z" clip-rule="evenodd"/>
  <path d="M7.579 9.462a2.797 2.797 0 1 0 0 5.593 2.797 2.797 0 0 0 0-5.593Zm-4.297 2.796a4.297 4.297 0 1 1 8.594 0 4.297 4.297 0 0 1-8.594 0Zm9.008-3.432a.75.75 0 0 1 1.027-.263 4.296 4.296 0 0 1 1.055 6.51c1.323 1.303 2.47 3.416 2.47 5.698a.75.75 0 1 1-1.5 0c0-2.121-1.28-4.131-2.538-5.075a.75.75 0 0 1 0-1.2 2.797 2.797 0 0 0-.252-4.643.75.75 0 0 1-.262-1.027Zm.89-2.223a.75.75 0 0 1 .75-.75h8.166a.75.75 0 0 1 0 1.5h-8.167a.75.75 0 0 1-.75-.75Z" clip-rule="evenodd"/>
  <path d="M18.013 1.77a.75.75 0 0 1 .75.75v8.167a.75.75 0 0 1-1.5 0V2.52a.75.75 0 0 1 .75-.75Z" clip-rule="evenodd"/>
</svg>
