<svg xmlns="http://www.w3.org/2000/svg" fill="none" viewBox="0 0 24 24">
  <path fill="#383838" fill-rule="evenodd" d="M21 12a9 9 0 1 1-18 0 9 9 0 0 1 18 0Zm1 0c0 5.523-4.477 10-10 10S2 17.523 2 12 6.477 2 12 2s10 4.477 10 10Zm-12.834.037c.01-1.102-.814-1.956-1.898-1.97-1.096-.015-1.96.809-1.982 1.89a1.922 1.922 0 0 0 1.17 1.84c.239.1.494.151.753.15 1.099.009 1.946-.815 1.957-1.91Zm-1.938-1.193c.678 0 1.168.497 1.162 1.175-.005.676-.51 1.161-1.184 1.151-.675-.01-1.154-.515-1.14-1.194.013-.66.5-1.132 1.162-1.132Zm6.713 1.163a1.94 1.94 0 1 1-1.929-1.94 1.904 1.904 0 0 1 1.929 1.94Zm-.776 0c0-.678-.495-1.169-1.173-1.164a1.125 1.125 0 0 0-1.154 1.144c-.01.678.478 1.178 1.153 1.182.675.005 1.173-.487 1.173-1.164v.002Zm4.36-1.803a1.897 1.897 0 0 0-.743-.137h-.001a1.932 1.932 0 0 0-1.371.562 1.942 1.942 0 0 0 1.35 3.318c1.114.009 1.956-.836 1.956-1.95a1.911 1.911 0 0 0-1.19-1.793Zm.417 1.802c.001.676-.49 1.164-1.167 1.164-.674-.003-1.16-.502-1.153-1.176.006-.674.508-1.16 1.185-1.147a1.117 1.117 0 0 1 1.059.715c.055.142.08.293.076.444Z" clip-rule="evenodd"/>
</svg>
