<svg xmlns="http://www.w3.org/2000/svg" fill="currentColor" viewBox="0 0 24 24">
  <path d="M16.546 19.273a4.545 4.545 0 0 0-9.091 0 .91.91 0 1 1-1.819 0 6.364 6.364 0 1 1 12.728 0 .91.91 0 1 1-1.819 0Z"/>
  <path d="M14.727 10.182a2.727 2.727 0 1 0-5.454 0 2.727 2.727 0 0 0 5.454 0Zm1.819 0a4.546 4.546 0 1 1-9.092 0 4.546 4.546 0 0 1 9.091 0Z"/>
  <path d="M20.182 12a8.182 8.182 0 1 0-16.364 0 8.182 8.182 0 0 0 16.364 0ZM22 12c0 5.523-4.477 10-10 10S2 17.523 2 12 6.477 2 12 2s10 4.477 10 10Z"/>
</svg>