<svg xmlns="http://www.w3.org/2000/svg" fill="none" viewBox="0 0 24 24">
  <path fill="#383838" fill-rule="evenodd" d="M5.423 21.432c.284.325.653.48 1.062.566L18.514 22a.197.197 0 0 1 .052-.024c.813-.111 1.434-.81 1.434-1.725-.003-4.517-.003-9.033 0-13.549a.645.645 0 0 0-.2-.489c-1.34-1.338-2.68-2.677-4.017-4.017a.627.627 0 0 0-.47-.196l-2.38.001c-2.064 0-4.127 0-6.19.01-.273 0-.542.057-.79.168-.654.307-.948.86-.953 1.574V20.21c0 .458.115.871.423 1.223Zm9.336-18.6h.24c0 .235-.002.466-.003.696-.003.578-.006 1.145.01 1.712.002.279.06.554.17.81.301.646.848.945 1.553.951.49.003.982.002 1.472.001l.734-.001h.232v13.172c0 .674-.32.994-.993.994H6.83c-.683 0-.999-.319-.999-1.008V3.84c0-.689.316-1.006 1-1.006h7.928Zm1.082.692 2.637 2.638-.539.003c-.435.004-.884.008-1.331-.01-.44-.019-.74-.311-.76-.746a24.14 24.14 0 0 1-.01-1.343l.003-.542Zm-2.76 7.858c.117-.392.236-.786.24-1.208-.011-.07-.02-.14-.029-.211-.02-.154-.039-.307-.072-.456-.099-.451-.357-.747-.835-.832-.697-.124-1.243.161-1.443.808-.17.557-.204 1.138.049 1.674.14.298.31.582.481.865.09.149.18.298.265.449.037.066.078.162.057.224-.268.798-.545 1.593-.83 2.385a.405.405 0 0 1-.19.195 68.5 68.5 0 0 1-.723.349c-.39.186-.78.372-1.164.572a5.436 5.436 0 0 0-.99.642c-.656.555-.488 1.384.313 1.686.614.232 1.117.005 1.582-.367.717-.574 1.225-1.315 1.64-2.124a.439.439 0 0 1 .296-.249l1.005-.267c.509-.136 1.018-.272 1.529-.404.08-.01.16.008.226.054.148.097.292.198.437.299.148.103.296.206.446.305.43.284.88.46 1.41.279.434-.149.686-.505.683-1.016-.003-.444-.236-.748-.69-.872a1.845 1.845 0 0 0-.536-.086c-.295.01-.59.033-.884.055-.202.015-.404.03-.606.042a.423.423 0 0 1-.261-.068 11.189 11.189 0 0 1-1.628-1.56.244.244 0 0 1-.054-.278c.074-.201.137-.405.195-.611l.08-.274Zm-.931.208c.028-.096.058-.19.087-.282.063-.196.123-.384.156-.576.046-.306.062-.615.05-.924-.01-.264-.118-.336-.38-.328-.2.006-.302.098-.36.34-.161.657.066 1.216.447 1.77Zm-.178 3.213.477-1.44.982 1.055-1.459.385Zm-1.842 1.661.038.06h.002c-.321.448-.673.865-1.15 1.16a.567.567 0 0 1-.503.066c-.211-.07-.229-.132-.082-.293a.408.408 0 0 1 .086-.079c.535-.305 1.072-.61 1.61-.914Zm5.476-1.53.016-.063h.002l.17.01c.218.014.437.027.65.056a.254.254 0 0 1 .173.161c.023.124-.082.194-.195.18a1.629 1.629 0 0 1-.44-.111 1.595 1.595 0 0 1-.263-.157 3.68 3.68 0 0 0-.113-.075Z" clip-rule="evenodd"/>
</svg>
