<svg xmlns="http://www.w3.org/2000/svg" fill="none" viewBox="0 0 24 24">
  <path fill="#4E4E4E" fill-rule="evenodd" d="M4.799 2.799A2.727 2.727 0 0 1 6.727 2h8.182a.91.91 0 0 1 .643.266l4.545 4.546a.91.91 0 0 1 .267.643v4.09a.91.91 0 0 1-1.819 0V7.832l-4.013-4.013H6.728a.91.91 0 0 0-.909.91v14.545a.91.91 0 0 0 .91.909h10.908a.91.91 0 0 0 .91-.91v-.908a.91.91 0 0 1 1.818 0v.909A2.727 2.727 0 0 1 17.636 22H6.727A2.727 2.727 0 0 1 4 19.273V4.727c0-.723.287-1.417.799-1.928Z" clip-rule="evenodd"/>
  <path fill="#4E4E4E" fill-rule="evenodd" d="M14 2a.91.91 0 0 1 .91.91v3.635a.91.91 0 0 0 .908.91h3.636a.91.91 0 1 1 0 1.818h-3.636a2.727 2.727 0 0 1-2.727-2.728V2.91A.91.91 0 0 1 14 2ZM9.682 13.126c0-.999.809-1.808 1.807-1.808h9.567c.998 0 1.808.81 1.808 1.808v3.376c0 .998-.81 1.808-1.808 1.808H11.49c-.998 0-1.807-.81-1.807-1.808v-3.376Zm1.807-.444a.444.444 0 0 0-.444.444v3.376c0 .245.2.444.444.444h9.567a.444.444 0 0 0 .444-.444v-3.376a.444.444 0 0 0-.444-.444H11.49Z" clip-rule="evenodd"/>
  <path fill="#4E4E4E" d="M13.939 13.689h-1.324v2.567h.791v-.777h.468c.59 0 1.007-.29 1.007-.913 0-.367-.245-.877-.942-.877Zm-.227 1.18h-.306v-.522h.353c.194 0 .374.014.374.248 0 .259-.216.273-.421.273Zm2.733-1.18h-1.298v2.567h1.144c.895 0 1.313-.5 1.313-1.287 0-.647-.302-1.28-1.159-1.28Zm-.197 1.91h-.31v-1.252h.252c.572 0 .623.45.623.611 0 .24-.072.64-.565.64Zm1.697.657h.792v-.978h1.025v-.611h-1.025v-.32h1.194v-.658h-1.986v2.567Z"/>
</svg>
