<svg width="24" height="24" viewBox="0 0 24 24" fill="none" xmlns="http://www.w3.org/2000/svg">
<path d="M13 2C12.4067 2 11.8266 2.17595 11.3333 2.50559C10.8399 2.83524 10.4554 3.30377 10.2284 3.85195C10.0013 4.40013 9.94189 5.00333 10.0576 5.58527C10.1734 6.16721 10.4591 6.70176 10.8787 7.12132C11.2982 7.54088 11.8328 7.8266 12.4147 7.94235C12.9967 8.05811 13.5999 7.9987 14.1481 7.77164C14.6962 7.54457 15.1648 7.16006 15.4944 6.66671C15.8241 6.17336 16 5.59334 16 5C15.9991 4.20462 15.6828 3.44207 15.1203 2.87965C14.5579 2.31724 13.7954 2.00088 13 2ZM11.6547 6.90472C11.8095 6.69314 12.0119 6.52104 12.2457 6.4024C12.4794 6.28376 12.7379 6.22193 13 6.22193C13.2621 6.22193 13.5206 6.28376 13.7543 6.4024C13.9881 6.52104 14.1905 6.69314 14.3453 6.90472C13.9521 7.18355 13.482 7.33332 13 7.33332C12.518 7.33332 12.0479 7.18355 11.6547 6.90472ZM12.2222 4.77778C12.2222 4.62395 12.2678 4.47357 12.3533 4.34567C12.4388 4.21776 12.5602 4.11807 12.7024 4.0592C12.8445 4.00034 13.0009 3.98493 13.1517 4.01494C13.3026 4.04496 13.4412 4.11903 13.55 4.22781C13.6587 4.33658 13.7328 4.47517 13.7628 4.62604C13.7928 4.77691 13.7774 4.9333 13.7186 5.07542C13.6597 5.21754 13.56 5.33901 13.4321 5.42448C13.3042 5.50994 13.1538 5.55555 13 5.55555C12.7937 5.55555 12.5959 5.47361 12.45 5.32775C12.3042 5.18189 12.2222 4.98406 12.2222 4.77778ZM14.8333 6.44278C14.6173 6.16799 14.3419 5.9456 14.0278 5.79222C14.228 5.5895 14.3637 5.3321 14.418 5.0524C14.4723 4.77271 14.4426 4.48321 14.3327 4.22033C14.2229 3.95745 14.0377 3.73293 13.8006 3.57502C13.5635 3.4171 13.2849 3.33284 13 3.33284C12.7151 3.33284 12.4365 3.4171 12.1994 3.57502C11.9623 3.73293 11.7771 3.95745 11.6673 4.22033C11.5574 4.48321 11.5277 4.77271 11.582 5.0524C11.6363 5.3321 11.772 5.5895 11.9722 5.79222C11.6581 5.9456 11.3827 6.16799 11.1667 6.44278C10.8953 6.09876 10.7263 5.68529 10.6789 5.24969C10.6316 4.81408 10.7079 4.37396 10.899 3.97969C11.0902 3.58542 11.3885 3.25294 11.7598 3.02031C12.1311 2.78768 12.5604 2.66431 12.9986 2.66431C13.4368 2.66431 13.8661 2.78768 14.2374 3.02031C14.6087 3.25294 14.907 3.58542 15.0982 3.97969C15.2893 4.37396 15.3656 4.81408 15.3183 5.24969C15.271 5.68529 15.1019 6.09876 14.8306 6.44278H14.8333Z" fill="#383838"/>
<path d="M5 9C4.40666 9 3.82664 9.17595 3.33329 9.50559C2.83994 9.83524 2.45543 10.3038 2.22836 10.8519C2.0013 11.4001 1.94189 12.0033 2.05765 12.5853C2.1734 13.1672 2.45912 13.7018 2.87868 14.1213C3.29824 14.5409 3.83279 14.8266 4.41473 14.9424C4.99667 15.0581 5.59987 14.9987 6.14805 14.7716C6.69623 14.5446 7.16476 14.1601 7.49441 13.6667C7.82405 13.1734 8 12.5933 8 12C7.99912 11.2046 7.68276 10.4421 7.12035 9.87965C6.55793 9.31724 5.79538 9.00088 5 9ZM3.65472 13.9047C3.80947 13.6931 4.01193 13.521 4.24568 13.4024C4.47943 13.2838 4.73787 13.2219 5 13.2219C5.26213 13.2219 5.52057 13.2838 5.75432 13.4024C5.98807 13.521 6.19053 13.6931 6.34528 13.9047C5.9521 14.1836 5.48201 14.3333 5 14.3333C4.51799 14.3333 4.0479 14.1836 3.65472 13.9047ZM4.22222 11.7778C4.22222 11.6239 4.26784 11.4736 4.3533 11.3457C4.43877 11.2178 4.56024 11.1181 4.70236 11.0592C4.84448 11.0003 5.00086 10.9849 5.15174 11.0149C5.30261 11.045 5.4412 11.119 5.54997 11.2278C5.65875 11.3366 5.73282 11.4752 5.76283 11.626C5.79284 11.7769 5.77744 11.9333 5.71857 12.0754C5.65971 12.2175 5.56002 12.339 5.43211 12.4245C5.30421 12.5099 5.15383 12.5556 5 12.5556C4.79372 12.5556 4.59589 12.4736 4.45003 12.3277C4.30417 12.1819 4.22222 11.9841 4.22222 11.7778ZM6.83333 13.4428C6.61727 13.168 6.34189 12.9456 6.02778 12.7922C6.22797 12.5895 6.36374 12.3321 6.418 12.0524C6.47227 11.7727 6.44261 11.4832 6.33275 11.2203C6.22289 10.9575 6.03775 10.7329 5.8006 10.575C5.56346 10.4171 5.28491 10.3328 5 10.3328C4.71509 10.3328 4.43654 10.4171 4.1994 10.575C3.96226 10.7329 3.77711 10.9575 3.66725 11.2203C3.5574 11.4832 3.52773 11.7727 3.582 12.0524C3.63626 12.3321 3.77203 12.5895 3.97222 12.7922C3.65811 12.9456 3.38273 13.168 3.16667 13.4428C2.89529 13.0988 2.72626 12.6853 2.67893 12.2497C2.6316 11.8141 2.70788 11.374 2.89904 10.9797C3.09019 10.5854 3.3885 10.2529 3.75982 10.0203C4.13113 9.78768 4.56045 9.66431 4.99861 9.66431C5.43678 9.66431 5.86609 9.78768 6.23741 10.0203C6.60872 10.2529 6.90703 10.5854 7.09819 10.9797C7.28934 11.374 7.36562 11.8141 7.31829 12.2497C7.27096 12.6853 7.10193 13.0988 6.83056 13.4428H6.83333Z" fill="#383838"/>
<path d="M19 9C18.4067 9 17.8266 9.17595 17.3333 9.50559C16.8399 9.83524 16.4554 10.3038 16.2284 10.8519C16.0013 11.4001 15.9419 12.0033 16.0576 12.5853C16.1734 13.1672 16.4591 13.7018 16.8787 14.1213C17.2982 14.5409 17.8328 14.8266 18.4147 14.9424C18.9967 15.0581 19.5999 14.9987 20.1481 14.7716C20.6962 14.5446 21.1648 14.1601 21.4944 13.6667C21.8241 13.1734 22 12.5933 22 12C21.9991 11.2046 21.6828 10.4421 21.1203 9.87965C20.5579 9.31724 19.7954 9.00088 19 9ZM17.6547 13.9047C17.8095 13.6931 18.0119 13.521 18.2457 13.4024C18.4794 13.2838 18.7379 13.2219 19 13.2219C19.2621 13.2219 19.5206 13.2838 19.7543 13.4024C19.9881 13.521 20.1905 13.6931 20.3453 13.9047C19.9521 14.1836 19.482 14.3333 19 14.3333C18.518 14.3333 18.0479 14.1836 17.6547 13.9047ZM18.2222 11.7778C18.2222 11.6239 18.2678 11.4736 18.3533 11.3457C18.4388 11.2178 18.5602 11.1181 18.7024 11.0592C18.8445 11.0003 19.0009 10.9849 19.1517 11.0149C19.3026 11.045 19.4412 11.119 19.55 11.2278C19.6587 11.3366 19.7328 11.4752 19.7628 11.626C19.7928 11.7769 19.7774 11.9333 19.7186 12.0754C19.6597 12.2175 19.56 12.339 19.4321 12.4245C19.3042 12.5099 19.1538 12.5556 19 12.5556C18.7937 12.5556 18.5959 12.4736 18.45 12.3277C18.3042 12.1819 18.2222 11.9841 18.2222 11.7778ZM20.8333 13.4428C20.6173 13.168 20.3419 12.9456 20.0278 12.7922C20.228 12.5895 20.3637 12.3321 20.418 12.0524C20.4723 11.7727 20.4426 11.4832 20.3327 11.2203C20.2229 10.9575 20.0377 10.7329 19.8006 10.575C19.5635 10.4171 19.2849 10.3328 19 10.3328C18.7151 10.3328 18.4365 10.4171 18.1994 10.575C17.9623 10.7329 17.7771 10.9575 17.6673 11.2203C17.5574 11.4832 17.5277 11.7727 17.582 12.0524C17.6363 12.3321 17.772 12.5895 17.9722 12.7922C17.6581 12.9456 17.3827 13.168 17.1667 13.4428C16.8953 13.0988 16.7263 12.6853 16.6789 12.2497C16.6316 11.8141 16.7079 11.374 16.899 10.9797C17.0902 10.5854 17.3885 10.2529 17.7598 10.0203C18.1311 9.78768 18.5604 9.66431 18.9986 9.66431C19.4368 9.66431 19.8661 9.78768 20.2374 10.0203C20.6087 10.2529 20.907 10.5854 21.0982 10.9797C21.2893 11.374 21.3656 11.8141 21.3183 12.2497C21.271 12.6853 21.1019 13.0988 20.8306 13.4428H20.8333Z" fill="#383838"/>
<path d="M13 16C12.4067 16 11.8266 16.1759 11.3333 16.5056C10.8399 16.8352 10.4554 17.3038 10.2284 17.8519C10.0013 18.4001 9.94189 19.0033 10.0576 19.5853C10.1734 20.1672 10.4591 20.7018 10.8787 21.1213C11.2982 21.5409 11.8328 21.8266 12.4147 21.9424C12.9967 22.0581 13.5999 21.9987 14.1481 21.7716C14.6962 21.5446 15.1648 21.1601 15.4944 20.6667C15.8241 20.1734 16 19.5933 16 19C15.9991 18.2046 15.6828 17.4421 15.1203 16.8797C14.5579 16.3172 13.7954 16.0009 13 16ZM11.6547 20.9047C11.8095 20.6931 12.0119 20.521 12.2457 20.4024C12.4794 20.2838 12.7379 20.2219 13 20.2219C13.2621 20.2219 13.5206 20.2838 13.7543 20.4024C13.9881 20.521 14.1905 20.6931 14.3453 20.9047C13.9521 21.1835 13.482 21.3333 13 21.3333C12.518 21.3333 12.0479 21.1835 11.6547 20.9047ZM12.2222 18.7778C12.2222 18.6239 12.2678 18.4736 12.3533 18.3457C12.4388 18.2178 12.5602 18.1181 12.7024 18.0592C12.8445 18.0003 13.0009 17.9849 13.1517 18.0149C13.3026 18.045 13.4412 18.119 13.55 18.2278C13.6587 18.3366 13.7328 18.4752 13.7628 18.626C13.7928 18.7769 13.7774 18.9333 13.7186 19.0754C13.6597 19.2175 13.56 19.339 13.4321 19.4245C13.3042 19.5099 13.1538 19.5556 13 19.5556C12.7937 19.5556 12.5959 19.4736 12.45 19.3277C12.3042 19.1819 12.2222 18.9841 12.2222 18.7778ZM14.8333 20.4428C14.6173 20.168 14.3419 19.9456 14.0278 19.7922C14.228 19.5895 14.3637 19.3321 14.418 19.0524C14.4723 18.7727 14.4426 18.4832 14.3327 18.2203C14.2229 17.9575 14.0377 17.7329 13.8006 17.575C13.5635 17.4171 13.2849 17.3328 13 17.3328C12.7151 17.3328 12.4365 17.4171 12.1994 17.575C11.9623 17.7329 11.7771 17.9575 11.6673 18.2203C11.5574 18.4832 11.5277 18.7727 11.582 19.0524C11.6363 19.3321 11.772 19.5895 11.9722 19.7922C11.6581 19.9456 11.3827 20.168 11.1667 20.4428C10.8953 20.0988 10.7263 19.6853 10.6789 19.2497C10.6316 18.8141 10.7079 18.374 10.899 17.9797C11.0902 17.5854 11.3885 17.2529 11.7598 17.0203C12.1311 16.7877 12.5604 16.6643 12.9986 16.6643C13.4368 16.6643 13.8661 16.7877 14.2374 17.0203C14.6087 17.2529 14.907 17.5854 15.0982 17.9797C15.2893 18.374 15.3656 18.8141 15.3183 19.2497C15.271 19.6853 15.1019 20.0988 14.8306 20.4428H14.8333Z" fill="#383838"/>
<path fill-rule="evenodd" clip-rule="evenodd" d="M6.68045 9.61545L10.5693 6.38376L11.2085 7.15286L7.31958 10.3846L6.68045 9.61545Z" fill="#383838"/>
<path fill-rule="evenodd" clip-rule="evenodd" d="M14.4232 16.3859L17.1454 13.6475L17.8546 14.3525L15.1324 17.0909L14.4232 16.3859Z" fill="#383838"/>
<path fill-rule="evenodd" clip-rule="evenodd" d="M16.1402 12.6345H7.7865V11.6345H16.1402V12.6345Z" fill="#383838"/>
</svg>
