<svg xmlns="http://www.w3.org/2000/svg" fill="#4E4E4E" viewBox="0 0 24 24">
  <path d="M17.834 4.1a.915.915 0 0 1 1.295 0l2.106 2.105.007.006c.336.343.523.803.523 1.283l-.009.179c-.04.413-.221.804-.515 1.103l-1.929 1.929-.006.007v-.001a1.83 1.83 0 0 1-2.564 0l-2.113-2.112a.915.915 0 1 1 1.295-1.295l2.1 2.1 1.91-1.91-2.1-2.1a.915.915 0 0 1 0-1.295Z"/>
  <path d="M19.665 2.268a.916.916 0 0 1 1.295 1.295l-8.79 8.79a.916.916 0 0 1-1.295-1.295l8.79-8.79Z"/>
  <path d="M12.072 15.277a4.12 4.12 0 1 0-8.24 0 4.12 4.12 0 0 0 8.24 0Zm1.831 0a5.952 5.952 0 1 1-11.903 0 5.952 5.952 0 0 1 11.903 0Z"/>
</svg>
