<svg xmlns="http://www.w3.org/2000/svg" fill="#4E4E4E" viewBox="0 0 24 24">
  <path d="M18.383 6.495c-2.085 0-4.521-1.202-6.193-2.661a.153.153 0 0 0-.199 0c-1.663 1.45-4.108 2.66-6.193 2.66v6.293l.008.37c.08 1.821.753 3.171 1.777 4.22 1.118 1.145 2.695 1.973 4.504 2.597.006.003.014.004.02.006 1.803-.629 3.375-1.456 4.49-2.6 1.093-1.122 1.786-2.583 1.786-4.593V6.495Zm1.798 6.292c0 2.485-.88 4.395-2.296 5.848-1.39 1.427-3.26 2.373-5.193 3.047l-.007.002a1.8 1.8 0 0 1-1.184-.011l-.016-.005-.005-.001c-1.932-.67-3.795-1.612-5.183-3.033-1.328-1.36-2.184-3.125-2.286-5.387L4 12.787V6.495a1.799 1.799 0 0 1 1.798-1.798l.289-.01c1.471-.11 3.355-1.013 4.729-2.213l.008-.006a1.95 1.95 0 0 1 2.533 0l.008.006c1.474 1.289 3.51 2.223 5.018 2.223a1.798 1.798 0 0 1 1.798 1.798v6.292Z"/>
  <path d="M14.152 9.455a.899.899 0 1 1 1.27 1.271l-3.595 3.596a.899.899 0 0 1-1.271 0l-1.798-1.798a.899.899 0 1 1 1.271-1.27l1.162 1.161 2.96-2.96Z"/>
</svg>
