<svg xmlns="http://www.w3.org/2000/svg" fill="none" viewBox="0 0 24 25">
  <path fill="#4E4E4E" fill-rule="evenodd" d="M17.546 3.918a1.818 1.818 0 1 0 0 3.637 1.818 1.818 0 0 0 0-3.637Zm-2.584 4.377a3.636 3.636 0 1 0-.917-1.57L9.22 9.541a3.636 3.636 0 1 0 0 5.118l4.826 2.812a3.636 3.636 0 1 0 .918-1.57l-4.827-2.812a3.638 3.638 0 0 0 0-1.978l4.825-2.816ZM8.18 11.14a.917.917 0 0 0 .052.09 1.81 1.81 0 0 1-.052 1.83 1.817 1.817 0 0 1-3.363-.96 1.818 1.818 0 0 1 3.363-.96Zm7.546 7.324c0-.296.07-.575.196-.822a.913.913 0 0 0 .11-.189 1.818 1.818 0 1 1-.307 1.01Z" clip-rule="evenodd"/>
</svg>
