<svg xmlns="http://www.w3.org/2000/svg" fill="none" viewBox="0 0 24 24">
  <path fill="#383838" fill-rule="evenodd" d="M18 2.5a2.5 2.5 0 1 0 0 5 2.5 2.5 0 0 0 0-5Zm-2.741 4.677a3.5 3.5 0 1 0-.504-.864L8.74 9.823a3.5 3.5 0 1 0 0 4.354l6.016 3.505a3.5 3.5 0 1 0 .506-.863l-6.018-3.506A3.49 3.49 0 0 0 9.5 12c0-.465-.09-.908-.255-1.314l6.014-3.51Zm-7.122 3.525a.5.5 0 0 0 .045.078 2.493 2.493 0 0 1 .002 2.438.501.501 0 0 0-.048.081 2.5 2.5 0 1 1 0-2.597ZM15.5 19c0-.427.107-.829.296-1.18a.497.497 0 0 0 .095-.163A2.5 2.5 0 1 1 15.5 19Z" clip-rule="evenodd"/>
</svg>
