<svg xmlns="http://www.w3.org/2000/svg" fill="none" viewBox="0 0 24 24">
  <path fill="#4E4E4E" fill-rule="evenodd" d="M12.082 3.853c-1.68 1.467-4.154 2.692-6.264 2.692v6.363c0 2.032.7 3.51 1.806 4.641 1.13 1.158 2.724 1.994 4.553 2.626l.02.007c1.823-.636 3.413-1.474 4.54-2.631 1.106-1.133 1.806-2.61 1.806-4.643V6.545c-2.109 0-4.573-1.216-6.264-2.692a.154.154 0 0 0-.197 0ZM10.9 2.473a1.973 1.973 0 0 1 2.563 0l.008.007c1.49 1.302 3.549 2.247 5.073 2.247a1.818 1.818 0 0 1 1.818 1.818v6.363c0 2.512-.89 4.443-2.321 5.912-1.407 1.443-3.296 2.4-5.251 3.081l-.008.003a1.817 1.817 0 0 1-1.206-.014c-1.958-.677-3.846-1.63-5.252-3.07C4.89 17.351 4 15.42 4 12.907V6.545a1.818 1.818 0 0 1 1.818-1.818c1.524 0 3.592-.953 5.074-2.248l.007-.006Z" clip-rule="evenodd"/>
  <path fill="#4E4E4E" fill-rule="evenodd" d="M15.55 9.538a.909.909 0 0 1 0 1.286l-3.636 3.636a.909.909 0 0 1-1.285 0L8.81 12.642a.909.909 0 1 1 1.285-1.286l1.176 1.175 2.993-2.993a.909.909 0 0 1 1.285 0Z" clip-rule="evenodd"/>
</svg>
