<svg xmlns="http://www.w3.org/2000/svg" fill="none" viewBox="0 0 24 24">
  <path fill="#383838" fill-rule="evenodd" d="M12 2.5A4.5 4.5 0 0 0 7.5 7v3.5h9V7A4.5 4.5 0 0 0 12 2.5ZM6.5 7v3.5H5A2.5 2.5 0 0 0 2.5 13v7A2.5 2.5 0 0 0 5 22.5h14a2.5 2.5 0 0 0 2.5-2.5v-7a2.5 2.5 0 0 0-2.5-2.5h-1.5V7a5.5 5.5 0 0 0-11 0ZM5 11.5h14a1.5 1.5 0 0 1 1.5 1.5v7a1.5 1.5 0 0 1-1.5 1.5H5A1.5 1.5 0 0 1 3.5 20v-7A1.5 1.5 0 0 1 5 11.5Zm2.143 7.124v.54h2.829v-.625H8.175v-.028l.71-.724c.268-.258.476-.477.624-.658.149-.182.253-.347.312-.496.059-.15.088-.3.088-.455 0-.231-.058-.437-.175-.617a1.189 1.189 0 0 0-.487-.425 1.629 1.629 0 0 0-.73-.155c-.272 0-.514.053-.725.159a1.21 1.21 0 0 0-.494.45c-.12.193-.179.42-.179.682h.711c0-.14.028-.262.083-.364a.583.583 0 0 1 .238-.236.726.726 0 0 1 .356-.085c.132 0 .25.026.353.077a.589.589 0 0 1 .244.218.607.607 0 0 1 .088.334.772.772 0 0 1-.068.322 1.355 1.355 0 0 1-.206.313 6.64 6.64 0 0 1-.342.368l-1.433 1.405Zm3.905-3.587v4.126h.747v-1.752h1.715v-.627h-1.715v-1.12h1.896v-.627h-2.643Zm2.881 4.126h.798l.341-1.017h1.552l.341 1.017h.798l-1.454-4.126h-.923l-1.453 4.126Zm2.489-1.617-.559-1.662h-.032l-.557 1.662h1.148Z" clip-rule="evenodd"/>
</svg>
