<svg xmlns="http://www.w3.org/2000/svg" fill="none" viewBox="0 0 24 24">
  <path fill="#4E4E4E" fill-rule="evenodd" d="M2.799 3.799A2.727 2.727 0 0 1 4.727 3h14.546A2.727 2.727 0 0 1 22 5.727v6.363a.91.91 0 1 1-1.818 0V8.292l-6.763 4.297a2.673 2.673 0 0 1-2.838 0l-.005-.003-6.758-4.294v8.345c0 .498.411.91.91.91H12a.91.91 0 1 1 0 1.817H4.727A2.733 2.733 0 0 1 2 16.636V5.727c0-.723.287-1.417.799-1.928Zm17.383 1.928v.41l-7.728 4.91-.002.002a.855.855 0 0 1-.904 0l-7.73-4.912v-.41a.91.91 0 0 1 .91-.909h14.545a.91.91 0 0 1 .909.91Zm1.552 10.643a.91.91 0 0 0-1.286-1.286l-2.994 2.994-1.175-1.175a.91.91 0 0 0-1.286 1.285l1.819 1.818a.91.91 0 0 0 1.285 0l3.637-3.636Z" clip-rule="evenodd"/>
</svg>
