<svg xmlns="http://www.w3.org/2000/svg" fill="none" viewBox="0 0 24 24">
  <path fill="#383838" fill-rule="evenodd" d="M5.031 2v9.135l6.971 5.28 7.284-5.44V2H5.031Zm-.047-1a.952.952 0 0 0-.953.952v5.215A.505.505 0 0 0 4 7.166c-1.321 0-2.5.976-2.5 2.286v10.714c0 1.31 1.179 2.286 2.5 2.286h16c1.321 0 2.5-.976 2.5-2.286V9.452c0-1.215-1.013-2.142-2.214-2.27v-5.23A.952.952 0 0 0 19.334 1H4.984ZM4 8.166h.031v2.325l-1.524-1.16c.071-.61.669-1.165 1.493-1.165ZM21.493 9.33l-1.207.92V8.19c.674.11 1.144.604 1.207 1.14ZM2.5 10.582v9.584c0 .654.621 1.286 1.5 1.286h16c.879 0 1.5-.632 1.5-1.286v-9.584l-9.197 7.007a.5.5 0 0 1-.606 0L2.5 10.582Zm6.407-1.484a1.19 1.19 0 1 0 0-2.381 1.19 1.19 0 0 0 0 2.38Zm4.52-1.19a1.19 1.19 0 1 1-2.38 0 1.19 1.19 0 0 1 2.38 0Zm2.146 1.19a1.19 1.19 0 1 0 0-2.381 1.19 1.19 0 0 0 0 2.38Z" clip-rule="evenodd"/>
</svg>
