<svg xmlns="http://www.w3.org/2000/svg" fill="none" viewBox="0 0 24 24">
  <path fill="#4E4E4E" fill-rule="evenodd" d="M4.293 4.293A1 1 0 0 1 5 4h14a1 1 0 0 1 1 1v10a1 1 0 0 1-1 1H7a1 1 0 0 0-.707.293L4 18.586V5a1 1 0 0 1 .293-.707ZM5 2a3 3 0 0 0-3 3v16a1 1 0 0 0 1.707.707L7.414 18H19a3 3 0 0 0 3-3V5a3 3 0 0 0-3-3H5Zm4.199 10.076H7.631v-3.99H6.434V13h2.765v-.924Zm.655-3.57a.747.747 0 0 0 .518.182.71.71 0 0 0 .504-.182.607.607 0 0 0 .203-.462.593.593 0 0 0-.203-.462.696.696 0 0 0-.504-.189.73.73 0 0 0-.518.189.603.603 0 0 0-.196.462c0 .182.065.336.196.462ZM10.967 13V9.094H9.77V13h1.197Zm3.044 0v-1.015h-.427c-.13 0-.224-.026-.28-.077-.056-.051-.084-.135-.084-.252v-1.568h.784v-.994h-.784v-.952h-1.197v.952h-.476v.994h.476v1.554c0 .48.122.828.364 1.043.243.21.581.315 1.015.315h.61Zm4.328-1.666c.014-.121.021-.238.021-.35 0-.392-.084-.735-.252-1.029a1.686 1.686 0 0 0-.686-.679 2.089 2.089 0 0 0-1.008-.238c-.387 0-.73.082-1.029.245a1.743 1.743 0 0 0-.7.7 2.211 2.211 0 0 0-.245 1.064c0 .406.084.76.252 1.064.168.303.402.537.7.7.299.163.64.245 1.022.245.317 0 .604-.058.861-.175.257-.117.47-.278.637-.483.173-.205.292-.436.357-.693h-1.274c-.117.252-.324.378-.623.378a.737.737 0 0 1-.51-.189c-.136-.13-.213-.317-.232-.56h2.71Zm-1.414-1.155c.14.121.21.285.21.49h-1.498a.785.785 0 0 1 .252-.497.772.772 0 0 1 .511-.175c.21 0 .385.06.525.182Z" clip-rule="evenodd"/>
</svg>
