<svg xmlns="http://www.w3.org/2000/svg" fill="none" viewBox="0 0 24 24">
  <path fill="#383838" fill-rule="evenodd" d="M3.433 3.433a1.64 1.64 0 0 1 1.16-.48h14.814a1.64 1.64 0 0 1 1.64 1.64v10.582a1.64 1.64 0 0 1-1.64 1.64H6.71a.476.476 0 0 0-.337.14l-3.42 3.42V4.592c0-.435.173-.853.48-1.16ZM4.593 2A2.593 2.593 0 0 0 2 4.593v16.93a.476.476 0 0 0 .813.337l4.093-4.093h12.501A2.593 2.593 0 0 0 22 15.175V4.593A2.592 2.592 0 0 0 19.407 2H4.593Zm.512 10.952h3.68v-1.129H6.497v-5.05H5.105v6.18ZM9.612 7.64a.8.8 0 0 0 .565.202c.233 0 .42-.066.565-.198a.654.654 0 0 0 .22-.509.636.636 0 0 0-.22-.5c-.144-.129-.332-.194-.565-.194a.822.822 0 0 0-.565.194.636.636 0 0 0-.22.5c0 .199.074.367.22.505Zm-.125 5.313h1.362V8.54H9.487v4.413Zm4.267.108c.405 0 .708-.053.91-.16v-1.008a.923.923 0 0 1-.444.125c-.365 0-.548-.23-.548-.69V9.544h.991V8.54h-.99V7.2l-1.358.388v.952h-.716v1.004h.716v2.022c0 .997.48 1.495 1.439 1.495Zm2.732-1.926h2.88v-.574c0-.655-.177-1.173-.53-1.555-.351-.382-.848-.573-1.492-.573-.62 0-1.143.214-1.569.642-.425.428-.638 1.008-.638 1.74 0 .708.197 1.26.59 1.656.395.393.947.59 1.66.59.652 0 1.182-.11 1.59-.327v-.983c-.367.23-.794.345-1.28.345-.761 0-1.165-.32-1.21-.961Zm.85-1.784c.51 0 .767.316.767.948h-1.625c.034-.27.13-.496.288-.677a.739.739 0 0 1 .57-.271Z" clip-rule="evenodd"/>
</svg>
