<svg xmlns="http://www.w3.org/2000/svg" fill="none" viewBox="0 0 24 24">
  <path fill="#4E4E4E" fill-rule="evenodd" d="M10.696 4.244a3.686 3.686 0 1 0 0 7.373 3.686 3.686 0 0 0 0-7.373ZM5.166 7.93a5.53 5.53 0 1 1 8.617 4.589.922.922 0 0 1-1.125 1.247 6.451 6.451 0 0 0-8.413 6.145.922.922 0 0 1-1.844 0 8.295 8.295 0 0 1 4.94-7.585A5.52 5.52 0 0 1 5.165 7.93Zm11.06 9.217a1.843 1.843 0 1 1 3.686 0 1.843 1.843 0 0 1-3.686 0Zm-1.812-.483a3.72 3.72 0 0 0 0 .965l-.129.057a.922.922 0 1 0 .749 1.685l.071-.032c.218.294.478.554.771.772l-.032.072a.922.922 0 0 0 1.685.749l.057-.13a3.729 3.729 0 0 0 .965 0l.058.13a.922.922 0 0 0 1.684-.749l-.032-.072a3.71 3.71 0 0 0 .772-.772l.072.032a.922.922 0 1 0 .749-1.684l-.13-.058a3.724 3.724 0 0 0 0-.965l.13-.058a.922.922 0 0 0-.749-1.684l-.072.032a3.709 3.709 0 0 0-.772-.771l.032-.071a.922.922 0 0 0-1.684-.749l-.057.129a3.715 3.715 0 0 0-.966 0l-.057-.129a.922.922 0 0 0-1.685.749l.032.071a3.71 3.71 0 0 0-.77.77l-.072-.031a.922.922 0 1 0-.749 1.684l.129.057Z" clip-rule="evenodd"/>
</svg>
