<svg xmlns="http://www.w3.org/2000/svg" fill="none" viewBox="0 0 24 24">
  <path fill="#383838" stroke="#383838" d="m9.224 18.553-.106-.053H5c-1.424 0-2.5-1.076-2.5-2.5V5c0-1.424 1.076-2.5 2.5-2.5h14c1.424 0 2.5 1.076 2.5 2.5v11c0 1.424-1.076 2.5-2.5 2.5h-5.694l.22.658.618 1.855-4.92-2.46Zm7.67-8.07.001-.014.002-.014c.191-1.72.566-2.942.926-3.681a.905.905 0 0 0 .16-.416C18 6.235 18 6.104 18 6.013V6c0-.38-.192-.699-.446-.954l-.058-.057-.072-.036c-.229-.114-.61-.253-.924-.253-.575 0-.905.407-1.116.723l-.017.026-.014.027c-.448.896-.831 2.179-1.124 3.801a46.827 46.827 0 0 1-.338-1.471c-.06-.356-.19-.688-.437-.935-.26-.26-.597-.371-.954-.371-.293 0-.559.077-.787.26-.209.166-.347.392-.457.61l-1.784 3.345a46.398 46.398 0 0 1-.772-4.35c-.008-.407-.156-.754-.458-.986-.286-.22-.638-.279-.942-.279h-.081l-.077.026-.015.005c-.14.046-.318.106-.476.184a1.12 1.12 0 0 0-.454.384c-.299.335-.298.7-.297.965v.073l.006.037c.6 4 1.205 6.844 1.723 8.294l.017.047.025.042c.154.256.31.486.495.652.206.186.448.291.734.291h.062l.06-.015c.347-.087.68-.353.978-.692.309-.35.63-.836.941-1.457.293-.514.637-1.183 1.066-2.034.56 1.517 1.268 2.78 2.14 3.652.392.392.819.546 1.253.546.555 0 .896-.375 1.047-.676.154-.308.154-.617.153-.881v-.068l-.003-.025c-.093-.932-.002-2.18.296-3.968Z"/>
</svg>
