<svg xmlns="http://www.w3.org/2000/svg" fill="none" viewBox="0 0 24 24">
  <path fill="#383838" stroke="#383838" stroke-width="1.25" d="m9.28 18.441-.132-.066H5c-1.355 0-2.375-1.02-2.375-2.375V5c0-1.355 1.02-2.375 2.375-2.375h14c1.355 0 2.375 1.02 2.375 2.375v11c0 1.355-1.02 2.375-2.375 2.375h-5.867l.274.823.523 1.568-4.65-2.325Zm.24-8.082a46.828 46.828 0 0 1-.696-4.004c-.01-.433-.17-.817-.505-1.075-.317-.244-.702-.305-1.019-.305h-.101l-.097.032-.017.006a3.78 3.78 0 0 0-.49.19 1.249 1.249 0 0 0-.498.42c-.324.37-.323.773-.322 1.037v.087l.007.046c.6 4 1.207 6.854 1.73 8.317l.02.059.032.053c.154.257.319.501.518.68.227.205.498.323.818.323h.077l.075-.019c.384-.096.738-.385 1.042-.73.317-.36.643-.854.957-1.48.265-.465.57-1.053.94-1.784.548 1.41 1.23 2.594 2.067 3.43.416.416.874.583 1.342.583.618 0 .995-.418 1.159-.746.168-.335.167-.671.166-.932v-.078l-.003-.031c-.092-.916-.003-2.15.294-3.935l.003-.017.002-.017c.19-1.701.559-2.906.91-3.63.122-.17.16-.354.175-.463.02-.133.02-.272.019-.361V6c0-.424-.215-.774-.483-1.042l-.072-.072-.09-.045c-.236-.118-.638-.266-.98-.266-.643 0-1.007.458-1.22.778l-.022.033-.017.034c-.4.801-.748 1.901-1.026 3.265-.067-.29-.134-.591-.201-.903-.064-.37-.201-.728-.472-.999-.288-.288-.658-.408-1.042-.408-.316 0-.611.084-.865.287-.23.183-.378.428-.49.65L9.52 10.36Z"/>
</svg>
