<svg xmlns="http://www.w3.org/2000/svg" fill="none" viewBox="0 0 24 25">
  <path fill="#4E4E4E" stroke="#4E4E4E" d="m9.224 19.453-.106-.053H5c-1.424 0-2.5-1.076-2.5-2.5v-11c0-1.424 1.076-2.5 2.5-2.5h14c1.424 0 2.5 1.076 2.5 2.5v11c0 1.424-1.076 2.5-2.5 2.5h-5.694l.22.658.618 1.855-4.92-2.46Zm7.67-8.07.001-.014.002-.014c.191-1.72.566-2.942.926-3.681a.905.905 0 0 0 .16-.416C18 7.135 18 7.004 18 6.913V6.9c0-.38-.192-.7-.446-.954l-.058-.057-.072-.036c-.229-.114-.61-.253-.924-.253-.575 0-.905.407-1.116.723l-.017.025-.014.028c-.448.896-.831 2.179-1.124 3.801a46.834 46.834 0 0 1-.338-1.471c-.06-.356-.19-.688-.437-.935-.26-.26-.597-.371-.954-.371-.293 0-.559.077-.787.26-.209.166-.347.392-.457.61l-1.784 3.345a46.396 46.396 0 0 1-.772-4.35c-.008-.407-.156-.755-.458-.986-.286-.22-.638-.28-.942-.28h-.081l-.077.027-.015.005c-.14.046-.318.106-.476.184a1.12 1.12 0 0 0-.454.384c-.299.334-.298.7-.297.965v.073l.006.037c.6 4 1.205 6.844 1.723 8.294l.017.047.025.042c.154.256.31.486.495.652.206.186.448.29.734.29h.062l.06-.014c.347-.087.68-.354.978-.692.309-.351.63-.836.941-1.457.293-.514.637-1.183 1.066-2.034.56 1.517 1.268 2.78 2.14 3.651.392.393.819.547 1.253.547.555 0 .896-.375 1.047-.677.154-.307.154-.616.153-.88v-.068l-.003-.025c-.093-.933-.002-2.18.296-3.968Z"/>
</svg>
