<svg xmlns="http://www.w3.org/2000/svg" fill="none" viewBox="0 0 24 24">
  <path fill="#475BB2" fill-rule="evenodd" d="M7.5 2c-.716 0-1.403.287-1.91.799a2.741 2.741 0 0 0-.79 1.928v.91c0 .501.403.908.9.908s.9-.407.9-.909v-.909c0-.24.095-.472.264-.643a.895.895 0 0 1 .636-.266h6.3v2.727c0 .724.284 1.417.79 1.929a2.686 2.686 0 0 0 1.91.799h2.7v10a.914.914 0 0 1-.264.643.896.896 0 0 1-.636.266H5.7c-.497 0-.9.407-.9.909s.403.909.9.909h12.6c.716 0 1.403-.287 1.91-.799.505-.511.79-1.205.79-1.928V7.455a.914.914 0 0 0-.264-.643l-4.5-4.546A.895.895 0 0 0 15.6 2H7.5Zm8.1 2.195v2.35c0 .242.095.473.264.643.168.17.397.267.636.267h2.327L15.6 4.195Z" clip-rule="evenodd"/>
  <path fill="#475BB2" fill-rule="evenodd" d="M3 13.818A1.81 1.81 0 0 1 4.8 12v-.91c0-.722.284-1.416.79-1.928a2.686 2.686 0 0 1 1.91-.798 2.69 2.69 0 0 1 1.91.798c.506.512.79 1.206.79 1.929V12c.994 0 1.8.814 1.8 1.818v2.728a1.81 1.81 0 0 1-1.8 1.818H4.8A1.81 1.81 0 0 1 3 16.545v-2.727ZM8.4 12v-.91a.914.914 0 0 0-.264-.642.895.895 0 0 0-1.272 0 .914.914 0 0 0-.264.643V12h1.8Zm1.8 1.818v2.728H4.8v-2.728h5.4Z" clip-rule="evenodd"/>
</svg>
