<svg xmlns="http://www.w3.org/2000/svg" fill="none" viewBox="0 0 24 24">
  <path fill="#475BB2" d="M8.545 9.273a.91.91 0 1 0 0 1.818h7.273a.91.91 0 1 0 0-1.818H8.545Zm-.909 4.545a.91.91 0 0 1 .91-.909h7.272a.91.91 0 1 1 0 1.818H8.545a.91.91 0 0 1-.909-.909Zm.909 2.728a.91.91 0 1 0 0 1.818h1.819a.91.91 0 1 0 0-1.819H8.545Z"/>
  <path fill="#475BB2" fill-rule="evenodd" d="M7.636 3.818C7.636 2.814 8.45 2 9.455 2h5.454c1.004 0 1.818.814 1.818 1.818h.91a2.727 2.727 0 0 1 2.727 2.727v12.728A2.727 2.727 0 0 1 17.636 22H6.727A2.727 2.727 0 0 1 4 19.273V6.545a2.727 2.727 0 0 1 2.727-2.727h.91Zm7.273 3.637a1.818 1.818 0 0 0 1.818-1.819h.91a.91.91 0 0 1 .909.91v12.727a.91.91 0 0 1-.91.909H6.727a.91.91 0 0 1-.909-.91V6.546a.91.91 0 0 1 .91-.909h.908c0 1.005.814 1.819 1.819 1.819h5.454ZM9.455 5.636V3.818h5.454v1.818H9.455Z" clip-rule="evenodd"/>
</svg>
