<svg width="24" height="24" viewBox="0 0 24 24" fill="none" xmlns="http://www.w3.org/2000/svg">
<path fill-rule="evenodd" clip-rule="evenodd" d="M11.9934 6.54785C12.3524 6.54785 12.6434 6.83887 12.6434 7.19785V16.5249C12.6434 16.8839 12.3524 17.1749 11.9934 17.1749C11.6344 17.1749 11.3434 16.8839 11.3434 16.5249V7.19785C11.3434 6.83887 11.6344 6.54785 11.9934 6.54785Z" fill="#475BB2"/>
<path fill-rule="evenodd" clip-rule="evenodd" d="M9.21361 8.61535C9.64161 8.18735 10.2221 7.9469 10.8274 7.9469H14.3251C14.684 7.9469 14.9751 8.23791 14.9751 8.5969C14.9751 8.95588 14.684 9.2469 14.3251 9.2469H10.8274C10.5669 9.2469 10.3171 9.35039 10.1328 9.53459C9.94864 9.7188 9.84516 9.96863 9.84516 10.2291C9.84516 10.4896 9.94864 10.7395 10.1328 10.9237C10.3171 11.1079 10.5669 11.2114 10.8274 11.2114H13.1592C13.7645 11.2114 14.345 11.4518 14.773 11.8798C15.201 12.3078 15.4414 12.8883 15.4414 13.4936C15.4414 14.0989 15.201 14.6794 14.773 15.1074C14.345 15.5354 13.7645 15.7759 13.1592 15.7759H9.19516C8.83617 15.7759 8.54516 15.4849 8.54516 15.1259C8.54516 14.7669 8.83617 14.4759 9.19516 14.4759H13.1592C13.4197 14.4759 13.6695 14.3724 13.8537 14.1882C14.0379 14.004 14.1414 13.7541 14.1414 13.4936C14.1414 13.2331 14.0379 12.9833 13.8537 12.7991C13.6695 12.6149 13.4197 12.5114 13.1592 12.5114H10.8274C10.2221 12.5114 9.64161 12.2709 9.21361 11.8429C8.78561 11.4149 8.54516 10.8344 8.54516 10.2291C8.54516 9.62385 8.78561 9.04336 9.21361 8.61535Z" fill="#475BB2"/>
<path fill-rule="evenodd" clip-rule="evenodd" d="M8.52902 4.64998C7.88138 4.64998 7.44684 5.12283 7.44684 5.59891V18.3903C7.44684 18.8664 7.88138 19.3393 8.52902 19.3393H15.4577C16.1053 19.3393 16.5399 18.8664 16.5399 18.3903V5.59891C16.5399 5.12283 16.1053 4.64998 15.4577 4.64998H8.52902ZM6.14684 5.59891C6.14684 4.30885 7.26334 3.34998 8.52902 3.34998H15.4577C16.7234 3.34998 17.8399 4.30885 17.8399 5.59891V18.3903C17.8399 19.6804 16.7234 20.6393 15.4577 20.6393H8.52902C7.26334 20.6393 6.14684 19.6804 6.14684 18.3903V5.59891Z" fill="#475BB2"/>
<path fill-rule="evenodd" clip-rule="evenodd" d="M16.7663 5.59885C16.7663 5.23987 17.0574 4.94885 17.4163 4.94885H20.5343C21.6086 4.94885 22.57 5.76455 22.57 6.878V17.1112C22.57 18.2246 21.6086 19.0403 20.5343 19.0403H17.4163C17.0574 19.0403 16.7663 18.7493 16.7663 18.3903C16.7663 18.0313 17.0574 17.7403 17.4163 17.7403H20.5343C20.9906 17.7403 21.27 17.4106 21.27 17.1112V6.878C21.27 6.57854 20.9906 6.24885 20.5343 6.24885H17.4163C17.0574 6.24885 16.7663 5.95784 16.7663 5.59885Z" fill="#475BB2"/>
<path fill-rule="evenodd" clip-rule="evenodd" d="M7.15363 5.59885C7.15363 5.23987 6.86261 4.94885 6.50363 4.94885H3.38572C2.31137 4.94885 1.34998 5.76455 1.34998 6.878V17.1112C1.34998 18.2246 2.31137 19.0403 3.38572 19.0403H6.36589C6.72488 19.0403 7.01589 18.7493 7.01589 18.3903C7.01589 18.0313 6.72488 17.7403 6.36589 17.7403H3.38572C2.92941 17.7403 2.64998 17.4106 2.64998 17.1112V6.878C2.64998 6.57854 2.92941 6.24885 3.38572 6.24885H6.50363C6.86261 6.24885 7.15363 5.95784 7.15363 5.59885Z" fill="#475BB2"/>
</svg>
