<svg width="24" height="24" viewBox="0 0 24 24" fill="none" xmlns="http://www.w3.org/2000/svg">
<path fill-rule="evenodd" clip-rule="evenodd" d="M15.1404 15.1464C15.3942 14.8926 15.8058 14.8926 16.0596 15.1464C16.2972 15.3841 16.4857 15.6662 16.6144 15.9767C16.743 16.2872 16.8092 16.62 16.8092 16.9561C16.8092 17.2921 16.743 17.6249 16.6144 17.9354C16.4857 18.2459 16.2972 18.528 16.0596 18.7657C15.822 19.0033 15.5398 19.1918 15.2293 19.3204C14.9188 19.449 14.5861 19.5152 14.25 19.5152C13.9139 19.5152 13.5811 19.449 13.2706 19.3204C12.9601 19.1918 12.678 19.0033 12.4404 18.7657L10.6404 16.9657C10.3865 16.7118 10.3865 16.3003 10.6404 16.0464C10.8942 15.7926 11.3058 15.7926 11.5596 16.0464L13.3596 17.8464C13.4765 17.9634 13.6153 18.0561 13.7681 18.1194C13.9209 18.1827 14.0846 18.2152 14.25 18.2152C14.4153 18.2152 14.5791 18.1827 14.7318 18.1194C14.8846 18.0561 15.0234 17.9634 15.1404 17.8464C15.2573 17.7295 15.35 17.5907 15.4133 17.4379C15.4766 17.2852 15.5092 17.1214 15.5092 16.9561C15.5092 16.7907 15.4766 16.627 15.4133 16.4742C15.35 16.3214 15.2573 16.1826 15.1404 16.0657C14.8865 15.8118 14.8865 15.4003 15.1404 15.1464Z" fill="#475BB2"/>
<path fill-rule="evenodd" clip-rule="evenodd" d="M16.4994 5.20196C15.6283 4.68113 14.6084 4.46573 13.601 4.58986C12.5939 4.71398 11.6569 5.17041 10.9383 5.88694V5.88694L8.40958 8.41569C8.17344 8.65183 8.04077 8.97211 8.04077 9.30607C8.04077 9.64003 8.17344 9.96031 8.40958 10.1964C8.64573 10.4326 8.966 10.5653 9.29996 10.5653C9.63392 10.5653 9.9542 10.4326 10.1903 10.1964L10.9823 9.40445C11.6105 8.7771 12.4622 8.42445 13.35 8.42445C14.2377 8.42445 15.0892 8.77682 15.7173 9.40416L19.2096 12.8964C19.6895 13.3764 19.9592 14.0273 19.9592 14.7061C19.9592 15.3848 19.6895 16.0357 19.2096 16.5157C18.7296 16.9956 18.0787 17.2653 17.4 17.2653C16.7212 17.2653 16.0703 16.9956 15.5903 16.5157L13.3403 14.2657C13.0865 14.0118 13.0865 13.6003 13.3403 13.3464C13.5942 13.0926 14.0057 13.0926 14.2596 13.3464L16.5096 15.5964C16.7457 15.8326 17.066 15.9653 17.4 15.9653C17.7339 15.9653 18.0542 15.8326 18.2903 15.5964C18.5265 15.3603 18.6592 15.04 18.6592 14.7061C18.6592 14.3721 18.5265 14.0518 18.2903 13.8157L14.7986 10.324C14.4143 9.94008 13.8932 9.72444 13.35 9.72444C12.8067 9.72444 12.2857 9.94008 11.9013 10.324L11.1096 11.1157C10.6296 11.5956 9.9787 11.8653 9.29996 11.8653C8.62122 11.8653 7.97028 11.5956 7.49034 11.1157C7.0104 10.6357 6.74077 9.98481 6.74077 9.30607C6.74077 8.62733 7.0104 7.97639 7.49034 7.49645L10.0193 4.96745C10.9428 4.04644 12.1476 3.45914 13.442 3.29962C14.7363 3.14014 16.0467 3.41681 17.166 4.08585V4.08585L17.5918 4.33957C17.8363 4.48713 18.127 4.53845 18.4072 4.48355L18.4083 4.48332L19.9718 4.16883C20.3237 4.09804 20.6664 4.32595 20.7372 4.67789C20.808 5.02983 20.5801 5.37251 20.2281 5.44331L18.6621 5.75831L18.6596 5.75881C18.0625 5.87642 17.4431 5.76762 16.9219 5.45364L16.9201 5.45256L16.4994 5.20196Z" fill="#475BB2"/>
<path fill-rule="evenodd" clip-rule="evenodd" d="M20.0411 3.25873C20.3986 3.22622 20.7148 3.4897 20.7473 3.84721L21.6473 13.7472C21.6638 13.9291 21.6031 14.1095 21.48 14.2444C21.3568 14.3792 21.1826 14.4561 21 14.4561H19.2C18.841 14.4561 18.55 14.165 18.55 13.8061C18.55 13.4471 18.841 13.1561 19.2 13.1561H20.2882L19.4526 3.9649C19.4201 3.60739 19.6836 3.29123 20.0411 3.25873Z" fill="#475BB2"/>
<path fill-rule="evenodd" clip-rule="evenodd" d="M3.95883 3.25873C4.31634 3.29123 4.57981 3.60739 4.54731 3.9649L3.67487 13.5617L9.3096 19.1964C9.54574 19.4326 9.86602 19.5652 10.2 19.5652C10.5339 19.5652 10.8542 19.4326 11.0904 19.1964C11.3265 18.9603 11.4592 18.64 11.4592 18.3061C11.4592 17.9721 11.3265 17.6518 11.0904 17.4157C10.8365 17.1618 10.8365 16.7503 11.0904 16.4964C11.3442 16.2426 11.7558 16.2426 12.0096 16.4964C12.4895 16.9764 12.7592 17.6273 12.7592 18.3061C12.7592 18.9848 12.4895 19.6357 12.0096 20.1157C11.5297 20.5956 10.8787 20.8652 10.2 20.8652C9.52124 20.8652 8.8703 20.5956 8.39036 20.1157L2.54036 14.2657C2.40395 14.1293 2.33518 13.9393 2.35265 13.7472L3.25265 3.84721C3.28515 3.4897 3.60132 3.22622 3.95883 3.25873Z" fill="#475BB2"/>
<path fill-rule="evenodd" clip-rule="evenodd" d="M3.24998 4.80606C3.24998 4.44707 3.54099 4.15606 3.89998 4.15606H11.1C11.459 4.15606 11.75 4.44707 11.75 4.80606C11.75 5.16504 11.459 5.45606 11.1 5.45606H3.89998C3.54099 5.45606 3.24998 5.16504 3.24998 4.80606Z" fill="#475BB2"/>
</svg>
