<svg xmlns="http://www.w3.org/2000/svg" fill="none" viewBox="0 0 24 24">
  <path stroke="#383838" stroke-linecap="round" stroke-linejoin="round" stroke-width="1.25" d="M7.43 10.226v-6.45c0-.47.191-.923.533-1.256.341-.333.805-.52 1.288-.52h7.285L22 7.33v10.658c0 .47-.191.923-.533 1.256-.342.333-.805.52-1.288.52h-7.126"/>
  <path stroke="#383838" stroke-linecap="round" stroke-linejoin="round" stroke-width="1.25" d="M16.535 2v5.33h5.464m-3.645 4.44h-6.233m7.286 3.552h-5.18M12.89 8.218h-1.822m-6.655 7.31v-2.352c0-.78.318-1.528.883-2.08a3.054 3.054 0 0 1 2.132-.861c.8 0 1.567.31 2.132.861.566.552.883 1.3.883 2.08v2.352m1.206.002H3.206C2.54 15.53 2 16.057 2 16.707v4.117C2 21.474 2.54 22 3.206 22h8.442c.667 0 1.207-.527 1.207-1.176v-4.117c0-.65-.54-1.177-1.207-1.177Z"/>
</svg>
