<svg xmlns="http://www.w3.org/2000/svg" fill="none" viewBox="0 0 24 24">
  <mask id="a" fill="#fff">
    <path d="M6.485 21.998c-.41-.086-.778-.241-1.062-.566C5.115 21.08 5 20.667 5 20.21V3.753c.005-.714.299-1.267.952-1.574.249-.11.518-.168.79-.167 2.857-.014 5.715-.01 8.571-.012a.627.627 0 0 1 .47.196c1.337 1.34 2.676 2.68 4.018 4.017a.645.645 0 0 1 .199.49c-.003 4.515-.003 9.031 0 13.548 0 .915-.621 1.614-1.434 1.725a.197.197 0 0 0-.052.024l-12.03-.002Zm8.514-19.165H6.832c-.685 0-1 .317-1 1.005V20.16c0 .69.315 1.008.998 1.008h11.344c.673 0 .993-.32.993-.994V7.001h-.232c-.733 0-1.47.005-2.206 0-.705-.006-1.252-.305-1.553-.95a2.09 2.09 0 0 1-.17-.81C14.984 4.446 15 3.652 15 2.832Zm3.479 3.329L15.84 3.524c0 .602-.021 1.245.007 1.885.02.435.32.727.76.746.634.026 1.27.007 1.87.007Z"/>
  </mask>
  <path fill="#383838" d="M6.485 21.998 6.23 23.22l.126.026h.128v-1.25Zm-1.062-.566.94-.823-.94.823ZM5 20.21l1.25.002v-.002H5ZM5 3.753l-1.25-.01v.01H5Zm.952-1.574-.509-1.141-.01.004-.012.006.531 1.131Zm.79-.167-.002 1.25h.009l-.007-1.25ZM15.313 2l.001 1.25h.029L15.313 2Zm.47.196-.907.86.01.011.012.012.885-.883Zm4.018 4.017-.883.885.01.01.009.009.863-.904Zm.199.49-1.25-.044v.043H20Zm0 13.548h1.25H20Zm-1.434 1.725-.169-1.238-.087.012-.086.024.342 1.202Zm-.052.024v1.25h.369l.31-.2-.68-1.05ZM14.999 2.833h1.25v-1.25h-1.25v1.25ZM19.167 7h1.25V5.75h-1.25V7Zm-2.438 0-.011 1.25h.003L16.729 7Zm-1.553-.95-1.148.493.007.018.008.017 1.133-.528Zm-.17-.81 1.25-.01v-.026l-1.25.035Zm3.472.92v1.25h3.017l-2.133-2.133-.884.884ZM15.84 3.525l.884-.884L14.59.506v3.018h1.25Zm.007 1.885 1.249-.054v-.001l-1.249.055Zm.76.746-.053 1.249.053-1.25ZM6.739 20.774a1.105 1.105 0 0 1-.27-.085.328.328 0 0 1-.105-.08l-1.882 1.646c.528.604 1.188.85 1.748.966l.51-2.447Zm-.375-.165c-.063-.072-.114-.167-.114-.398l-2.5-.003c0 .684.18 1.415.732 2.047l1.882-1.646Zm-.114-.4V7.345h-2.5V20.21h2.5Zm0-12.864V3.753h-2.5v3.592h2.5Zm0-3.582c.001-.19.04-.28.062-.318.016-.028.052-.078.171-.134L5.421 1.048c-.533.25-.971.63-1.266 1.134-.29.494-.401 1.037-.405 1.562l2.5.019Zm.212-.442a.679.679 0 0 1 .278-.06l.005-2.5a3.179 3.179 0 0 0-1.302.277L6.462 3.32Zm.287-.06c2.853-.013 5.704-.008 8.565-.01l-.002-2.5C12.46.752 9.597.747 6.736.76l.013 2.5Zm8.594-.011a.623.623 0 0 1-.254-.048l.96-2.308c-.242-.1-.503-.15-.765-.143l.059 2.499Zm-.254-.048a.623.623 0 0 1-.213-.147l1.815-1.719c-.18-.19-.4-.341-.642-.442l-.96 2.308Zm-.19-.123c1.337 1.34 2.677 2.68 4.019 4.02l1.765-1.771c-1.34-1.337-2.679-2.675-4.015-4.015l-1.77 1.766Zm4.038 4.038a.604.604 0 0 1-.142-.21l2.315-.942c-.1-.247-.252-.47-.446-.656l-1.727 1.808Zm-.142-.21a.604.604 0 0 1-.045-.248l2.499.087a1.896 1.896 0 0 0-.139-.781l-2.315.943Zm-.045-.205c-.003 4.516-.003 9.033 0 13.55l2.5-.002a13299.7 13299.7 0 0 1 0-13.547l-2.5-.002Zm0 13.549c0 .17-.055.285-.116.356a.37.37 0 0 1-.237.13l.339 2.478c1.463-.2 2.514-1.456 2.514-2.964h-2.5Zm-.526.523c-.138.039-.27.099-.39.177l1.36 2.098c-.089.057-.185.1-.286.13l-.684-2.405Zm.29-.024-12.03-.002v2.5l12.03.002v-2.5ZM14.999 1.583h-.24v2.5h.24v-2.5Zm-.24 0H6.832v2.5h7.927v-2.5Zm-7.927 0c-.511 0-1.15.116-1.643.613-.493.495-.608 1.132-.608 1.642h2.5c0-.081.01-.096.001-.068a.495.495 0 0 1-.121.19.5.5 0 0 1-.192.123c-.03.01-.017 0 .063 0v-2.5Zm-2.25 2.255V20.16h2.5V3.838h-2.5Zm0 16.321c0 .51.114 1.148.605 1.643.493.497 1.13.615 1.643.615v-2.5c-.078 0-.09-.01-.06 0a.5.5 0 0 1 .192.124.48.48 0 0 1 .12.188c.009.027 0 .012 0-.07h-2.5Zm2.248 2.258h11.344v-2.5H6.83v2.5Zm11.344 0c.513 0 1.144-.122 1.633-.61.489-.49.61-1.12.61-1.634h-2.5c0 .16-.039.026.122-.134.16-.16.294-.122.135-.122v2.5Zm2.243-2.244V7.23h-2.5v12.943h2.5Zm0-12.944v-.228h-2.5v.228h2.5Zm-1.25-1.478h-.232v2.5h.232v-2.5Zm-.232 0c-.745 0-1.467.005-2.197 0l-.017 2.5c.74.005 1.492 0 2.214 0v-2.5Zm-2.194 0c-.18-.002-.266-.04-.3-.06-.028-.016-.078-.052-.132-.169L14.043 6.58c.247.528.621.965 1.12 1.26.49.292 1.03.407 1.555.412l.023-2.5Zm-.416-.194a.841.841 0 0 1-.069-.326l-2.5.018c.004.445.096.886.272 1.295l2.297-.987Zm-.07-.352c-.02-.77-.006-1.52-.006-2.372h-2.5c0 .79-.015 1.626.008 2.443l2.499-.071Zm3.107.073L16.725 2.64l-1.768 1.768 2.637 2.637 1.768-1.767ZM14.59 3.524c0 .546-.021 1.265.009 1.94l2.497-.11c-.027-.604-.006-1.172-.006-1.83h-2.5Zm.008 1.94c.022.5.215.993.597 1.367.38.372.87.552 1.36.573l.105-2.498a.46.46 0 0 1 .284.139c.116.114.15.243.152.31l-2.498.11Zm1.957 1.94c.668.028 1.375.008 1.922.008v-2.5c-.652 0-1.217.019-1.818-.006l-.104 2.498Z" mask="url(#a)"/>
  <path stroke="#383838" stroke-linecap="round" stroke-linejoin="round" d="M14.956 11.12 12.46 8.624l-2.5 2.497m2.499-2.498v7.493"/>
</svg>
