<svg xmlns="http://www.w3.org/2000/svg" fill="none" viewBox="0 0 24 24">
  <path fill="#383838" d="M6.485 21.998c-.41-.086-.778-.241-1.062-.566C5.115 21.08 5 20.667 5 20.21V3.753c.005-.714.299-1.267.952-1.574.249-.11.518-.168.79-.167 2.857-.014 5.715-.01 8.571-.012a.627.627 0 0 1 .47.196c1.337 1.34 2.676 2.68 4.018 4.017a.645.645 0 0 1 .199.49c-.003 4.515-.003 9.031 0 13.548 0 .915-.621 1.614-1.434 1.725a.197.197 0 0 0-.052.024l-12.03-.002Zm8.514-19.165H6.832c-.685 0-1 .317-1 1.005V20.16c0 .69.315 1.008.998 1.008h11.344c.673 0 .993-.32.993-.994V7.001h-.232c-.733 0-1.47.005-2.206 0-.705-.006-1.252-.305-1.553-.95a2.09 2.09 0 0 1-.17-.81C14.984 4.446 15 3.652 15 2.832Zm3.479 3.329L15.84 3.524c0 .602-.021 1.245.007 1.885.02.435.32.727.76.746.634.026 1.27.007 1.87.007Z"/>
  <path stroke="#383838" stroke-linecap="round" stroke-linejoin="round" d="M14.956 11.12 12.46 8.624l-2.5 2.497m2.499-2.498v7.493"/>
</svg>
