<svg xmlns="http://www.w3.org/2000/svg" fill="none" viewBox="0 0 24 24">
  <path fill="#383838" d="M11.402 2h1.196c.084.03.17.052.259.067a9.92 9.92 0 0 1 8.745 7.282c.181.67.266 1.368.398 2.053v1.196c-.03.084-.052.17-.067.259a9.923 9.923 0 0 1-7.282 8.745c-.672.18-1.368.266-2.053.398h-1.196a1.511 1.511 0 0 0-.259-.067 9.934 9.934 0 0 1-8.824-7.589c-.14-.574-.215-1.164-.319-1.746v-1.196c.03-.084.052-.17.067-.259A9.931 9.931 0 0 1 9.656 2.32c.575-.14 1.164-.215 1.746-.319Zm-8.545 9.986c-.01 4.965 4.045 9.071 8.88 9.17 5.1.104 9.271-3.97 9.41-8.883.145-5.13-3.99-9.295-8.905-9.422-5.103-.134-9.418 4.028-9.385 9.136Z"/>
  <path fill="#383838" d="M7.258 10.008c1.115.015 1.963.892 1.952 2.024-.011 1.124-.883 1.97-2.013 1.96a1.971 1.971 0 0 1-1.978-2.042c.021-1.11.91-1.957 2.039-1.942Zm1.154 2.005c.006-.697-.498-1.206-1.196-1.207-.68 0-1.182.486-1.195 1.163-.015.697.478 1.216 1.172 1.226.694.01 1.214-.488 1.22-1.182h-.001Zm5.58-.011a1.992 1.992 0 1 1-1.98-1.992 1.953 1.953 0 0 1 1.98 1.992Zm-.797 0c0-.696-.508-1.2-1.204-1.195a1.155 1.155 0 0 0-1.185 1.174c-.01.697.491 1.21 1.184 1.215.694.005 1.204-.5 1.204-1.195l.001.001Zm3.585-1.994a1.957 1.957 0 0 1 1.993 1.983c0 1.144-.868 2.01-2.014 2.002a1.992 1.992 0 0 1 .021-3.984Zm-.006 3.187c.697 0 1.203-.5 1.201-1.195a1.155 1.155 0 0 0-1.168-1.191c-.697-.012-1.213.486-1.22 1.178-.008.693.493 1.205 1.187 1.208Z"/>
</svg>
