<svg xmlns="http://www.w3.org/2000/svg" fill="none" viewBox="0 0 24 24">
  <circle cx="12" cy="12" r="9.375" stroke="#383838" stroke-width="1.25"/>
  <path fill="#383838" d="M7.268 10.067c1.084.014 1.908.868 1.898 1.97-.011 1.095-.858 1.918-1.957 1.91a1.91 1.91 0 0 1-1.797-1.232 1.922 1.922 0 0 1-.126-.758c.021-1.081.886-1.905 1.982-1.89Zm1.122 1.952c.006-.678-.484-1.174-1.162-1.175-.662 0-1.15.473-1.162 1.132-.014.679.465 1.184 1.14 1.194.674.01 1.179-.475 1.184-1.151Zm5.55-.012a1.94 1.94 0 1 1-1.928-1.94 1.904 1.904 0 0 1 1.929 1.94Zm-.775 0c0-.678-.495-1.169-1.173-1.164a1.125 1.125 0 0 0-1.154 1.144c-.01.678.478 1.178 1.153 1.182.675.005 1.173-.487 1.173-1.164v.002Zm3.617-1.94a1.897 1.897 0 0 1 1.794 1.186 1.9 1.9 0 0 1 .14.745c0 1.113-.842 1.958-1.955 1.949a1.932 1.932 0 0 1-1.365-.575 1.942 1.942 0 0 1 1.385-3.304v-.001Zm-.007 3.103c.677 0 1.168-.488 1.167-1.164a1.128 1.128 0 0 0-.693-1.075 1.117 1.117 0 0 0-.442-.084c-.677-.012-1.179.473-1.185 1.147-.008.674.48 1.173 1.153 1.176Z"/>
</svg>
