<svg xmlns="http://www.w3.org/2000/svg" fill="none" viewBox="0 0 24 24">
  <path fill="#383838" d="M6.485 21.998c-.41-.086-.778-.241-1.062-.566C5.115 21.08 5 20.667 5 20.21V3.753c.005-.714.299-1.267.952-1.574.249-.11.518-.168.79-.167 2.857-.014 5.715-.01 8.571-.012a.627.627 0 0 1 .47.196c1.337 1.34 2.676 2.68 4.018 4.017a.645.645 0 0 1 .199.49c-.003 4.515-.003 9.031 0 13.548 0 .915-.621 1.614-1.434 1.725a.197.197 0 0 0-.052.024l-12.03-.002Zm8.514-19.165H6.832c-.685 0-1 .317-1 1.005V20.16c0 .69.315 1.008.998 1.008h11.344c.673 0 .993-.32.993-.994V7.001h-.232c-.733 0-1.47.005-2.206 0-.705-.006-1.252-.305-1.553-.95a2.09 2.09 0 0 1-.17-.81C14.984 4.446 15 3.652 15 2.832Zm3.479 3.329L15.84 3.524c0 .602-.021 1.245.007 1.885.02.435.32.727.76.746.634.026 1.27.007 1.87.007Z"/>
  <path fill="#383838" d="M13.32 10.174c-.004.52-.183.997-.32 1.482-.058.206-.121.41-.195.611a.244.244 0 0 0 .054.277 11.189 11.189 0 0 0 1.628 1.561c.077.05.169.075.261.068.497-.028.993-.08 1.49-.097.177-.007.361.039.537.086.453.124.686.428.689.872.003.511-.249.867-.683 1.016-.53.18-.98.005-1.41-.28-.297-.194-.585-.407-.883-.603a.322.322 0 0 0-.226-.054c-.846.219-1.689.449-2.534.671a.44.44 0 0 0-.296.249c-.415.809-.923 1.55-1.64 2.124-.465.372-.968.6-1.582.367-.8-.302-.97-1.13-.314-1.686.306-.25.639-.464.991-.642.62-.324 1.259-.61 1.886-.921a.405.405 0 0 0 .191-.195c.285-.792.562-1.587.83-2.385.02-.062-.02-.158-.057-.224-.248-.44-.533-.86-.746-1.314-.253-.536-.22-1.117-.049-1.674.2-.647.746-.932 1.444-.808.477.085.735.38.834.832.048.217.067.443.1.667Zm-1.17 1.418c.088-.305.194-.578.243-.86.046-.306.062-.615.05-.924-.01-.264-.118-.336-.38-.328-.2.006-.302.098-.36.34-.161.658.067 1.218.448 1.772h-.002Zm.3 1.77-.478 1.44 1.46-.384-.983-1.056Zm-2.282 3.163-.038-.06c-.537.303-1.074.608-1.61.913a.408.408 0 0 0-.085.079c-.147.161-.129.223.082.293a.568.568 0 0 0 .502-.066c.478-.295.83-.712 1.151-1.16h-.002Zm5.454-1.654-.016.064c.125.079.244.175.377.232.14.058.288.095.439.112.113.013.218-.057.195-.18a.254.254 0 0 0-.172-.162c-.27-.036-.546-.048-.82-.066h-.003Z"/>
</svg>
