<svg xmlns="http://www.w3.org/2000/svg" fill="none" viewBox="0 0 24 24">
  <g fill="#383838" clip-path="url(#a)">
    <path d="M16.973 11.422c.144-.014.29-.014.434 0a1.5 1.5 0 0 0 0-.817c-.105-.503-.247-.803-.54-.75-.292.052-.3.405-.195.9.05.242.153.47.3.667Zm-2.498.398c.21.09.338.15.383.098.044-.053 0-.098 0-.173a1.17 1.17 0 0 0-.54-.435 1.44 1.44 0 0 0-1.425.172c-.143.098-.27.24-.256.33a.09.09 0 0 0 .075.053c.324-.09.652-.162.983-.217.27-.006.537.053.78.172Zm-.42.24a.96.96 0 0 0-.518.217.315.315 0 0 0-.127.203.075.075 0 0 0 0 .053h.045a.931.931 0 0 0 .203-.053c.277-.104.576-.137.87-.098h.232c.03 0 0-.037 0-.082a.787.787 0 0 0-.705-.24Zm2.078.877a.33.33 0 0 0 .45-.082c.067-.135 0-.315-.218-.405a.33.33 0 0 0-.45.083c-.067.127.03.315.218.405Zm1.177-1.034c-.142 0-.27.157-.27.367s.113.375.262.375c.15 0 .27-.165.278-.367.008-.203-.12-.376-.27-.376ZM7.268 15.6c0-.045-.098 0-.158 0h-.143a.286.286 0 0 1-.217-.127.48.48 0 0 1 0-.473.7.7 0 0 0 0-.075 1.298 1.298 0 0 0 .098-1.148 1.02 1.02 0 0 0-.75-.57.997.997 0 0 0-.848.338 1.237 1.237 0 0 0-.322 1.043.12.12 0 0 0 .09.082c.052 0 .135 0 .187-.172v-.045c.03-.115.079-.223.143-.323a.592.592 0 0 1 .367-.263c.16-.03.327.002.465.09a.593.593 0 0 1 .218.705 1.5 1.5 0 0 0-.113.63.615.615 0 0 0 .555.638.466.466 0 0 0 .435-.18.128.128 0 0 0-.008-.15Z"/>
    <path d="M21.09 14.783s-.067-.248-.15-.51a4.177 4.177 0 0 0-.165-.443c.243-.341.345-.763.285-1.178a1.5 1.5 0 0 0-.427-.84 3.577 3.577 0 0 0-1.5-.75l-.383-.112s0-.922-.038-1.305a4.575 4.575 0 0 0-.172-1.147 3.127 3.127 0 0 0-.795-1.425 4.83 4.83 0 0 0 1.575-3.06c0-1.823-2.25-2.378-5.01-1.23L13.687 3l-1.08-1.027C9.457-.75-.396 10.178 2.754 12.84l.69.585A3.315 3.315 0 0 0 3.254 15a3.07 3.07 0 0 0 1.058 1.98 3.285 3.285 0 0 0 2.092.84 7.995 7.995 0 0 0 7.305 4.68c3.525.105 6.488-1.552 7.725-4.5a6.18 6.18 0 0 0 .428-1.973c0-.9-.473-1.245-.773-1.245Zm-14.415 2.25A2.542 2.542 0 0 1 4.02 14.91a2.093 2.093 0 0 1 2.13-2.491 2.033 2.033 0 0 1 1.785 1.912c.188 1.23-.112 2.483-1.26 2.678v.022Zm-1.192-5.326a2.723 2.723 0 0 0-1.733 1.088 4.706 4.706 0 0 1-.75-.697c-.563-1.155.75-3.405 1.598-4.673 2.197-3.135 5.64-5.505 7.23-5.077.415.307.79.664 1.117 1.065a22.697 22.697 0 0 0-3.068 2.115 14.003 14.003 0 0 0-4.395 6.18Zm11.174 4.83a.053.053 0 0 0 0-.06.06.06 0 0 0-.06-.052 7.432 7.432 0 0 1-3.24-.33c.166-.555.623-.352 1.313-.3a9.502 9.502 0 0 0 3.18-.345 7.192 7.192 0 0 0 2.4-1.2c.158.362.269.742.33 1.133a.578.578 0 0 1 .353.067c.15.09.262.285.187.75a4.305 4.305 0 0 1-1.215 2.37 4.994 4.994 0 0 1-1.448 1.087 5.65 5.65 0 0 1-.952.398c-2.497.817-5.047-.082-5.872-2.003a2.997 2.997 0 0 1-.165-.457 3.997 3.997 0 0 1 .877-3.75.307.307 0 0 0 .112-.218.398.398 0 0 0-.09-.217c-.322-.473-1.455-1.275-1.222-2.835a2.123 2.123 0 0 1 2.055-1.86h.232c.39 0 .75.068 1.066.083a2.115 2.115 0 0 0 1.612-.54c.17-.172.387-.292.623-.345a.623.623 0 0 1 .232 0 .75.75 0 0 1 .398.127c.465.308.532 1.058.555 1.605 0 .315.052 1.072.067 1.29 0 .495.157.57.428.652.15.053.285.09.487.143.446.09.863.29 1.215.577a.75.75 0 0 1 .218.435c.075.525-.413 1.185-1.695 1.778a8.513 8.513 0 0 1-4.276.683l-.412-.045c-.938-.128-1.5 1.087-.907 1.92A3 3 0 0 0 15.39 18c2.25 0 4.02-.968 4.665-1.808a.4.4 0 0 0 .053-.075c.037-.044 0-.075 0-.044-.533.36-2.888 1.8-5.408 1.372a3.238 3.238 0 0 1-.585-.165 1.036 1.036 0 0 1-.75-.75 4.89 4.89 0 0 0 3.292.008ZM9.54 7.41a9.196 9.196 0 0 1 2.61-2.122s.06 0 .045.045c-.11.185-.193.384-.248.592 0 0 0 .053.06 0a5.122 5.122 0 0 1 2.25-.802c.038 0 .053.045 0 .06a1.861 1.861 0 0 0-.36.367v.053a4.447 4.447 0 0 1 1.913.502v.075a7.868 7.868 0 0 0-3.465 0A7.957 7.957 0 0 0 9.592 7.5s-.075-.052-.052-.09Z"/>
  </g>
  <defs>
    <clipPath id="a">
      <path fill="#fff" d="M0 0h24v24H0z"/>
    </clipPath>
  </defs>
</svg>
